<svg width="184" height="184" viewBox="0 0 184 184" fill="none" xmlns="http://www.w3.org/2000/svg">
<path fill-rule="evenodd" clip-rule="evenodd" d="M7.66667 38.3333C7.66667 29.865 14.5316 23 23 23H161C169.468 23 176.333 29.865 176.333 38.3333V145.667C176.333 154.135 169.468 161 161 161H23C14.5316 161 7.66667 154.135 7.66667 145.667V38.3333ZM40.1792 64.0105C42.9347 60.7957 47.7747 60.4234 50.9895 63.1789L77.8229 86.1789C79.5222 87.6355 80.5001 89.7618 80.5001 91.9999C80.5001 94.238 79.5222 96.3643 77.8229 97.8209L50.9895 120.821C47.7747 123.576 42.9347 123.204 40.1792 119.989C37.4236 116.774 37.7959 111.935 41.0107 109.179L61.0529 91.9999L41.0107 74.8209C37.7959 72.0653 37.4236 67.2253 40.1792 64.0105ZM80.5 122.667C80.5 118.432 83.9325 115 88.1667 115H138C142.234 115 145.667 118.432 145.667 122.667C145.667 126.901 142.234 130.333 138 130.333H88.1667C83.9325 130.333 80.5 126.901 80.5 122.667Z" fill="#FC5185"/>
</svg>