<svg width="184" height="184" viewBox="0 0 184 184" fill="none" xmlns="http://www.w3.org/2000/svg">
<g filter="url(#filter0_d)">
<path d="M161 23C169.468 23 176.333 29.8649 176.333 38.3333V145.667C176.333 154.135 169.468 161 161 161H23C14.5316 161 7.66669 154.135 7.66669 145.667V38.3333C7.66669 29.865 14.5317 23 23 23H161ZM84.0618 38.3196L23 38.3333V145.667H99.1377L98.1044 130.142C96.1016 130.268 94.0665 130.333 92 130.333C79.5672 130.333 68.2692 127.98 58.3116 124.047C52.2313 121.646 47.8625 119.185 45.3705 117.401C41.9277 114.936 41.1347 110.147 43.5995 106.704C45.8747 103.526 50.1303 102.606 53.4795 104.422C56.8473 106.488 60.2561 108.329 63.9445 109.786C72.1838 113.04 81.5927 115 92 115C93.7232 115 95.4189 114.946 97.0865 114.842L96.324 103.5H80.5C76.9782 103.5 73.9511 101.11 73.0818 97.7711L72.9104 96.9176C71.9591 90.2586 72.193 82.8735 73.425 74.8658C74.7881 66.0059 77.3227 56.667 80.688 47.1831C81.7755 44.1182 82.9092 41.1534 84.0618 38.3196ZM161 38.3333H100.717L100.376 39.1094C98.5915 43.1645 96.8044 47.6159 95.1385 52.3107C92.0716 60.9539 89.7801 69.3969 88.58 77.1973C88.0706 80.5085 87.769 83.6437 87.6843 86.5774L87.6684 88.1667H103.5C107.248 88.1667 110.4 90.865 111.046 94.4749L111.15 95.3234L112.284 112.36C114.978 111.632 117.57 110.768 120.056 109.786C123.397 108.466 126.698 106.917 129.704 104.933C133.147 102.468 137.936 103.261 140.401 106.704C142.865 110.147 142.072 114.936 138.63 117.401C136.138 119.185 131.769 121.646 125.688 124.047C121.77 125.595 117.643 126.898 113.322 127.91L114.502 145.667H161V38.3333ZM130.333 53.6667C134.265 53.6667 137.506 56.6263 137.948 60.4392L138 61.3333V69C138 73.2342 134.568 76.6667 130.333 76.6667C126.402 76.6667 123.161 73.707 122.718 69.8941L122.667 69V61.3333C122.667 57.0991 126.099 53.6667 130.333 53.6667ZM53.6667 53.6667C57.5984 53.6667 60.8389 56.6263 61.2818 60.4392L61.3333 61.3333V69C61.3333 73.2342 57.9009 76.6667 53.6667 76.6667C49.7349 76.6667 46.4945 73.707 46.0516 69.8941L46 69V61.3333C46 57.0991 49.4325 53.6667 53.6667 53.6667Z" fill="#364F6B"/>
</g>
<path fill-rule="evenodd" clip-rule="evenodd" d="M161 38.332H100.717L100.376 39.1081C98.5915 43.1632 96.8044 47.6146 95.1385 52.3095C92.0716 60.9526 89.7801 69.3956 88.58 77.196C88.0706 80.5073 87.769 83.6424 87.6843 86.5761L87.6683 88.1654H103.5C107.248 88.1654 110.4 90.8637 111.046 94.4736L111.15 95.3221L112.284 112.358C114.978 111.631 117.57 110.767 120.056 109.785C123.397 108.465 126.698 106.916 129.704 104.932C133.147 102.467 137.936 103.26 140.401 106.703C142.865 110.145 142.072 114.934 138.63 117.399C136.137 119.183 131.769 121.644 125.688 124.046C121.77 125.594 117.643 126.897 113.322 127.908L114.502 145.665H161V38.332ZM137.948 60.4379C137.506 56.625 134.265 53.6654 130.333 53.6654C126.099 53.6654 122.667 57.0979 122.667 61.332V68.9987L122.718 69.8928C123.161 73.7057 126.402 76.6654 130.333 76.6654C134.568 76.6654 138 73.2329 138 68.9987V61.332L137.948 60.4379Z" fill="#FC5185"/>
<path fill-rule="evenodd" clip-rule="evenodd" d="M84.0618 38.3184L23 38.332V145.665H99.1377L98.1044 130.141C96.1016 130.267 94.0665 130.332 92 130.332C79.5671 130.332 68.2692 127.979 58.3115 124.046C52.2313 121.644 47.8625 119.183 45.3705 117.399C41.9276 114.934 41.1347 110.145 43.5995 106.703C45.8746 103.525 50.1303 102.604 53.4794 104.42C56.8473 106.487 60.256 108.328 63.9445 109.785C72.1838 113.039 81.5927 114.999 92 114.999C93.7231 114.999 95.4189 114.945 97.0865 114.841L96.324 103.499H80.5C76.9782 103.499 73.951 101.108 73.0818 97.7698L72.9104 96.9163C71.9591 90.2573 72.193 82.8722 73.425 74.8645C74.788 66.0046 77.3227 56.6657 80.6879 47.1818C81.7755 44.1169 82.9092 41.1521 84.0618 38.3184ZM61.2818 60.4379C60.8389 56.625 57.5984 53.6654 53.6667 53.6654C49.4325 53.6654 46 57.0979 46 61.332V68.9987L46.0516 69.8928C46.4944 73.7057 49.7349 76.6654 53.6667 76.6654C57.9008 76.6654 61.3333 73.2329 61.3333 68.9987V61.332L61.2818 60.4379Z" fill="#FC5185"/>
<defs>
<filter id="filter0_d" x="3.66669" y="23" width="176.667" height="146" filterUnits="userSpaceOnUse" color-interpolation-filters="sRGB">
<feFlood flood-opacity="0" result="BackgroundImageFix"/>
<feColorMatrix in="SourceAlpha" type="matrix" values="0 0 0 0 0 0 0 0 0 0 0 0 0 0 0 0 0 0 127 0"/>
<feOffset dy="4"/>
<feGaussianBlur stdDeviation="2"/>
<feColorMatrix type="matrix" values="0 0 0 0 0 0 0 0 0 0 0 0 0 0 0 0 0 0 0.25 0"/>
<feBlend mode="normal" in2="BackgroundImageFix" result="effect1_dropShadow"/>
<feBlend mode="normal" in="SourceGraphic" in2="effect1_dropShadow" result="shape"/>
</filter>
</defs>
</svg>