<svg width="244" height="58" viewBox="0 0 244 58" fill="none" xmlns="http://www.w3.org/2000/svg">
<path d="M21.96 51.712H14.184C13.416 51.712 12.856 51.536 12.504 51.184C12.152 50.832 11.976 50.272 11.976 49.504V26.416H5.4C4.632 26.416 4.072 26.24 3.72 25.888C3.368 25.536 3.192 24.976 3.192 24.208V18.4C3.192 17.984 3.24 17.632 3.336 17.344C3.464 17.056 3.64 16.816 3.864 16.624L10.056 11.392C10.216 11.264 10.424 11.168 10.68 11.104C10.968 11.008 11.272 10.96 11.592 10.96H36.936C37.704 10.96 38.264 11.136 38.616 11.488C38.968 11.84 39.144 12.4 39.144 13.168V18.976C39.144 19.392 39.08 19.744 38.952 20.032C38.856 20.32 38.696 20.56 38.472 20.752L32.232 25.936C32.104 26.064 31.896 26.176 31.608 26.272C31.352 26.368 31.064 26.416 30.744 26.416H30.36V44.272C30.36 44.688 30.296 45.04 30.168 45.328C30.072 45.616 29.912 45.856 29.688 46.048L23.448 51.232C23.32 51.36 23.112 51.472 22.824 51.568C22.568 51.664 22.28 51.712 21.96 51.712ZM28.152 46C28.76 46 29.192 45.872 29.448 45.616C29.736 45.328 29.88 44.88 29.88 44.272V20.704H36.936C37.544 20.704 37.976 20.576 38.232 20.32C38.52 20.032 38.664 19.584 38.664 18.976V13.168C38.664 12.56 38.52 12.128 38.232 11.872C37.976 11.584 37.544 11.44 36.936 11.44H11.592C10.984 11.44 10.536 11.584 10.248 11.872C9.992 12.128 9.864 12.56 9.864 13.168V18.976C9.864 19.584 9.992 20.032 10.248 20.32C10.536 20.576 10.984 20.704 11.592 20.704H18.648V44.272C18.648 44.88 18.776 45.328 19.032 45.616C19.32 45.872 19.768 46 20.376 46H28.152ZM24.024 41.68V16.24H14.184V15.76H34.344V16.24H24.504V41.68H24.024ZM63.3293 51.712H42.8813C42.1133 51.712 41.5533 51.536 41.2013 51.184C40.8493 50.832 40.6733 50.272 40.6733 49.504V43.792C40.6733 43.376 40.7213 43.024 40.8173 42.736C40.9453 42.448 41.1213 42.208 41.3453 42.016L47.1533 37.12V26.416H42.8813C42.1133 26.416 41.5533 26.24 41.2013 25.888C40.8493 25.536 40.6733 24.976 40.6733 24.208V18.4C40.6733 17.984 40.7213 17.632 40.8173 17.344C40.9453 17.056 41.1213 16.816 41.3453 16.624L47.5373 11.392C47.6973 11.264 47.9053 11.168 48.1613 11.104C48.4493 11.008 48.7533 10.96 49.0733 10.96H69.5213C70.2893 10.96 70.8493 11.136 71.2013 11.488C71.5533 11.84 71.7293 12.4 71.7293 13.168V18.976C71.7293 19.392 71.6653 19.744 71.5373 20.032C71.4413 20.32 71.2813 20.56 71.0573 20.752L65.3453 25.552V36.352H69.5213C70.2893 36.352 70.8493 36.528 71.2013 36.88C71.5533 37.232 71.7293 37.792 71.7293 38.56V44.272C71.7293 44.688 71.6653 45.04 71.5373 45.328C71.4413 45.616 71.2813 45.856 71.0573 46.048L64.8173 51.232C64.6892 51.36 64.4813 51.472 64.1933 51.568C63.9373 51.664 63.6493 51.712 63.3293 51.712ZM49.0733 46H69.5213C70.1293 46 70.5613 45.872 70.8173 45.616C71.1053 45.328 71.2493 44.88 71.2493 44.272V38.56C71.2493 37.952 71.1053 37.52 70.8173 37.264C70.5613 36.976 70.1293 36.832 69.5213 36.832H64.8653V20.704H69.5213C70.1293 20.704 70.5613 20.576 70.8173 20.32C71.1053 20.032 71.2493 19.584 71.2493 18.976V13.168C71.2493 12.56 71.1053 12.128 70.8173 11.872C70.5613 11.584 70.1293 11.44 69.5213 11.44H49.0733C48.4653 11.44 48.0173 11.584 47.7293 11.872C47.4733 12.128 47.3453 12.56 47.3453 13.168V18.976C47.3453 19.584 47.4733 20.032 47.7293 20.32C48.0173 20.576 48.4653 20.704 49.0733 20.704H53.8253V36.832H49.0733C48.4653 36.832 48.0173 36.976 47.7293 37.264C47.4733 37.52 47.3453 37.952 47.3453 38.56V44.272C47.3453 44.88 47.4733 45.328 47.7293 45.616C48.0173 45.872 48.4653 46 49.0733 46ZM66.9293 41.68H51.6653V41.2H59.1053V16.24H51.6653V15.76H66.9293V16.24H59.5853V41.2H66.9293V41.68ZM98.853 27.52C99.429 27.52 99.845 27.392 100.101 27.136C100.357 26.88 100.757 26.336 101.301 25.504L107.157 16.576C107.349 16.256 107.557 16.048 107.781 15.952C108.037 15.824 108.293 15.76 108.549 15.76H109.365C109.813 15.76 110.133 15.888 110.325 16.144C110.549 16.368 110.661 16.736 110.661 17.248V41.68H110.181V17.248C110.181 16.992 110.117 16.768 109.989 16.576C109.893 16.352 109.685 16.24 109.365 16.24H108.645C108.421 16.24 108.229 16.272 108.069 16.336C107.909 16.4 107.733 16.592 107.541 16.912L101.685 25.744C101.109 26.608 100.661 27.2 100.341 27.52C100.053 27.84 99.557 28 98.853 28C98.149 28 97.637 27.84 97.317 27.52C97.029 27.2 96.597 26.608 96.021 25.744L90.165 16.912C89.973 16.592 89.781 16.4 89.589 16.336C89.429 16.272 89.237 16.24 89.013 16.24H88.293C87.973 16.24 87.765 16.352 87.669 16.576C87.573 16.768 87.525 16.992 87.525 17.248V41.68H87.045V17.248C87.045 16.736 87.141 16.368 87.333 16.144C87.557 15.888 87.877 15.76 88.293 15.76H89.109C89.365 15.76 89.621 15.824 89.877 15.952C90.133 16.048 90.357 16.256 90.549 16.576L96.405 25.504C96.949 26.336 97.349 26.88 97.605 27.136C97.861 27.392 98.277 27.52 98.853 27.52ZM90.837 46C91.445 46 91.877 45.872 92.133 45.616C92.421 45.328 92.565 44.88 92.565 44.272V27.376L95.397 32.608C95.685 33.152 96.021 33.552 96.405 33.808C96.821 34.032 97.333 34.144 97.941 34.144H99.861C100.469 34.144 100.965 34.032 101.349 33.808C101.765 33.552 102.117 33.152 102.405 32.608L105.237 27.376V44.272C105.237 44.88 105.365 45.328 105.621 45.616C105.909 45.872 106.357 46 106.965 46H114.357C114.965 46 115.397 45.872 115.653 45.616C115.941 45.328 116.085 44.88 116.085 44.272V13.168C116.085 12.56 115.941 12.128 115.653 11.872C115.397 11.584 114.965 11.44 114.357 11.44H106.581C106.069 11.44 105.637 11.552 105.285 11.776C104.965 12 104.661 12.368 104.373 12.88L100.101 20.704C99.941 20.992 99.797 21.2 99.669 21.328C99.573 21.456 99.429 21.52 99.237 21.52H98.805C98.613 21.52 98.453 21.456 98.325 21.328C98.229 21.2 98.101 20.992 97.941 20.704L93.621 12.88C93.333 12.368 93.013 12 92.661 11.776C92.341 11.552 91.925 11.44 91.413 11.44H83.685C83.077 11.44 82.629 11.584 82.341 11.872C82.085 12.128 81.957 12.56 81.957 13.168V44.272C81.957 44.88 82.085 45.328 82.341 45.616C82.629 45.872 83.077 46 83.685 46H90.837ZM92.373 46.048L86.133 51.232C86.005 51.36 85.797 51.472 85.509 51.568C85.253 51.664 84.965 51.712 84.645 51.712H77.493C76.725 51.712 76.165 51.536 75.813 51.184C75.461 50.832 75.285 50.272 75.285 49.504V18.4C75.285 17.984 75.333 17.632 75.429 17.344C75.557 17.056 75.733 16.816 75.957 16.624L82.149 11.392C82.309 11.264 82.517 11.168 82.773 11.104C83.061 11.008 83.365 10.96 83.685 10.96H91.413C92.021 10.96 92.517 11.088 92.901 11.344C93.317 11.6 93.701 12.032 94.053 12.64L97.317 18.64L97.749 17.872C97.877 17.648 98.005 17.44 98.133 17.248C98.293 17.024 98.453 16.848 98.613 16.72L104.805 11.536C105.061 11.344 105.317 11.2 105.573 11.104C105.861 11.008 106.197 10.96 106.581 10.96H114.357C115.125 10.96 115.685 11.136 116.037 11.488C116.389 11.84 116.565 12.4 116.565 13.168V44.272C116.565 44.688 116.501 45.04 116.373 45.328C116.277 45.616 116.117 45.856 115.893 46.048L109.653 51.232C109.525 51.36 109.317 51.472 109.029 51.568C108.773 51.664 108.485 51.712 108.165 51.712H100.773C99.973 51.712 99.397 51.536 99.045 51.184C98.725 50.832 98.565 50.272 98.565 49.504V36.832L95.733 39.184C95.477 39.408 95.173 39.584 94.821 39.712C94.501 39.808 94.117 39.856 93.669 39.856H93.045V44.272C93.045 44.688 92.981 45.04 92.853 45.328C92.757 45.616 92.597 45.856 92.373 46.048ZM145.328 51.712H123.056C122.288 51.712 121.728 51.536 121.376 51.184C121.024 50.832 120.848 50.272 120.848 49.504V18.4C120.848 17.984 120.896 17.632 120.992 17.344C121.12 17.056 121.296 16.816 121.52 16.624L127.712 11.392C127.872 11.264 128.08 11.168 128.336 11.104C128.624 11.008 128.928 10.96 129.248 10.96H151.52C152.288 10.96 152.848 11.136 153.2 11.488C153.552 11.84 153.728 12.4 153.728 13.168V18.784C153.728 19.2 153.664 19.552 153.536 19.84C153.44 20.128 153.28 20.368 153.056 20.56L148.928 23.968C149.248 24.128 149.472 24.368 149.6 24.688C149.76 25.008 149.84 25.424 149.84 25.936V31.072C149.84 31.488 149.776 31.84 149.648 32.128C149.552 32.416 149.392 32.656 149.168 32.848L144.896 36.448H151.52C152.288 36.448 152.848 36.624 153.2 36.976C153.552 37.328 153.728 37.888 153.728 38.656V44.272C153.728 44.688 153.664 45.04 153.536 45.328C153.44 45.616 153.28 45.856 153.056 46.048L146.816 51.232C146.688 51.36 146.48 51.472 146.192 51.568C145.936 51.664 145.648 51.712 145.328 51.712ZM151.52 46C152.128 46 152.56 45.872 152.816 45.616C153.104 45.328 153.248 44.88 153.248 44.272V38.656C153.248 38.048 153.104 37.616 152.816 37.36C152.56 37.072 152.128 36.928 151.52 36.928H138.272V32.8H147.632C148.24 32.8 148.672 32.672 148.928 32.416C149.216 32.128 149.36 31.68 149.36 31.072V25.936C149.36 25.328 149.216 24.896 148.928 24.64C148.672 24.352 148.24 24.208 147.632 24.208H138.272V20.512H151.52C152.128 20.512 152.56 20.384 152.816 20.128C153.104 19.84 153.248 19.392 153.248 18.784V13.168C153.248 12.56 153.104 12.128 152.816 11.872C152.56 11.584 152.128 11.44 151.52 11.44H129.248C128.64 11.44 128.192 11.584 127.904 11.872C127.648 12.128 127.52 12.56 127.52 13.168V44.272C127.52 44.88 127.648 45.328 127.904 45.616C128.192 45.872 128.64 46 129.248 46H151.52ZM148.928 41.2V41.68H132.752V15.76H148.928V16.24H133.232V28.288H145.04V28.768H133.232V41.2H148.928ZM194.532 51.712H174.084C173.316 51.712 172.756 51.536 172.404 51.184C172.052 50.832 171.876 50.272 171.876 49.504V43.792C171.876 43.376 171.924 43.024 172.02 42.736C172.148 42.448 172.324 42.208 172.548 42.016L178.356 37.12V26.416H174.084C173.316 26.416 172.756 26.24 172.404 25.888C172.052 25.536 171.876 24.976 171.876 24.208V18.4C171.876 17.984 171.924 17.632 172.02 17.344C172.148 17.056 172.324 16.816 172.548 16.624L178.74 11.392C178.9 11.264 179.108 11.168 179.364 11.104C179.652 11.008 179.956 10.96 180.276 10.96H200.724C201.492 10.96 202.052 11.136 202.404 11.488C202.756 11.84 202.932 12.4 202.932 13.168V18.976C202.932 19.392 202.868 19.744 202.74 20.032C202.644 20.32 202.484 20.56 202.26 20.752L196.548 25.552V36.352H200.724C201.492 36.352 202.052 36.528 202.404 36.88C202.756 37.232 202.932 37.792 202.932 38.56V44.272C202.932 44.688 202.868 45.04 202.74 45.328C202.644 45.616 202.484 45.856 202.26 46.048L196.02 51.232C195.892 51.36 195.684 51.472 195.396 51.568C195.14 51.664 194.852 51.712 194.532 51.712ZM180.276 46H200.724C201.332 46 201.764 45.872 202.02 45.616C202.308 45.328 202.452 44.88 202.452 44.272V38.56C202.452 37.952 202.308 37.52 202.02 37.264C201.764 36.976 201.332 36.832 200.724 36.832H196.068V20.704H200.724C201.332 20.704 201.764 20.576 202.02 20.32C202.308 20.032 202.452 19.584 202.452 18.976V13.168C202.452 12.56 202.308 12.128 202.02 11.872C201.764 11.584 201.332 11.44 200.724 11.44H180.276C179.668 11.44 179.22 11.584 178.932 11.872C178.676 12.128 178.548 12.56 178.548 13.168V18.976C178.548 19.584 178.676 20.032 178.932 20.32C179.22 20.576 179.668 20.704 180.276 20.704H185.028V36.832H180.276C179.668 36.832 179.22 36.976 178.932 37.264C178.676 37.52 178.548 37.952 178.548 38.56V44.272C178.548 44.88 178.676 45.328 178.932 45.616C179.22 45.872 179.668 46 180.276 46ZM198.132 41.68H182.868V41.2H190.308V16.24H182.868V15.76H198.132V16.24H190.788V41.2H198.132V41.68ZM223.288 51.712H215.512C214.744 51.712 214.184 51.536 213.832 51.184C213.48 50.832 213.304 50.272 213.304 49.504V26.416H206.728C205.96 26.416 205.4 26.24 205.048 25.888C204.696 25.536 204.52 24.976 204.52 24.208V18.4C204.52 17.984 204.568 17.632 204.664 17.344C204.792 17.056 204.968 16.816 205.192 16.624L211.384 11.392C211.544 11.264 211.752 11.168 212.008 11.104C212.296 11.008 212.6 10.96 212.92 10.96H238.264C239.032 10.96 239.592 11.136 239.944 11.488C240.296 11.84 240.472 12.4 240.472 13.168V18.976C240.472 19.392 240.408 19.744 240.28 20.032C240.184 20.32 240.024 20.56 239.8 20.752L233.56 25.936C233.432 26.064 233.224 26.176 232.936 26.272C232.68 26.368 232.392 26.416 232.072 26.416H231.688V44.272C231.688 44.688 231.624 45.04 231.496 45.328C231.4 45.616 231.24 45.856 231.016 46.048L224.776 51.232C224.648 51.36 224.44 51.472 224.152 51.568C223.896 51.664 223.608 51.712 223.288 51.712ZM229.48 46C230.088 46 230.52 45.872 230.776 45.616C231.064 45.328 231.208 44.88 231.208 44.272V20.704H238.264C238.872 20.704 239.304 20.576 239.56 20.32C239.848 20.032 239.992 19.584 239.992 18.976V13.168C239.992 12.56 239.848 12.128 239.56 11.872C239.304 11.584 238.872 11.44 238.264 11.44H212.92C212.312 11.44 211.864 11.584 211.576 11.872C211.32 12.128 211.192 12.56 211.192 13.168V18.976C211.192 19.584 211.32 20.032 211.576 20.32C211.864 20.576 212.312 20.704 212.92 20.704H219.976V44.272C219.976 44.88 220.104 45.328 220.36 45.616C220.648 45.872 221.096 46 221.704 46H229.48ZM225.352 41.68V16.24H215.512V15.76H235.672V16.24H225.832V41.68H225.352Z" fill="#FC5185"/>
<path d="M12.504 51.184L14.6253 49.0627H14.6253L12.504 51.184ZM11.976 26.416H14.976V23.416H11.976V26.416ZM3.72 25.888L5.84132 23.7667L5.84132 23.7667L3.72 25.888ZM3.336 17.344L0.594565 16.1256L0.535747 16.2579L0.48995 16.3953L3.336 17.344ZM3.864 16.624L1.92777 14.3325L1.91967 14.3393L1.91162 14.3462L3.864 16.624ZM10.056 11.392L8.18191 9.04939L8.1505 9.07453L8.11977 9.10049L10.056 11.392ZM10.68 11.104L11.4076 14.0144L11.5194 13.9865L11.6287 13.9501L10.68 11.104ZM38.616 11.488L40.7373 9.36668L40.7373 9.36667L38.616 11.488ZM38.952 20.032L36.2106 18.8136L36.1517 18.9459L36.1059 19.0833L38.952 20.032ZM38.472 20.752L40.3891 23.0596L40.4068 23.0448L40.4244 23.0298L38.472 20.752ZM32.232 25.936L30.3149 23.6284L30.2085 23.7168L30.1107 23.8147L32.232 25.936ZM31.608 26.272L30.6593 23.426L30.6066 23.4435L30.5546 23.463L31.608 26.272ZM30.36 26.416V23.416H27.36V26.416H30.36ZM30.168 45.328L27.4266 44.1096L27.3678 44.2419L27.322 44.3793L30.168 45.328ZM29.688 46.048L31.6051 48.3556L31.6228 48.3408L31.6404 48.3258L29.688 46.048ZM23.448 51.232L21.5309 48.9244L21.4245 49.0128L21.3267 49.1107L23.448 51.232ZM22.824 51.568L21.8753 48.722L21.8226 48.7395L21.7706 48.759L22.824 51.568ZM29.448 45.616L27.3267 43.4947L27.3267 43.4947L29.448 45.616ZM29.88 20.704V17.704H26.88V20.704H29.88ZM38.232 11.872L35.9898 13.8651L36.107 13.997L36.2389 14.1142L38.232 11.872ZM10.248 11.872L8.12668 9.75068L8.12668 9.75068L10.248 11.872ZM10.248 20.32L8.00577 22.3131L8.12301 22.445L8.25491 22.5622L10.248 20.32ZM18.648 20.704H21.648V17.704H18.648V20.704ZM19.032 45.616L16.7898 47.6091L16.907 47.741L17.0389 47.8582L19.032 45.616ZM24.024 41.68H21.024V44.68H24.024V41.68ZM24.024 16.24H27.024V13.24H24.024V16.24ZM14.184 16.24H11.184V19.24H14.184V16.24ZM14.184 15.76V12.76H11.184V15.76H14.184ZM34.344 15.76H37.344V12.76H34.344V15.76ZM34.344 16.24V19.24H37.344V16.24H34.344ZM24.504 16.24V13.24H21.504V16.24H24.504ZM24.504 41.68V44.68H27.504V41.68H24.504ZM21.96 48.712H14.184V54.712H21.96V48.712ZM14.184 48.712C14.0166 48.712 14.0026 48.6913 14.0875 48.718C14.186 48.749 14.4033 48.8407 14.6253 49.0627L10.3827 53.3053C11.5382 54.4608 13.0423 54.712 14.184 54.712V48.712ZM14.6253 49.0627C14.8473 49.2847 14.939 49.502 14.97 49.6005C14.9967 49.6854 14.976 49.6714 14.976 49.504H8.976C8.976 50.6457 9.22716 52.1498 10.3827 53.3053L14.6253 49.0627ZM14.976 49.504V26.416H8.976V49.504H14.976ZM11.976 23.416H5.4V29.416H11.976V23.416ZM5.4 23.416C5.23264 23.416 5.21859 23.3953 5.30348 23.422C5.40201 23.453 5.61935 23.5447 5.84132 23.7667L1.59868 28.0093C2.7542 29.1648 4.25829 29.416 5.4 29.416V23.416ZM5.84132 23.7667C6.0633 23.9887 6.15501 24.206 6.18598 24.3045C6.21266 24.3894 6.192 24.3754 6.192 24.208H0.192C0.192 25.3497 0.443156 26.8538 1.59868 28.0093L5.84132 23.7667ZM6.192 24.208V18.4H0.192V24.208H6.192ZM6.192 18.4C6.192 18.3053 6.19759 18.2506 6.20049 18.2293C6.20344 18.2077 6.20192 18.2331 6.18205 18.2927L0.48995 16.3953C0.262042 17.079 0.192 17.7723 0.192 18.4H6.192ZM6.07743 18.5624C6.037 18.6534 5.95364 18.7841 5.81638 18.9018L1.91162 14.3462C1.32636 14.8479 0.891003 15.4586 0.594565 16.1256L6.07743 18.5624ZM5.80023 18.9155L11.9922 13.6835L8.11977 9.10049L1.92777 14.3325L5.80023 18.9155ZM11.9301 13.7346C11.671 13.9419 11.4543 14.0028 11.4076 14.0144L9.95238 8.19357C9.39372 8.33324 8.76103 8.5861 8.18191 9.04939L11.9301 13.7346ZM11.6287 13.9501C11.6138 13.955 11.6008 13.9579 11.5919 13.9593C11.5831 13.9607 11.5825 13.96 11.592 13.96V7.96C10.9671 7.96 10.3414 8.05458 9.73133 8.25794L11.6287 13.9501ZM11.592 13.96H36.936V7.96H11.592V13.96ZM36.936 13.96C37.1034 13.96 37.1174 13.9807 37.0325 13.954C36.934 13.923 36.7167 13.8313 36.4947 13.6093L40.7373 9.36667C39.5818 8.21116 38.0777 7.96 36.936 7.96V13.96ZM36.4947 13.6093C36.2727 13.3873 36.181 13.17 36.15 13.0715C36.1233 12.9866 36.144 13.0006 36.144 13.168H42.144C42.144 12.0263 41.8928 10.5222 40.7373 9.36668L36.4947 13.6093ZM36.144 13.168V18.976H42.144V13.168H36.144ZM36.144 18.976C36.144 19.0323 36.1395 19.0422 36.1444 19.0153C36.1494 18.9875 36.1656 18.9147 36.2106 18.8136L41.6934 21.2504C42.0371 20.4771 42.144 19.6839 42.144 18.976H36.144ZM36.1059 19.0833C36.1378 18.9876 36.1884 18.8771 36.2639 18.7639C36.3396 18.6502 36.4279 18.5528 36.5196 18.4742L40.4244 23.0298C41.0736 22.4733 41.5353 21.7688 41.7981 20.9807L36.1059 19.0833ZM36.5549 18.4444L30.3149 23.6284L34.1491 28.2436L40.3891 23.0596L36.5549 18.4444ZM30.1107 23.8147C30.305 23.6204 30.4783 23.5173 30.5577 23.4746C30.6411 23.4297 30.6834 23.4179 30.6593 23.426L32.5567 29.118C33.0248 28.962 33.7447 28.666 34.3533 28.0573L30.1107 23.8147ZM30.5546 23.463C30.6875 23.4132 30.7644 23.416 30.744 23.416V29.416C31.3636 29.416 32.0165 29.3228 32.6614 29.081L30.5546 23.463ZM30.744 23.416H30.36V29.416H30.744V23.416ZM27.36 26.416V44.272H33.36V26.416H27.36ZM27.36 44.272C27.36 44.3283 27.3555 44.3382 27.3604 44.3113C27.3654 44.2835 27.3816 44.2107 27.4266 44.1096L32.9094 46.5464C33.2531 45.7731 33.36 44.9799 33.36 44.272H27.36ZM27.322 44.3793C27.3538 44.2836 27.4044 44.1731 27.4799 44.0599C27.5556 43.9462 27.6439 43.8488 27.7356 43.7702L31.6404 48.3258C32.2896 47.7693 32.7513 47.0648 33.014 46.2767L27.322 44.3793ZM27.7709 43.7404L21.5309 48.9244L25.3651 53.5396L31.6051 48.3556L27.7709 43.7404ZM21.3267 49.1107C21.521 48.9164 21.6943 48.8133 21.7737 48.7706C21.8571 48.7257 21.8994 48.7139 21.8753 48.722L23.7727 54.4141C24.2408 54.258 24.9607 53.962 25.5693 53.3533L21.3267 49.1107ZM21.7706 48.759C21.9035 48.7092 21.9804 48.712 21.96 48.712V54.712C22.5796 54.712 23.2325 54.6188 23.8774 54.377L21.7706 48.759ZM28.152 49C29.0462 49 30.4714 48.8353 31.5693 47.7373L27.3267 43.4947C27.6285 43.1929 27.9318 43.0714 28.0797 43.0276C28.2178 42.9867 28.2611 43 28.152 43V49ZM31.5693 47.7373C32.6451 46.6615 32.88 45.2874 32.88 44.272H26.88C26.88 44.4726 26.8269 43.9945 27.3267 43.4947L31.5693 47.7373ZM32.88 44.272V20.704H26.88V44.272H32.88ZM29.88 23.704H36.936V17.704H29.88V23.704ZM36.936 23.704C37.8302 23.704 39.2554 23.5393 40.3533 22.4413L36.1107 18.1987C36.4125 17.8969 36.7158 17.7754 36.8637 17.7316C37.0018 17.6907 37.0451 17.704 36.936 17.704V23.704ZM40.3533 22.4413C41.4291 21.3655 41.664 19.9914 41.664 18.976H35.664C35.664 19.1765 35.6109 18.6985 36.1107 18.1987L40.3533 22.4413ZM41.664 18.976V13.168H35.664V18.976H41.664ZM41.664 13.168C41.664 12.1914 41.4451 10.7142 40.2251 9.62977L36.2389 14.1142C35.9242 13.8345 35.7737 13.528 35.71 13.3367C35.6523 13.1637 35.664 13.0853 35.664 13.168H41.664ZM40.4742 9.87891C39.3898 8.6589 37.9126 8.44 36.936 8.44V14.44C37.0187 14.44 36.9403 14.4517 36.7673 14.394C36.576 14.3303 36.2695 14.1798 35.9898 13.8651L40.4742 9.87891ZM36.936 8.44H11.592V14.44H36.936V8.44ZM11.592 8.44C10.5766 8.44 9.20248 8.67488 8.12668 9.75068L12.3693 13.9933C11.8695 14.4931 11.3914 14.44 11.592 14.44V8.44ZM8.12668 9.75068C7.02872 10.8486 6.864 12.2738 6.864 13.168H12.864C12.864 13.0589 12.8773 13.1022 12.8364 13.2403C12.7926 13.3882 12.6711 13.6915 12.3693 13.9933L8.12668 9.75068ZM6.864 13.168V18.976H12.864V13.168H6.864ZM6.864 18.976C6.864 19.9147 7.04722 21.2347 8.00577 22.3131L12.4902 18.3269C12.7174 18.5825 12.8104 18.8241 12.8446 18.9438C12.8763 19.055 12.864 19.081 12.864 18.976H6.864ZM8.25491 22.5622C9.33328 23.5208 10.6533 23.704 11.592 23.704V17.704C11.487 17.704 11.513 17.6917 11.6242 17.7234C11.7439 17.7576 11.9855 17.8506 12.2411 18.0778L8.25491 22.5622ZM11.592 23.704H18.648V17.704H11.592V23.704ZM15.648 20.704V44.272H21.648V20.704H15.648ZM15.648 44.272C15.648 45.2107 15.8312 46.5307 16.7898 47.6091L21.2742 43.6229C21.5014 43.8785 21.5944 44.1201 21.6286 44.2398C21.6603 44.351 21.648 44.377 21.648 44.272H15.648ZM17.0389 47.8582C18.1173 48.8168 19.4373 49 20.376 49V43C20.271 43 20.297 42.9877 20.4082 43.0194C20.5279 43.0536 20.7695 43.1466 21.0251 43.3738L17.0389 47.8582ZM20.376 49H28.152V43H20.376V49ZM27.024 41.68V16.24H21.024V41.68H27.024ZM24.024 13.24H14.184V19.24H24.024V13.24ZM17.184 16.24V15.76H11.184V16.24H17.184ZM14.184 18.76H34.344V12.76H14.184V18.76ZM31.344 15.76V16.24H37.344V15.76H31.344ZM34.344 13.24H24.504V19.24H34.344V13.24ZM21.504 16.24V41.68H27.504V16.24H21.504ZM24.504 38.68H24.024V44.68H24.504V38.68ZM41.2013 51.184L43.3226 49.0627L41.2013 51.184ZM40.8172 42.736L38.0758 41.5176L38.017 41.6499L37.9712 41.7873L40.8172 42.736ZM41.3452 42.016L39.4117 39.7222L39.4022 39.7302L39.3929 39.7382L41.3452 42.016ZM47.1533 37.12L49.0868 39.4137L50.1533 38.5148V37.12H47.1533ZM47.1533 26.416H50.1533V23.416H47.1533V26.416ZM41.2013 25.888L43.3226 23.7667L43.3226 23.7667L41.2013 25.888ZM40.8172 17.344L38.0758 16.1256L38.017 16.2579L37.9712 16.3953L40.8172 17.344ZM41.3452 16.624L39.409 14.3325L39.4009 14.3393L39.3929 14.3462L41.3452 16.624ZM47.5373 11.392L45.6632 9.0494L45.6317 9.07453L45.601 9.10049L47.5373 11.392ZM48.1613 11.104L48.8889 14.0144L49.0006 13.9865L49.1099 13.9501L48.1613 11.104ZM71.5373 20.032L68.7958 18.8136L68.737 18.9459L68.6912 19.0833L71.5373 20.032ZM71.0573 20.752L72.9873 23.0487L72.9985 23.0393L73.0096 23.0298L71.0573 20.752ZM65.3453 25.552L63.4152 23.2553L62.3453 24.1544V25.552H65.3453ZM65.3453 36.352H62.3453V39.352H65.3453V36.352ZM71.2012 36.88L69.0799 39.0013L69.0799 39.0013L71.2012 36.88ZM71.5373 45.328L68.7958 44.1096L68.737 44.2419L68.6912 44.3793L71.5373 45.328ZM71.0573 46.048L72.9743 48.3556L72.9921 48.3408L73.0096 48.3258L71.0573 46.048ZM64.8172 51.232L62.9002 48.9244L62.7938 49.0128L62.6959 49.1107L64.8172 51.232ZM64.1933 51.568L63.2446 48.722L63.1919 48.7395L63.1399 48.759L64.1933 51.568ZM70.8173 45.616L68.6959 43.4947L68.6959 43.4947L70.8173 45.616ZM70.8173 37.264L68.575 39.2571L68.6923 39.389L68.8242 39.5062L70.8173 37.264ZM64.8653 36.832H61.8653V39.832H64.8653V36.832ZM64.8653 20.704V17.704H61.8653V20.704H64.8653ZM70.8173 20.32L68.6959 18.1987L68.6959 18.1987L70.8173 20.32ZM70.8173 11.872L68.575 13.8651L68.6923 13.997L68.8242 14.1142L70.8173 11.872ZM47.7293 11.872L45.6079 9.75068L47.7293 11.872ZM47.7293 20.32L45.487 22.3131L45.6043 22.445L45.7362 22.5622L47.7293 20.32ZM53.8252 20.704H56.8252V17.704H53.8252V20.704ZM53.8252 36.832V39.832H56.8252V36.832H53.8252ZM47.7293 37.264L49.8506 39.3853H49.8506L47.7293 37.264ZM47.7293 45.616L45.487 47.6091L45.6043 47.741L45.7362 47.8582L47.7293 45.616ZM66.9293 41.68V44.68H69.9293V41.68H66.9293ZM51.6653 41.68H48.6653V44.68H51.6653V41.68ZM51.6653 41.2V38.2H48.6653V41.2H51.6653ZM59.1053 41.2V44.2H62.1053V41.2H59.1053ZM59.1053 16.24H62.1053V13.24H59.1053V16.24ZM51.6653 16.24H48.6653V19.24H51.6653V16.24ZM51.6653 15.76V12.76H48.6653V15.76H51.6653ZM66.9293 15.76H69.9293V12.76H66.9293V15.76ZM66.9293 16.24V19.24H69.9293V16.24H66.9293ZM59.5853 16.24V13.24H56.5853V16.24H59.5853ZM59.5853 41.2H56.5853V44.2H59.5853V41.2ZM66.9293 41.2H69.9293V38.2H66.9293V41.2ZM63.3293 48.712H42.8812V54.712H63.3293V48.712ZM42.8812 48.712C42.7139 48.712 42.6998 48.6913 42.7847 48.718C42.8833 48.749 43.1006 48.8407 43.3226 49.0627L39.0799 53.3053C40.2355 54.4608 41.7395 54.712 42.8812 54.712V48.712ZM43.3226 49.0627C43.5445 49.2847 43.6363 49.502 43.6672 49.6005C43.6939 49.6854 43.6732 49.6714 43.6732 49.504H37.6732C37.6732 50.6457 37.9244 52.1498 39.0799 53.3053L43.3226 49.0627ZM43.6732 49.504V43.792H37.6732V49.504H43.6732ZM43.6732 43.792C43.6732 43.6973 43.6788 43.6426 43.6817 43.6213C43.6847 43.5997 43.6832 43.6251 43.6633 43.6847L37.9712 41.7873C37.7433 42.471 37.6732 43.1643 37.6732 43.792H43.6732ZM43.5587 43.9544C43.5182 44.0454 43.4349 44.1761 43.2976 44.2938L39.3929 39.7382C38.8076 40.2399 38.3723 40.8506 38.0758 41.5176L43.5587 43.9544ZM43.2788 44.3097L49.0868 39.4137L45.2197 34.8262L39.4117 39.7222L43.2788 44.3097ZM50.1533 37.12V26.416H44.1533V37.12H50.1533ZM47.1533 23.416H42.8812V29.416H47.1533V23.416ZM42.8812 23.416C42.7139 23.416 42.6998 23.3953 42.7847 23.422C42.8833 23.453 43.1006 23.5447 43.3226 23.7667L39.0799 28.0093C40.2355 29.1648 41.7395 29.416 42.8812 29.416V23.416ZM43.3226 23.7667C43.5445 23.9887 43.6363 24.206 43.6672 24.3045C43.6939 24.3894 43.6732 24.3754 43.6732 24.208H37.6732C37.6732 25.3497 37.9244 26.8538 39.0799 28.0093L43.3226 23.7667ZM43.6732 24.208V18.4H37.6732V24.208H43.6732ZM43.6732 18.4C43.6732 18.3053 43.6788 18.2506 43.6817 18.2293C43.6847 18.2077 43.6832 18.2331 43.6633 18.2927L37.9712 16.3953C37.7433 17.079 37.6732 17.7723 37.6732 18.4H43.6732ZM43.5587 18.5624C43.5182 18.6534 43.4349 18.7841 43.2976 18.9018L39.3929 14.3462C38.8076 14.8479 38.3723 15.4586 38.0758 16.1256L43.5587 18.5624ZM43.2815 18.9155L49.4735 13.6835L45.601 9.10049L39.409 14.3325L43.2815 18.9155ZM49.4113 13.7346C49.1522 13.9419 48.9355 14.0028 48.8889 14.0144L47.4336 8.19357C46.875 8.33324 46.2423 8.5861 45.6632 9.0494L49.4113 13.7346ZM49.1099 13.9501C49.095 13.955 49.0821 13.9579 49.0731 13.9593C49.0644 13.9607 49.0637 13.96 49.0732 13.96V7.96C48.4484 7.96 47.8227 8.05458 47.2126 8.25794L49.1099 13.9501ZM49.0732 13.96H69.5213V7.96H49.0732V13.96ZM69.5213 13.96C69.6886 13.96 69.7027 13.9807 69.6178 13.954C69.5192 13.923 69.3019 13.8313 69.0799 13.6093L73.3226 9.36668C72.167 8.21115 70.663 7.96 69.5213 7.96V13.96ZM69.0799 13.6093C68.858 13.3873 68.7662 13.17 68.7353 13.0715C68.7086 12.9866 68.7293 13.0006 68.7293 13.168H74.7293C74.7293 12.0263 74.4781 10.5222 73.3226 9.36668L69.0799 13.6093ZM68.7293 13.168V18.976H74.7293V13.168H68.7293ZM68.7293 18.976C68.7293 19.0323 68.7248 19.0422 68.7296 19.0153C68.7347 18.9875 68.7509 18.9147 68.7958 18.8136L74.2787 21.2504C74.6224 20.4771 74.7293 19.6839 74.7293 18.976H68.7293ZM68.6912 19.0833C68.7231 18.9876 68.7736 18.8771 68.8491 18.7639C68.9249 18.6502 69.0132 18.5528 69.1049 18.4742L73.0096 23.0298C73.6588 22.4733 74.1206 21.7688 74.3833 20.9807L68.6912 19.0833ZM69.1272 18.4553L63.4152 23.2553L67.2753 27.8487L72.9873 23.0487L69.1272 18.4553ZM62.3453 25.552V36.352H68.3453V25.552H62.3453ZM65.3453 39.352H69.5213V33.352H65.3453V39.352ZM69.5213 39.352C69.6886 39.352 69.7027 39.3727 69.6178 39.346C69.5192 39.315 69.3019 39.2233 69.0799 39.0013L73.3226 34.7587C72.1671 33.6032 70.663 33.352 69.5213 33.352V39.352ZM69.0799 39.0013C68.858 38.7793 68.7662 38.562 68.7353 38.4635C68.7086 38.3786 68.7293 38.3926 68.7293 38.56H74.7293C74.7293 37.4183 74.4781 35.9142 73.3226 34.7587L69.0799 39.0013ZM68.7293 38.56V44.272H74.7293V38.56H68.7293ZM68.7293 44.272C68.7293 44.3283 68.7248 44.3382 68.7296 44.3113C68.7347 44.2835 68.7509 44.2107 68.7958 44.1096L74.2787 46.5464C74.6224 45.7731 74.7293 44.9799 74.7293 44.272H68.7293ZM68.6912 44.3793C68.7231 44.2836 68.7736 44.1731 68.8491 44.0599C68.9249 43.9462 69.0132 43.8488 69.1049 43.7702L73.0096 48.3258C73.6588 47.7693 74.1206 47.0648 74.3833 46.2767L68.6912 44.3793ZM69.1402 43.7404L62.9002 48.9244L66.7343 53.5396L72.9743 48.3556L69.1402 43.7404ZM62.6959 49.1107C62.8902 48.9164 63.0636 48.8133 63.1429 48.7706C63.2263 48.7257 63.2687 48.7139 63.2446 48.722L65.1419 54.414C65.61 54.258 66.3299 53.962 66.9386 53.3533L62.6959 49.1107ZM63.1399 48.759C63.2728 48.7092 63.3497 48.712 63.3293 48.712V54.712C63.9488 54.712 64.6017 54.6188 65.2466 54.377L63.1399 48.759ZM49.0732 49H69.5213V43H49.0732V49ZM69.5213 49C70.4155 49 71.8406 48.8353 72.9386 47.7373L68.6959 43.4947C68.9977 43.1929 69.301 43.0714 69.449 43.0276C69.587 42.9867 69.6303 43 69.5213 43V49ZM72.9386 47.7373C74.0144 46.6615 74.2493 45.2874 74.2493 44.272H68.2493C68.2493 44.4726 68.1961 43.9945 68.6959 43.4947L72.9386 47.7373ZM74.2493 44.272V38.56H68.2493V44.272H74.2493ZM74.2493 38.56C74.2493 37.5834 74.0303 36.1062 72.8103 35.0218L68.8242 39.5062C68.5094 39.2265 68.359 38.92 68.2952 38.7287C68.2375 38.5557 68.2493 38.4773 68.2493 38.56H74.2493ZM73.0595 35.2709C71.975 34.0509 70.4979 33.832 69.5213 33.832V39.832C69.6039 39.832 69.5256 39.8437 69.3526 39.786C69.1612 39.7223 68.8548 39.5718 68.575 39.2571L73.0595 35.2709ZM69.5213 33.832H64.8653V39.832H69.5213V33.832ZM67.8652 36.832V20.704H61.8653V36.832H67.8652ZM64.8653 23.704H69.5213V17.704H64.8653V23.704ZM69.5213 23.704C70.4155 23.704 71.8406 23.5393 72.9386 22.4413L68.6959 18.1987C68.9977 17.8969 69.301 17.7754 69.449 17.7316C69.587 17.6907 69.6303 17.704 69.5213 17.704V23.704ZM72.9386 22.4413C74.0144 21.3655 74.2493 19.9914 74.2493 18.976H68.2493C68.2493 19.1765 68.1961 18.6985 68.6959 18.1987L72.9386 22.4413ZM74.2493 18.976V13.168H68.2493V18.976H74.2493ZM74.2493 13.168C74.2493 12.1914 74.0303 10.7142 72.8103 9.62977L68.8242 14.1142C68.5094 13.8345 68.359 13.528 68.2952 13.3367C68.2375 13.1637 68.2493 13.0853 68.2493 13.168H74.2493ZM73.0595 9.87891C71.975 8.6589 70.4979 8.44 69.5213 8.44V14.44C69.6039 14.44 69.5256 14.4517 69.3526 14.394C69.1612 14.3303 68.8548 14.1798 68.575 13.8651L73.0595 9.87891ZM69.5213 8.44H49.0732V14.44H69.5213V8.44ZM49.0732 8.44C48.0578 8.44 46.6837 8.67488 45.6079 9.75068L49.8506 13.9933C49.3508 14.4931 48.8727 14.44 49.0732 14.44V8.44ZM45.6079 9.75068C44.51 10.8486 44.3452 12.2738 44.3452 13.168H50.3452C50.3452 13.0589 50.3585 13.1022 50.3176 13.2403C50.2738 13.3882 50.1524 13.6915 49.8506 13.9933L45.6079 9.75068ZM44.3452 13.168V18.976H50.3452V13.168H44.3452ZM44.3452 18.976C44.3452 19.9147 44.5285 21.2347 45.487 22.3131L49.9715 18.3269C50.1986 18.5825 50.2916 18.8241 50.3258 18.9438C50.3576 19.055 50.3452 19.081 50.3452 18.976H44.3452ZM45.7362 22.5622C46.8145 23.5208 48.1346 23.704 49.0732 23.704V17.704C48.9682 17.704 48.9942 17.6917 49.1054 17.7234C49.2252 17.7576 49.4668 17.8506 49.7223 18.0778L45.7362 22.5622ZM49.0732 23.704H53.8252V17.704H49.0732V23.704ZM50.8252 20.704V36.832H56.8252V20.704H50.8252ZM53.8252 33.832H49.0732V39.832H53.8252V33.832ZM49.0732 33.832C48.0578 33.832 46.6837 34.0669 45.6079 35.1427L49.8506 39.3853C49.3508 39.8851 48.8727 39.832 49.0732 39.832V33.832ZM45.6079 35.1427C44.51 36.2406 44.3452 37.6658 44.3452 38.56H50.3452C50.3452 38.4509 50.3585 38.4942 50.3176 38.6323C50.2738 38.7802 50.1524 39.0835 49.8506 39.3853L45.6079 35.1427ZM44.3452 38.56V44.272H50.3452V38.56H44.3452ZM44.3452 44.272C44.3452 45.2107 44.5285 46.5307 45.487 47.6091L49.9715 43.6229C50.1986 43.8785 50.2916 44.1201 50.3258 44.2398C50.3576 44.351 50.3452 44.377 50.3452 44.272H44.3452ZM45.7362 47.8582C46.8145 48.8168 48.1346 49 49.0732 49V43C48.9682 43 48.9942 42.9877 49.1054 43.0194C49.2252 43.0536 49.4668 43.1466 49.7223 43.3738L45.7362 47.8582ZM66.9293 38.68H51.6653V44.68H66.9293V38.68ZM54.6653 41.68V41.2H48.6653V41.68H54.6653ZM51.6653 44.2H59.1053V38.2H51.6653V44.2ZM62.1053 41.2V16.24H56.1053V41.2H62.1053ZM59.1053 13.24H51.6653V19.24H59.1053V13.24ZM54.6653 16.24V15.76H48.6653V16.24H54.6653ZM51.6653 18.76H66.9293V12.76H51.6653V18.76ZM63.9293 15.76V16.24H69.9293V15.76H63.9293ZM66.9293 13.24H59.5853V19.24H66.9293V13.24ZM56.5853 16.24V41.2H62.5853V16.24H56.5853ZM59.5853 44.2H66.9293V38.2H59.5853V44.2ZM63.9293 41.2V41.68H69.9293V41.2H63.9293ZM100.101 27.136L102.222 29.2573V29.2573L100.101 27.136ZM101.301 25.504L98.7925 23.8586L98.7901 23.8623L101.301 25.504ZM107.157 16.576L109.666 18.2214L109.699 18.1711L109.729 18.1195L107.157 16.576ZM107.781 15.952L108.963 18.7094L109.044 18.6747L109.123 18.6353L107.781 15.952ZM110.325 16.144L107.925 17.944L108.053 18.1146L108.204 18.2653L110.325 16.144ZM110.661 41.68V44.68H113.661V41.68H110.661ZM110.181 41.68H107.181V44.68H110.181V41.68ZM109.989 16.576L107.232 17.7577L107.34 18.0109L107.493 18.2401L109.989 16.576ZM107.541 16.912L110.041 18.5698L110.079 18.5135L110.113 18.4555L107.541 16.912ZM101.685 25.744L104.181 27.4081L104.185 27.4018L101.685 25.744ZM100.341 27.52L98.2197 25.3987L98.1639 25.4545L98.1111 25.5131L100.341 27.52ZM97.317 27.52L95.0871 29.5269L95.1399 29.5855L95.1957 29.6413L97.317 27.52ZM96.021 25.744L93.5207 27.4018L93.5248 27.4081L96.021 25.744ZM90.165 16.912L87.5925 18.4555L87.6273 18.5135L87.6647 18.5698L90.165 16.912ZM89.589 16.336L88.4748 19.1214L88.5567 19.1542L88.6403 19.1821L89.589 16.336ZM87.669 16.576L90.3523 17.9176L90.3917 17.8388L90.4264 17.7578L87.669 16.576ZM87.525 41.68V44.68H90.525V41.68H87.525ZM87.045 41.68H84.045V44.68H87.045V41.68ZM87.333 16.144L85.0753 14.1685L85.0652 14.18L85.0552 14.1916L87.333 16.144ZM89.877 15.952L88.5354 18.6353L88.6762 18.7057L88.8236 18.761L89.877 15.952ZM90.549 16.576L87.9765 18.1195L88.0075 18.1711L88.0405 18.2214L90.549 16.576ZM96.405 25.504L98.9159 23.8622L98.9135 23.8586L96.405 25.504ZM97.605 27.136L99.7263 25.0147V25.0147L97.605 27.136ZM92.133 45.616L94.2543 47.7373V47.7373L92.133 45.616ZM92.565 27.376L95.2033 25.9479L89.565 27.376H92.565ZM95.397 32.608L98.0484 31.2043L98.0419 31.1921L98.0353 31.1799L95.397 32.608ZM96.405 33.808L94.7409 36.3041L94.8584 36.3825L94.9827 36.4494L96.405 33.808ZM101.349 33.808L102.861 36.3993L102.891 36.3815L102.921 36.363L101.349 33.808ZM102.405 32.608L99.7667 31.1799L99.7601 31.1921L99.7536 31.2043L102.405 32.608ZM105.237 27.376H108.237L102.599 25.9479L105.237 27.376ZM105.621 45.616L103.379 47.6091L103.496 47.741L103.628 47.8582L105.621 45.616ZM115.653 45.616L117.774 47.7373V47.7373L115.653 45.616ZM115.653 11.872L113.411 13.8651L113.528 13.997L113.66 14.1142L115.653 11.872ZM105.285 11.776L103.674 9.24501L103.619 9.28045L103.565 9.31831L105.285 11.776ZM104.373 12.88L101.758 11.4092L101.749 11.4257L101.74 11.4423L104.373 12.88ZM100.101 20.704L102.723 22.1609L102.729 22.1513L102.734 22.1417L100.101 20.704ZM99.669 21.328L97.5477 19.2067L97.3969 19.3574L97.269 19.528L99.669 21.328ZM98.325 21.328L95.925 23.128L96.0529 23.2986L96.2037 23.4493L98.325 21.328ZM97.941 20.704L95.3147 22.1541L95.3185 22.1609L97.941 20.704ZM93.621 12.88L96.2473 11.4299L96.2415 11.4195L96.2357 11.4092L93.621 12.88ZM92.661 11.776L90.9406 14.2337L90.9947 14.2715L91.0504 14.307L92.661 11.776ZM82.341 11.872L80.2197 9.75068L80.2197 9.75068L82.341 11.872ZM82.341 45.616L80.0988 47.6091L80.216 47.741L80.3479 47.8582L82.341 45.616ZM92.373 46.048L94.2901 48.3556L94.3078 48.3408L94.3254 48.3258L92.373 46.048ZM86.133 51.232L84.2159 48.9244L84.1095 49.0128L84.0117 49.1107L86.133 51.232ZM85.509 51.568L84.5603 48.722L84.5076 48.7395L84.4556 48.759L85.509 51.568ZM75.429 17.344L72.6876 16.1256L72.6287 16.2579L72.5829 16.3953L75.429 17.344ZM75.957 16.624L74.0208 14.3325L74.0127 14.3393L74.0046 14.3462L75.957 16.624ZM82.149 11.392L80.2749 9.0494L80.2435 9.07453L80.2128 9.10049L82.149 11.392ZM82.773 11.104L83.5006 14.0144L83.6124 13.9865L83.7217 13.9501L82.773 11.104ZM92.901 11.344L91.2369 13.8402L91.2823 13.8704L91.3287 13.899L92.901 11.344ZM94.053 12.64L96.6883 11.2064L96.6693 11.1714L96.6493 11.1369L94.053 12.64ZM97.317 18.64L94.6817 20.0736L97.2731 24.8372L99.9317 20.1108L97.317 18.64ZM97.749 17.872L95.1443 16.3836L95.1392 16.3924L95.1343 16.4012L97.749 17.872ZM98.133 17.248L95.6918 15.5043L95.6637 15.5436L95.6369 15.5839L98.133 17.248ZM98.613 16.72L100.487 19.0626L100.513 19.0417L100.539 19.0203L98.613 16.72ZM104.805 11.536L103.005 9.13599L102.941 9.18417L102.879 9.23572L104.805 11.536ZM105.573 11.104L104.624 8.25794L104.572 8.27551L104.52 8.29501L105.573 11.104ZM116.037 11.488L118.158 9.36668L118.158 9.36667L116.037 11.488ZM116.373 45.328L113.632 44.1096L113.573 44.2419L113.527 44.3793L116.373 45.328ZM115.893 46.048L117.81 48.3556L117.828 48.3408L117.845 48.3258L115.893 46.048ZM109.653 51.232L107.736 48.9244L107.63 49.0128L107.532 49.1107L109.653 51.232ZM109.029 51.568L108.08 48.722L108.028 48.7395L107.976 48.759L109.029 51.568ZM99.045 51.184L96.8252 53.202L96.8732 53.2548L96.9237 53.3053L99.045 51.184ZM98.565 36.832H101.565V30.4408L96.6483 34.5241L98.565 36.832ZM95.733 39.184L93.8163 36.8761L93.7866 36.9008L93.7575 36.9263L95.733 39.184ZM94.821 39.712L95.683 42.5855L95.7654 42.5608L95.8462 42.5314L94.821 39.712ZM93.045 39.856V36.856H90.045V39.856H93.045ZM92.853 45.328L90.1116 44.1096L90.0527 44.2419L90.007 44.3793L92.853 45.328ZM98.853 30.52C99.7711 30.52 101.149 30.3311 102.222 29.2573L97.9797 25.0147C98.2611 24.7333 98.549 24.6077 98.7147 24.5567C98.8678 24.5096 98.9325 24.52 98.853 24.52V30.52ZM102.222 29.2573C102.729 28.7502 103.286 27.9506 103.812 27.1457L98.7901 23.8623C98.5356 24.2515 98.3322 24.5464 98.176 24.7588C98.0032 24.994 97.9455 25.0489 97.9797 25.0147L102.222 29.2573ZM103.81 27.1494L109.666 18.2214L104.648 14.9306L98.7925 23.8586L103.81 27.1494ZM109.729 18.1195C109.729 18.1207 109.718 18.1386 109.695 18.1686C109.673 18.1985 109.634 18.2452 109.578 18.3013C109.467 18.4127 109.266 18.5795 108.963 18.7094L106.599 13.1946C105.561 13.6394 104.939 14.4414 104.585 15.0325L109.729 18.1195ZM109.123 18.6353C109.012 18.6907 108.811 18.76 108.549 18.76V12.76C107.775 12.76 107.062 12.9573 106.439 13.2687L109.123 18.6353ZM108.549 18.76H109.365V12.76H108.549V18.76ZM109.365 18.76C109.316 18.76 109.11 18.7547 108.827 18.6414C108.517 18.5174 108.185 18.2901 107.925 17.944L112.725 14.344C111.762 13.0602 110.355 12.76 109.365 12.76V18.76ZM108.204 18.2653C107.9 17.962 107.764 17.6486 107.707 17.4615C107.654 17.2864 107.661 17.1965 107.661 17.248H113.661C113.661 16.4102 113.495 15.0716 112.446 14.0227L108.204 18.2653ZM107.661 17.248V41.68H113.661V17.248H107.661ZM110.661 38.68H110.181V44.68H110.661V38.68ZM113.181 41.68V17.248H107.181V41.68H113.181ZM113.181 17.248C113.181 16.467 112.977 15.6499 112.485 14.9119L107.493 18.2401C107.257 17.8861 107.181 17.517 107.181 17.248H113.181ZM112.746 15.3942C112.44 14.6801 111.905 14.071 111.183 13.6826C110.515 13.3226 109.853 13.24 109.365 13.24V19.24C109.197 19.24 108.799 19.2134 108.339 18.9654C107.825 18.689 107.442 18.2479 107.232 17.7577L112.746 15.3942ZM109.365 13.24H108.645V19.24H109.365V13.24ZM108.645 13.24C108.148 13.24 107.558 13.3093 106.955 13.5506L109.183 19.1214C108.9 19.2347 108.694 19.24 108.645 19.24V13.24ZM106.955 13.5506C106.298 13.8133 105.856 14.2275 105.606 14.5008C105.337 14.7941 105.128 15.1031 104.969 15.3685L110.113 18.4555C110.146 18.4009 110.121 18.4539 110.028 18.5552C109.954 18.6365 109.68 18.9227 109.183 19.1214L106.955 13.5506ZM105.041 15.2542L99.1847 24.0862L104.185 27.4018L110.041 18.5698L105.041 15.2542ZM99.1889 24.0799C98.6187 24.9351 98.3112 25.3072 98.2197 25.3987L102.462 29.6413C103.011 29.0928 103.599 28.2809 104.181 27.4081L99.1889 24.0799ZM98.1111 25.5131C98.3886 25.2047 98.6824 25.0731 98.832 25.0249C98.9653 24.9819 98.9944 25 98.853 25V31C99.8839 31 101.439 30.7847 102.571 29.5269L98.1111 25.5131ZM98.853 25C98.7154 25 98.7279 24.9828 98.8358 25.0166C98.9571 25.0545 99.1973 25.1576 99.4383 25.3987L95.1957 29.6413C96.3231 30.7687 97.7838 31 98.853 31V25ZM99.5469 25.5131C99.4196 25.3717 99.0933 24.9442 98.5172 24.0799L93.5248 27.4081C94.1007 28.2718 94.6384 29.0283 95.0871 29.5269L99.5469 25.5131ZM98.5213 24.0862L92.6653 15.2542L87.6647 18.5698L93.5207 27.4018L98.5213 24.0862ZM92.7375 15.3685C92.4519 14.8925 91.7853 13.9058 90.5377 13.4899L88.6403 19.1821C88.1701 19.0253 87.8817 18.7753 87.7557 18.6493C87.6273 18.5209 87.5793 18.4335 87.5925 18.4555L92.7375 15.3685ZM90.7032 13.5506C90.1001 13.3093 89.5097 13.24 89.013 13.24V19.24C88.9643 19.24 88.7579 19.2347 88.4748 19.1214L90.7032 13.5506ZM89.013 13.24H88.293V19.24H89.013V13.24ZM88.293 13.24C87.8048 13.24 87.1433 13.3226 86.4747 13.6826C85.7533 14.071 85.2177 14.68 84.9116 15.3942L90.4264 17.7578C90.2163 18.2479 89.8327 18.689 89.3193 18.9654C88.8587 19.2134 88.4612 19.24 88.293 19.24V13.24ZM84.9857 15.2344C84.645 15.9158 84.525 16.6152 84.525 17.248H90.525C90.525 17.3688 90.501 17.6202 90.3523 17.9176L84.9857 15.2344ZM84.525 17.248V41.68H90.525V17.248H84.525ZM87.525 38.68H87.045V44.68H87.525V38.68ZM90.045 41.68V17.248H84.045V41.68H90.045ZM90.045 17.248C90.045 17.1656 90.0542 17.2136 90.0199 17.3453C89.985 17.4789 89.884 17.7776 89.6108 18.0964L85.0552 14.1916C84.1593 15.2369 84.045 16.4986 84.045 17.248H90.045ZM89.5907 18.1195C89.3866 18.3528 89.1289 18.5319 88.8552 18.6414C88.5957 18.7452 88.3896 18.76 88.293 18.76V12.76C87.2216 12.76 85.9938 13.1187 85.0753 14.1685L89.5907 18.1195ZM88.293 18.76H89.109V12.76H88.293V18.76ZM89.109 18.76C88.8467 18.76 88.6462 18.6907 88.5354 18.6353L91.2186 13.2687C90.5958 12.9573 89.8833 12.76 89.109 12.76V18.76ZM88.8236 18.761C88.2479 18.5451 88.0071 18.1704 87.9765 18.1195L93.1215 15.0325C92.7069 14.3416 92.0181 13.5509 90.9304 13.143L88.8236 18.761ZM88.0405 18.2214L93.8965 27.1494L98.9135 23.8586L93.0575 14.9306L88.0405 18.2214ZM93.8941 27.1457C94.4203 27.9506 94.9765 28.7502 95.4837 29.2573L99.7263 25.0147C99.7605 25.0489 99.7028 24.994 99.53 24.7588C99.3738 24.5464 99.1704 24.2515 98.9159 23.8622L93.8941 27.1457ZM95.4837 29.2573C96.5575 30.3311 97.9349 30.52 98.853 30.52V24.52C98.7735 24.52 98.8382 24.5096 98.9913 24.5567C99.157 24.6077 99.4449 24.7333 99.7263 25.0147L95.4837 29.2573ZM90.837 49C91.7312 49 93.1564 48.8353 94.2543 47.7373L90.0117 43.4947C90.3135 43.1929 90.6168 43.0714 90.7647 43.0276C90.9028 42.9867 90.9461 43 90.837 43V49ZM94.2543 47.7373C95.3301 46.6615 95.565 45.2874 95.565 44.272H89.565C89.565 44.4726 89.5119 43.9945 90.0117 43.4947L94.2543 47.7373ZM95.565 44.272V27.376H89.565V44.272H95.565ZM89.9267 28.8041L92.7587 34.0361L98.0353 31.1799L95.2033 25.9479L89.9267 28.8041ZM92.7456 34.0117C93.192 34.8548 93.8268 35.6948 94.7409 36.3041L98.0691 31.3119C98.1428 31.3609 98.1708 31.3967 98.1621 31.3864C98.152 31.3744 98.1102 31.3212 98.0484 31.2043L92.7456 34.0117ZM94.9827 36.4494C95.9434 36.9667 96.9751 37.144 97.941 37.144V31.144C97.8191 31.144 97.7572 31.1326 97.7421 31.1293C97.7293 31.1265 97.7645 31.1327 97.8273 31.1666L94.9827 36.4494ZM97.941 37.144H99.861V31.144H97.941V37.144ZM99.861 37.144C100.813 37.144 101.879 36.9717 102.861 36.3993L99.8374 31.2167C99.9452 31.1538 100.019 31.1357 100.028 31.1337C100.032 31.1327 100.022 31.1354 99.9932 31.1383C99.9648 31.1412 99.9214 31.144 99.861 31.144V37.144ZM102.921 36.363C103.898 35.7621 104.582 34.9073 105.056 34.0117L99.7536 31.2043C99.703 31.2999 99.6718 31.3353 99.6729 31.3341C99.6737 31.3331 99.6826 31.3232 99.7005 31.3079C99.7187 31.2924 99.744 31.2731 99.7767 31.253L102.921 36.363ZM105.043 34.0361L107.875 28.8041L102.599 25.9479L99.7667 31.1799L105.043 34.0361ZM102.237 27.376V44.272H108.237V27.376H102.237ZM102.237 44.272C102.237 45.2107 102.42 46.5307 103.379 47.6091L107.863 43.6229C108.09 43.8785 108.183 44.1201 108.218 44.2398C108.249 44.351 108.237 44.377 108.237 44.272H102.237ZM103.628 47.8582C104.706 48.8168 106.026 49 106.965 49V43C106.86 43 106.886 42.9877 106.997 43.0194C107.117 43.0536 107.359 43.1466 107.614 43.3738L103.628 47.8582ZM106.965 49H114.357V43H106.965V49ZM114.357 49C115.251 49 116.676 48.8353 117.774 47.7373L113.532 43.4947C113.833 43.1929 114.137 43.0714 114.285 43.0276C114.423 42.9867 114.466 43 114.357 43V49ZM117.774 47.7373C118.85 46.6615 119.085 45.2874 119.085 44.272H113.085C113.085 44.4726 113.032 43.9945 113.532 43.4947L117.774 47.7373ZM119.085 44.272V13.168H113.085V44.272H119.085ZM119.085 13.168C119.085 12.1914 118.866 10.7142 117.646 9.62977L113.66 14.1142C113.345 13.8345 113.195 13.528 113.131 13.3367C113.073 13.1637 113.085 13.0853 113.085 13.168H119.085ZM117.895 9.87891C116.811 8.6589 115.334 8.44 114.357 8.44V14.44C114.44 14.44 114.361 14.4517 114.188 14.394C113.997 14.3303 113.691 14.1798 113.411 13.8651L117.895 9.87891ZM114.357 8.44H106.581V14.44H114.357V8.44ZM106.581 8.44C105.628 8.44 104.607 8.65168 103.674 9.24501L106.896 14.307C106.789 14.3748 106.692 14.4108 106.626 14.428C106.563 14.4443 106.543 14.44 106.581 14.44V8.44ZM103.565 9.31831C102.738 9.89695 102.165 10.6855 101.758 11.4092L106.988 14.3508C107.025 14.285 107.056 14.2347 107.081 14.1975C107.106 14.1603 107.123 14.1391 107.13 14.1306C107.146 14.1105 107.109 14.161 107.005 14.2337L103.565 9.31831ZM101.74 11.4423L97.4679 19.2663L102.734 22.1417L107.006 14.3177L101.74 11.4423ZM97.4785 19.2471C97.4566 19.2865 97.4392 19.3162 97.4262 19.3373C97.4198 19.3477 97.4149 19.3555 97.4114 19.3608C97.4079 19.3662 97.4063 19.3686 97.4064 19.3684C97.4066 19.3682 97.4089 19.3647 97.4136 19.3585C97.4183 19.3522 97.4258 19.3423 97.4363 19.3294C97.4561 19.305 97.4929 19.2614 97.5477 19.2067L101.79 23.4493C102.215 23.0249 102.52 22.528 102.723 22.1609L97.4785 19.2471ZM97.269 19.528C97.5232 19.1891 97.8674 18.9097 98.2706 18.7306C98.6564 18.5591 99.0029 18.52 99.237 18.52V24.52C100.161 24.52 101.29 24.1665 102.069 23.128L97.269 19.528ZM99.237 18.52H98.805V24.52H99.237V18.52ZM98.805 18.52C99.0471 18.52 99.3425 18.5615 99.6552 18.6866C99.9713 18.813 100.238 18.9981 100.446 19.2067L96.2037 23.4493C96.9311 24.1767 97.8709 24.52 98.805 24.52V18.52ZM100.725 19.528C100.753 19.565 100.75 19.5655 100.712 19.5037C100.678 19.4481 100.629 19.3646 100.563 19.2471L95.3185 22.1609C95.4908 22.471 95.7001 22.8281 95.925 23.128L100.725 19.528ZM100.567 19.2539L96.2473 11.4299L90.9947 14.3301L95.3147 22.1541L100.567 19.2539ZM96.2357 11.4092C95.7986 10.6321 95.1758 9.8204 94.2716 9.24502L91.0504 14.307C90.9457 14.2404 90.8996 14.1867 90.9012 14.1885C90.9016 14.1891 90.912 14.2011 90.9308 14.2283C90.9496 14.2555 90.9751 14.2954 91.0063 14.3508L96.2357 11.4092ZM94.3814 9.3183C93.4214 8.6463 92.3509 8.44 91.413 8.44V14.44C91.4991 14.44 91.2606 14.4577 90.9406 14.2337L94.3814 9.3183ZM91.413 8.44H83.685V14.44H91.413V8.44ZM83.685 8.44C82.6696 8.44 81.2955 8.67488 80.2197 9.75068L84.4623 13.9933C83.9625 14.4931 83.4845 14.44 83.685 14.44V8.44ZM80.2197 9.75068C79.1217 10.8486 78.957 12.2738 78.957 13.168H84.957C84.957 13.0589 84.9703 13.1022 84.9294 13.2403C84.8856 13.3882 84.7641 13.6915 84.4623 13.9933L80.2197 9.75068ZM78.957 13.168V44.272H84.957V13.168H78.957ZM78.957 44.272C78.957 45.2107 79.1402 46.5307 80.0988 47.6091L84.5832 43.6229C84.8104 43.8785 84.9034 44.1201 84.9376 44.2398C84.9693 44.351 84.957 44.377 84.957 44.272H78.957ZM80.3479 47.8582C81.4263 48.8168 82.7463 49 83.685 49V43C83.58 43 83.6059 42.9877 83.7172 43.0194C83.8369 43.0536 84.0785 43.1466 84.3341 43.3738L80.3479 47.8582ZM83.685 49H90.837V43H83.685V49ZM90.4559 43.7404L84.2159 48.9244L88.0501 53.5396L94.2901 48.3556L90.4559 43.7404ZM84.0117 49.1107C84.206 48.9164 84.3793 48.8133 84.4587 48.7706C84.5421 48.7257 84.5844 48.7139 84.5603 48.722L86.4577 54.4141C86.9258 54.258 87.6457 53.962 88.2543 53.3533L84.0117 49.1107ZM84.4556 48.759C84.5885 48.7092 84.6654 48.712 84.645 48.712V54.712C85.2646 54.712 85.9175 54.6188 86.5624 54.377L84.4556 48.759ZM84.645 48.712H77.493V54.712H84.645V48.712ZM77.493 48.712C77.3256 48.712 77.3116 48.6913 77.3965 48.718C77.495 48.749 77.7123 48.8407 77.9343 49.0627L73.6917 53.3053C74.8472 54.4608 76.3513 54.712 77.493 54.712V48.712ZM77.9343 49.0627C78.1563 49.2847 78.248 49.502 78.279 49.6005C78.3057 49.6854 78.285 49.6714 78.285 49.504H72.285C72.285 50.6457 72.5362 52.1498 73.6917 53.3053L77.9343 49.0627ZM78.285 49.504V18.4H72.285V49.504H78.285ZM78.285 18.4C78.285 18.3053 78.2906 18.2506 78.2935 18.2293C78.2964 18.2077 78.2949 18.2331 78.275 18.2927L72.5829 16.3953C72.355 17.079 72.285 17.7723 72.285 18.4H78.285ZM78.1704 18.5624C78.13 18.6534 78.0466 18.7841 77.9094 18.9018L74.0046 14.3462C73.4194 14.8479 72.984 15.4586 72.6876 16.1256L78.1704 18.5624ZM77.8932 18.9155L84.0852 13.6835L80.2128 9.10049L74.0208 14.3325L77.8932 18.9155ZM84.0231 13.7346C83.764 13.9419 83.5473 14.0028 83.5006 14.0144L82.0454 8.19357C81.4867 8.33324 80.854 8.5861 80.2749 9.0494L84.0231 13.7346ZM83.7217 13.9501C83.7068 13.955 83.6938 13.9579 83.6849 13.9593C83.6761 13.9607 83.6755 13.96 83.685 13.96V7.96C83.0601 7.96 82.4344 8.05458 81.8243 8.25794L83.7217 13.9501ZM83.685 13.96H91.413V7.96H83.685V13.96ZM91.413 13.96C91.5097 13.96 91.5288 13.9705 91.4914 13.9608C91.4494 13.95 91.3537 13.918 91.2369 13.8402L94.5651 8.84784C93.5541 8.17383 92.4282 7.96 91.413 7.96V13.96ZM91.3287 13.899C91.2464 13.8483 91.2268 13.8172 91.2588 13.8531C91.2915 13.8899 91.3611 13.978 91.4567 14.1431L96.6493 11.1369C96.1504 10.2752 95.4574 9.3946 94.4733 8.78902L91.3287 13.899ZM91.4177 14.0736L94.6817 20.0736L99.9523 17.2064L96.6883 11.2064L91.4177 14.0736ZM99.9317 20.1108L100.364 19.3428L95.1343 16.4012L94.7023 17.1692L99.9317 20.1108ZM100.354 19.3604C100.451 19.1893 100.543 19.0406 100.629 18.9121L95.6369 15.5839C95.4665 15.8394 95.3025 16.1066 95.1443 16.3836L100.354 19.3604ZM100.574 18.9917C100.596 18.9609 100.603 18.9547 100.593 18.966C100.583 18.977 100.549 19.0135 100.487 19.0626L96.7389 14.3774C96.3038 14.7255 95.9611 15.1272 95.6918 15.5043L100.574 18.9917ZM100.539 19.0203L106.731 13.8363L102.879 9.23572L96.6872 14.4197L100.539 19.0203ZM106.605 13.936C106.671 13.8868 106.678 13.8935 106.626 13.913L104.52 8.29501C103.956 8.5065 103.451 8.80122 103.005 9.13599L106.605 13.936ZM106.522 13.9501C106.476 13.9652 106.455 13.9673 106.465 13.9658C106.476 13.9643 106.513 13.96 106.581 13.96V7.96C105.956 7.96 105.287 8.03709 104.624 8.25794L106.522 13.9501ZM106.581 13.96H114.357V7.96H106.581V13.96ZM114.357 13.96C114.524 13.96 114.538 13.9807 114.454 13.954C114.355 13.923 114.138 13.8313 113.916 13.6093L118.158 9.36667C117.003 8.21116 115.499 7.96 114.357 7.96V13.96ZM113.916 13.6093C113.694 13.3873 113.602 13.17 113.571 13.0715C113.544 12.9866 113.565 13.0006 113.565 13.168H119.565C119.565 12.0263 119.314 10.5222 118.158 9.36668L113.916 13.6093ZM113.565 13.168V44.272H119.565V13.168H113.565ZM113.565 44.272C113.565 44.3283 113.561 44.3382 113.565 44.3113C113.57 44.2835 113.587 44.2107 113.632 44.1096L119.114 46.5464C119.458 45.7731 119.565 44.9799 119.565 44.272H113.565ZM113.527 44.3793C113.559 44.2836 113.609 44.1731 113.685 44.0599C113.761 43.9462 113.849 43.8488 113.941 43.7702L117.845 48.3258C118.495 47.7693 118.956 47.0648 119.219 46.2767L113.527 44.3793ZM113.976 43.7404L107.736 48.9244L111.57 53.5396L117.81 48.3556L113.976 43.7404ZM107.532 49.1107C107.726 48.9164 107.899 48.8133 107.979 48.7706C108.062 48.7257 108.104 48.7139 108.08 48.722L109.978 54.4141C110.446 54.258 111.166 53.962 111.774 53.3533L107.532 49.1107ZM107.976 48.759C108.109 48.7092 108.185 48.712 108.165 48.712V54.712C108.785 54.712 109.437 54.6188 110.082 54.377L107.976 48.759ZM108.165 48.712H100.773V54.712H108.165V48.712ZM100.773 48.712C100.579 48.712 100.546 48.689 100.618 48.7109C100.702 48.7366 100.929 48.8255 101.166 49.0627L96.9237 53.3053C98.0981 54.4797 99.6413 54.712 100.773 54.712V48.712ZM101.265 49.166C101.477 49.3996 101.551 49.6099 101.57 49.6758C101.586 49.7335 101.565 49.6923 101.565 49.504H95.565C95.565 50.5848 95.7728 52.0443 96.8252 53.202L101.265 49.166ZM101.565 49.504V36.832H95.565V49.504H101.565ZM96.6483 34.5241L93.8163 36.8761L97.6497 41.4919L100.482 39.1399L96.6483 34.5241ZM93.7575 36.9263C93.7803 36.9063 93.7993 36.8938 93.8099 36.8877C93.82 36.8819 93.8171 36.8849 93.7958 36.8926L95.8462 42.5314C96.5117 42.2894 97.1463 41.9337 97.7085 41.4417L93.7575 36.9263ZM93.959 36.8385C93.9819 36.8316 93.9724 36.8367 93.9209 36.8432C93.8698 36.8496 93.7875 36.856 93.669 36.856V42.856C94.3163 42.856 95.0067 42.7884 95.683 42.5855L93.959 36.8385ZM93.669 36.856H93.045V42.856H93.669V36.856ZM90.045 39.856V44.272H96.045V39.856H90.045ZM90.045 44.272C90.045 44.3283 90.0405 44.3382 90.0454 44.3113C90.0504 44.2835 90.0666 44.2107 90.1116 44.1096L95.5944 46.5464C95.9381 45.7731 96.045 44.9799 96.045 44.272H90.045ZM90.007 44.3793C90.0388 44.2836 90.0894 44.1731 90.1648 44.0599C90.2406 43.9462 90.3289 43.8488 90.4206 43.7702L94.3254 48.3258C94.9746 47.7693 95.4363 47.0648 95.6991 46.2767L90.007 44.3793ZM120.992 17.344L118.25 16.1256L118.191 16.2579L118.145 16.3953L120.992 17.344ZM121.52 16.624L119.583 14.3325L119.575 14.3393L119.567 14.3462L121.52 16.624ZM127.712 11.392L125.837 9.0494L125.806 9.07453L125.775 9.10049L127.712 11.392ZM128.336 11.104L129.063 14.0144L129.175 13.9865L129.284 13.9501L128.336 11.104ZM153.2 11.488L155.321 9.36668L155.321 9.36667L153.2 11.488ZM153.536 19.84L150.794 18.6216L150.735 18.7539L150.689 18.8913L153.536 19.84ZM153.055 20.56L154.965 22.8735L154.987 22.8558L155.008 22.8378L153.055 20.56ZM148.928 23.968L147.018 21.6545L143.462 24.5896L147.586 26.6513L148.928 23.968ZM149.6 24.688L146.814 25.8022L146.86 25.918L146.916 26.0296L149.6 24.688ZM149.648 32.128L146.906 30.9096L146.847 31.0419L146.801 31.1793L149.648 32.128ZM149.167 32.848L151.101 35.1421L151.11 35.134L151.12 35.1258L149.167 32.848ZM144.896 36.448L142.962 34.1539L136.68 39.448H144.896V36.448ZM153.2 36.976L155.321 34.8547L155.321 34.8547L153.2 36.976ZM153.536 45.328L150.794 44.1096L150.735 44.2419L150.689 44.3793L153.536 45.328ZM153.055 46.048L154.973 48.3556L154.99 48.3408L155.008 48.3258L153.055 46.048ZM146.816 51.232L144.898 48.9244L144.792 49.0128L144.694 49.1107L146.816 51.232ZM146.191 51.568L145.243 48.722L145.19 48.7395L145.138 48.759L146.191 51.568ZM152.816 45.616L154.937 47.7373L154.937 47.7373L152.816 45.616ZM152.816 37.36L150.573 39.3531L150.691 39.485L150.822 39.6022L152.816 37.36ZM138.271 36.928H135.271V39.928H138.271V36.928ZM138.271 32.8V29.8H135.271V32.8H138.271ZM148.928 24.64L146.685 26.6331L146.803 26.765L146.934 26.8822L148.928 24.64ZM138.271 24.208H135.271V27.208H138.271V24.208ZM138.271 20.512V17.512H135.271V20.512H138.271ZM152.816 11.872L150.573 13.8651L150.691 13.997L150.822 14.1142L152.816 11.872ZM127.904 11.872L125.782 9.75068L125.782 9.75068L127.904 11.872ZM127.904 45.616L125.661 47.6091L125.779 47.741L125.91 47.8582L127.904 45.616ZM148.928 41.2H151.928V38.2H148.928V41.2ZM148.928 41.68V44.68H151.928V41.68H148.928ZM132.751 41.68H129.752V44.68H132.751V41.68ZM132.751 15.76V12.76H129.752V15.76H132.751ZM148.928 15.76H151.928V12.76H148.928V15.76ZM148.928 16.24V19.24H151.928V16.24H148.928ZM133.232 16.24V13.24H130.231V16.24H133.232ZM133.232 28.288H130.231V31.288H133.232V28.288ZM145.04 28.288H148.04V25.288H145.04V28.288ZM145.04 28.768V31.768H148.04V28.768H145.04ZM133.232 28.768V25.768H130.231V28.768H133.232ZM133.232 41.2H130.231V44.2H133.232V41.2ZM145.327 48.712H123.056V54.712H145.327V48.712ZM123.056 48.712C122.888 48.712 122.874 48.6913 122.959 48.718C123.058 48.749 123.275 48.8407 123.497 49.0627L119.254 53.3053C120.41 54.4608 121.914 54.712 123.056 54.712V48.712ZM123.497 49.0627C123.719 49.2847 123.811 49.502 123.841 49.6005C123.868 49.6854 123.848 49.6714 123.848 49.504H117.848C117.848 50.6457 118.099 52.1498 119.254 53.3053L123.497 49.0627ZM123.848 49.504V18.4H117.848V49.504H123.848ZM123.848 18.4C123.848 18.3053 123.853 18.2506 123.856 18.2293C123.859 18.2077 123.857 18.2331 123.838 18.2927L118.145 16.3953C117.918 17.079 117.848 17.7723 117.848 18.4H123.848ZM123.733 18.5624C123.692 18.6534 123.609 18.7841 123.472 18.9018L119.567 14.3462C118.982 14.8479 118.547 15.4586 118.25 16.1256L123.733 18.5624ZM123.456 18.9155L129.648 13.6835L125.775 9.10049L119.583 14.3325L123.456 18.9155ZM129.586 13.7346C129.326 13.9419 129.11 14.0028 129.063 14.0144L127.608 8.19357C127.049 8.33324 126.417 8.5861 125.837 9.0494L129.586 13.7346ZM129.284 13.9501C129.269 13.955 129.256 13.9579 129.247 13.9593C129.239 13.9607 129.238 13.96 129.247 13.96V7.96C128.623 7.96 127.997 8.05458 127.387 8.25794L129.284 13.9501ZM129.247 13.96H151.52V7.96H129.247V13.96ZM151.52 13.96C151.687 13.96 151.701 13.9807 151.616 13.954C151.517 13.923 151.3 13.8313 151.078 13.6093L155.321 9.36667C154.165 8.21116 152.661 7.96 151.52 7.96V13.96ZM151.078 13.6093C150.856 13.3873 150.764 13.17 150.734 13.0715C150.707 12.9866 150.728 13.0006 150.728 13.168H156.728C156.728 12.0263 156.476 10.5222 155.321 9.36668L151.078 13.6093ZM150.728 13.168V18.784H156.728V13.168H150.728ZM150.728 18.784C150.728 18.8403 150.723 18.8502 150.728 18.8233C150.733 18.7955 150.749 18.7227 150.794 18.6216L156.277 21.0584C156.621 20.2851 156.728 19.4919 156.728 18.784H150.728ZM150.689 18.8913C150.721 18.7956 150.772 18.6851 150.847 18.5719C150.923 18.4582 151.011 18.3608 151.103 18.2822L155.008 22.8378C155.657 22.2813 156.119 21.5768 156.382 20.7887L150.689 18.8913ZM151.146 18.2465L147.018 21.6545L150.837 26.2815L154.965 22.8735L151.146 18.2465ZM147.586 26.6513C147.455 26.5859 147.295 26.4785 147.142 26.315C146.988 26.15 146.881 25.9697 146.814 25.8022L152.385 23.5738C151.973 22.5437 151.219 21.7596 150.269 21.2847L147.586 26.6513ZM146.916 26.0296C146.854 25.9043 146.836 25.8197 146.833 25.8065C146.831 25.794 146.84 25.8323 146.84 25.936H152.84C152.84 25.1454 152.721 24.223 152.283 23.3464L146.916 26.0296ZM146.84 25.936V31.072H152.84V25.936H146.84ZM146.84 31.072C146.84 31.1283 146.835 31.1382 146.84 31.1113C146.845 31.0835 146.861 31.0107 146.906 30.9096L152.389 33.3464C152.733 32.5731 152.84 31.7799 152.84 31.072H146.84ZM146.801 31.1793C146.833 31.0836 146.884 30.9731 146.959 30.8599C147.035 30.7462 147.123 30.6488 147.215 30.5702L151.12 35.1258C151.769 34.5693 152.231 33.8648 152.494 33.0767L146.801 31.1793ZM147.234 30.5539L142.962 34.1539L146.829 38.7421L151.101 35.1421L147.234 30.5539ZM144.896 39.448H151.52V33.448H144.896V39.448ZM151.52 39.448C151.687 39.448 151.701 39.4687 151.616 39.442C151.517 39.411 151.3 39.3193 151.078 39.0973L155.321 34.8547C154.165 33.6992 152.661 33.448 151.52 33.448V39.448ZM151.078 39.0973C150.856 38.8753 150.764 38.658 150.734 38.5595C150.707 38.4746 150.728 38.4886 150.728 38.656H156.728C156.728 37.5143 156.476 36.0102 155.321 34.8547L151.078 39.0973ZM150.728 38.656V44.272H156.728V38.656H150.728ZM150.728 44.272C150.728 44.3283 150.723 44.3382 150.728 44.3113C150.733 44.2835 150.749 44.2107 150.794 44.1096L156.277 46.5464C156.621 45.7731 156.728 44.9799 156.728 44.272H150.728ZM150.689 44.3793C150.721 44.2836 150.772 44.1731 150.847 44.0599C150.923 43.9462 151.011 43.8488 151.103 43.7702L155.008 48.3258C155.657 47.7693 156.119 47.0648 156.382 46.2767L150.689 44.3793ZM151.138 43.7404L144.898 48.9244L148.733 53.5396L154.973 48.3556L151.138 43.7404ZM144.694 49.1107C144.888 48.9164 145.062 48.8133 145.141 48.7706C145.225 48.7257 145.267 48.7139 145.243 48.722L147.14 54.4141C147.608 54.258 148.328 53.962 148.937 53.3533L144.694 49.1107ZM145.138 48.759C145.271 48.7092 145.348 48.712 145.327 48.712V54.712C145.947 54.712 146.6 54.6188 147.245 54.377L145.138 48.759ZM151.52 49C152.414 49 153.839 48.8353 154.937 47.7373L150.694 43.4947C150.996 43.1929 151.299 43.0714 151.447 43.0276C151.585 42.9867 151.629 43 151.52 43V49ZM154.937 47.7373C156.013 46.6615 156.247 45.2874 156.247 44.272H150.247C150.247 44.4726 150.194 43.9945 150.694 43.4947L154.937 47.7373ZM156.247 44.272V38.656H150.247V44.272H156.247ZM156.247 38.656C156.247 37.6794 156.029 36.2022 154.809 35.1178L150.822 39.6022C150.508 39.3225 150.357 39.016 150.293 38.8247C150.236 38.6517 150.247 38.5733 150.247 38.656H156.247ZM155.058 35.3669C153.973 34.1469 152.496 33.928 151.52 33.928V39.928C151.602 39.928 151.524 39.9397 151.351 39.882C151.159 39.8183 150.853 39.6678 150.573 39.3531L155.058 35.3669ZM151.52 33.928H138.271V39.928H151.52V33.928ZM141.271 36.928V32.8H135.271V36.928H141.271ZM138.271 35.8H147.632V29.8H138.271V35.8ZM147.632 35.8C148.526 35.8 149.951 35.6353 151.049 34.5373L146.806 30.2947C147.108 29.9929 147.411 29.8714 147.559 29.8276C147.697 29.7867 147.741 29.8 147.632 29.8V35.8ZM151.049 34.5373C152.125 33.4615 152.359 32.0874 152.359 31.072H146.359C146.359 31.2726 146.306 30.7945 146.806 30.2947L151.049 34.5373ZM152.359 31.072V25.936H146.359V31.072H152.359ZM152.359 25.936C152.359 24.9594 152.141 23.4822 150.921 22.3978L146.934 26.8822C146.62 26.6025 146.469 26.296 146.405 26.1047C146.348 25.9317 146.359 25.8533 146.359 25.936H152.359ZM151.17 22.6469C150.085 21.4269 148.608 21.208 147.632 21.208V27.208C147.714 27.208 147.636 27.2197 147.463 27.162C147.271 27.0983 146.965 26.9478 146.685 26.6331L151.17 22.6469ZM147.632 21.208H138.271V27.208H147.632V21.208ZM141.271 24.208V20.512H135.271V24.208H141.271ZM138.271 23.512H151.52V17.512H138.271V23.512ZM151.52 23.512C152.414 23.512 153.839 23.3473 154.937 22.2493L150.694 18.0067C150.996 17.7049 151.299 17.5834 151.447 17.5396C151.585 17.4987 151.629 17.512 151.52 17.512V23.512ZM154.937 22.2493C156.013 21.1735 156.247 19.7994 156.247 18.784H150.247C150.247 18.9846 150.194 18.5065 150.694 18.0067L154.937 22.2493ZM156.247 18.784V13.168H150.247V18.784H156.247ZM156.247 13.168C156.247 12.1914 156.029 10.7142 154.809 9.62977L150.822 14.1142C150.508 13.8345 150.357 13.528 150.293 13.3367C150.236 13.1637 150.247 13.0853 150.247 13.168H156.247ZM155.058 9.87891C153.973 8.6589 152.496 8.44 151.52 8.44V14.44C151.602 14.44 151.524 14.4517 151.351 14.394C151.159 14.3303 150.853 14.1798 150.573 13.8651L155.058 9.87891ZM151.52 8.44H129.247V14.44H151.52V8.44ZM129.247 8.44C128.232 8.44 126.858 8.67488 125.782 9.75068L130.025 13.9933C129.525 14.4931 129.047 14.44 129.247 14.44V8.44ZM125.782 9.75068C124.684 10.8486 124.52 12.2738 124.52 13.168H130.52C130.52 13.0589 130.533 13.1022 130.492 13.2403C130.448 13.3882 130.327 13.6915 130.025 13.9933L125.782 9.75068ZM124.52 13.168V44.272H130.52V13.168H124.52ZM124.52 44.272C124.52 45.2107 124.703 46.5307 125.661 47.6091L130.146 43.6229C130.373 43.8785 130.466 44.1201 130.5 44.2398C130.532 44.351 130.52 44.377 130.52 44.272H124.52ZM125.91 47.8582C126.989 48.8168 128.309 49 129.247 49V43C129.142 43 129.168 42.9877 129.28 43.0194C129.399 43.0536 129.641 43.1466 129.897 43.3738L125.91 47.8582ZM129.247 49H151.52V43H129.247V49ZM145.928 41.2V41.68H151.928V41.2H145.928ZM148.928 38.68H132.751V44.68H148.928V38.68ZM135.751 41.68V15.76H129.752V41.68H135.751ZM132.751 18.76H148.928V12.76H132.751V18.76ZM145.928 15.76V16.24H151.928V15.76H145.928ZM148.928 13.24H133.232V19.24H148.928V13.24ZM130.231 16.24V28.288H136.232V16.24H130.231ZM133.232 31.288H145.04V25.288H133.232V31.288ZM142.04 28.288V28.768H148.04V28.288H142.04ZM145.04 25.768H133.232V31.768H145.04V25.768ZM130.231 28.768V41.2H136.232V28.768H130.231ZM133.232 44.2H148.928V38.2H133.232V44.2ZM172.404 51.184L174.526 49.0627L172.404 51.184ZM172.02 42.736L169.279 41.5176L169.22 41.6499L169.174 41.7873L172.02 42.736ZM172.548 42.016L170.615 39.7222L170.605 39.7302L170.596 39.7382L172.548 42.016ZM178.356 37.12L180.29 39.4137L181.356 38.5148V37.12H178.356ZM178.356 26.416H181.356V23.416H178.356V26.416ZM172.404 25.888L174.526 23.7667V23.7667L172.404 25.888ZM172.02 17.344L169.279 16.1256L169.22 16.2579L169.174 16.3953L172.02 17.344ZM172.548 16.624L170.612 14.3325L170.604 14.3393L170.596 14.3462L172.548 16.624ZM178.74 11.392L176.866 9.0494L176.835 9.07453L176.804 9.10049L178.74 11.392ZM179.364 11.104L180.092 14.0144L180.204 13.9865L180.313 13.9501L179.364 11.104ZM202.74 20.032L199.999 18.8136L199.94 18.9459L199.894 19.0833L202.74 20.032ZM202.26 20.752L204.19 23.0487L204.202 23.0393L204.213 23.0298L202.26 20.752ZM196.548 25.552L194.618 23.2553L193.548 24.1544V25.552H196.548ZM196.548 36.352H193.548V39.352H196.548V36.352ZM202.404 36.88L200.283 39.0013L200.283 39.0013L202.404 36.88ZM202.74 45.328L199.999 44.1096L199.94 44.2419L199.894 44.3793L202.74 45.328ZM202.26 46.048L204.177 48.3556L204.195 48.3408L204.213 48.3258L202.26 46.048ZM196.02 51.232L194.103 48.9244L193.997 49.0128L193.899 49.1107L196.02 51.232ZM195.396 51.568L194.448 48.722L194.395 48.7395L194.343 48.759L195.396 51.568ZM202.02 45.616L199.899 43.4947V43.4947L202.02 45.616ZM202.02 37.264L199.778 39.2571L199.895 39.389L200.027 39.5062L202.02 37.264ZM196.068 36.832H193.068V39.832H196.068V36.832ZM196.068 20.704V17.704H193.068V20.704H196.068ZM202.02 20.32L199.899 18.1987V18.1987L202.02 20.32ZM202.02 11.872L199.778 13.8651L199.895 13.997L200.027 14.1142L202.02 11.872ZM178.932 11.872L176.811 9.75068L178.932 11.872ZM178.932 20.32L176.69 22.3131L176.807 22.445L176.939 22.5622L178.932 20.32ZM185.028 20.704H188.028V17.704H185.028V20.704ZM185.028 36.832V39.832H188.028V36.832H185.028ZM178.932 37.264L181.054 39.3853L178.932 37.264ZM178.932 45.616L176.69 47.6091L176.807 47.741L176.939 47.8582L178.932 45.616ZM198.132 41.68V44.68H201.132V41.68H198.132ZM182.868 41.68H179.868V44.68H182.868V41.68ZM182.868 41.2V38.2H179.868V41.2H182.868ZM190.308 41.2V44.2H193.308V41.2H190.308ZM190.308 16.24H193.308V13.24H190.308V16.24ZM182.868 16.24H179.868V19.24H182.868V16.24ZM182.868 15.76V12.76H179.868V15.76H182.868ZM198.132 15.76H201.132V12.76H198.132V15.76ZM198.132 16.24V19.24H201.132V16.24H198.132ZM190.788 16.24V13.24H187.788V16.24H190.788ZM190.788 41.2H187.788V44.2H190.788V41.2ZM198.132 41.2H201.132V38.2H198.132V41.2ZM194.532 48.712H174.084V54.712H194.532V48.712ZM174.084 48.712C173.917 48.712 173.903 48.6913 173.988 48.718C174.086 48.749 174.304 48.8407 174.526 49.0627L170.283 53.3053C171.439 54.4608 172.943 54.712 174.084 54.712V48.712ZM174.526 49.0627C174.748 49.2847 174.839 49.502 174.87 49.6005C174.897 49.6854 174.876 49.6714 174.876 49.504H168.876C168.876 50.6457 169.128 52.1498 170.283 53.3053L174.526 49.0627ZM174.876 49.504V43.792H168.876V49.504H174.876ZM174.876 43.792C174.876 43.6973 174.882 43.6426 174.885 43.6213C174.888 43.5997 174.886 43.6251 174.866 43.6847L169.174 41.7873C168.946 42.471 168.876 43.1643 168.876 43.792H174.876ZM174.762 43.9544C174.721 44.0454 174.638 44.1761 174.501 44.2938L170.596 39.7382C170.011 40.2399 169.575 40.8506 169.279 41.5176L174.762 43.9544ZM174.482 44.3097L180.29 39.4137L176.423 34.8262L170.615 39.7222L174.482 44.3097ZM181.356 37.12V26.416H175.356V37.12H181.356ZM178.356 23.416H174.084V29.416H178.356V23.416ZM174.084 23.416C173.917 23.416 173.903 23.3953 173.988 23.422C174.086 23.453 174.304 23.5447 174.526 23.7667L170.283 28.0093C171.439 29.1648 172.943 29.416 174.084 29.416V23.416ZM174.526 23.7667C174.748 23.9887 174.839 24.206 174.87 24.3045C174.897 24.3894 174.876 24.3754 174.876 24.208H168.876C168.876 25.3497 169.128 26.8538 170.283 28.0093L174.526 23.7667ZM174.876 24.208V18.4H168.876V24.208H174.876ZM174.876 18.4C174.876 18.3053 174.882 18.2506 174.885 18.2293C174.888 18.2077 174.886 18.2331 174.866 18.2927L169.174 16.3953C168.946 17.079 168.876 17.7723 168.876 18.4H174.876ZM174.762 18.5624C174.721 18.6534 174.638 18.7841 174.501 18.9018L170.596 14.3462C170.011 14.8479 169.575 15.4586 169.279 16.1256L174.762 18.5624ZM174.485 18.9155L180.677 13.6835L176.804 9.10049L170.612 14.3325L174.485 18.9155ZM180.614 13.7346C180.355 13.9419 180.139 14.0028 180.092 14.0144L178.637 8.19357C178.078 8.33324 177.445 8.5861 176.866 9.0494L180.614 13.7346ZM180.313 13.9501C180.298 13.955 180.285 13.9579 180.276 13.9593C180.267 13.9607 180.267 13.96 180.276 13.96V7.96C179.651 7.96 179.026 8.05458 178.416 8.25794L180.313 13.9501ZM180.276 13.96H200.724V7.96H180.276V13.96ZM200.724 13.96C200.892 13.96 200.906 13.9807 200.821 13.954C200.722 13.923 200.505 13.8313 200.283 13.6093L204.526 9.36668C203.37 8.21115 201.866 7.96 200.724 7.96V13.96ZM200.283 13.6093C200.061 13.3873 199.969 13.17 199.938 13.0715C199.912 12.9866 199.932 13.0006 199.932 13.168H205.932C205.932 12.0263 205.681 10.5222 204.526 9.36668L200.283 13.6093ZM199.932 13.168V18.976H205.932V13.168H199.932ZM199.932 18.976C199.932 19.0323 199.928 19.0422 199.933 19.0153C199.938 18.9875 199.954 18.9147 199.999 18.8136L205.482 21.2504C205.826 20.4771 205.932 19.6839 205.932 18.976H199.932ZM199.894 19.0833C199.926 18.9876 199.977 18.8771 200.052 18.7639C200.128 18.6502 200.216 18.5528 200.308 18.4742L204.213 23.0298C204.862 22.4733 205.324 21.7688 205.586 20.9807L199.894 19.0833ZM200.33 18.4553L194.618 23.2553L198.478 27.8487L204.19 23.0487L200.33 18.4553ZM193.548 25.552V36.352H199.548V25.552H193.548ZM196.548 39.352H200.724V33.352H196.548V39.352ZM200.724 39.352C200.892 39.352 200.906 39.3727 200.821 39.346C200.722 39.315 200.505 39.2233 200.283 39.0013L204.526 34.7587C203.37 33.6032 201.866 33.352 200.724 33.352V39.352ZM200.283 39.0013C200.061 38.7793 199.969 38.562 199.938 38.4635C199.912 38.3786 199.932 38.3926 199.932 38.56H205.932C205.932 37.4183 205.681 35.9142 204.526 34.7587L200.283 39.0013ZM199.932 38.56V44.272H205.932V38.56H199.932ZM199.932 44.272C199.932 44.3283 199.928 44.3382 199.933 44.3113C199.938 44.2835 199.954 44.2107 199.999 44.1096L205.482 46.5464C205.826 45.7731 205.932 44.9799 205.932 44.272H199.932ZM199.894 44.3793C199.926 44.2836 199.977 44.1731 200.052 44.0599C200.128 43.9462 200.216 43.8488 200.308 43.7702L204.213 48.3258C204.862 47.7693 205.324 47.0648 205.586 46.2767L199.894 44.3793ZM200.343 43.7404L194.103 48.9244L197.937 53.5396L204.177 48.3556L200.343 43.7404ZM193.899 49.1107C194.093 48.9164 194.267 48.8133 194.346 48.7706C194.429 48.7257 194.472 48.7139 194.448 48.722L196.345 54.414C196.813 54.258 197.533 53.962 198.142 53.3533L193.899 49.1107ZM194.343 48.759C194.476 48.7092 194.553 48.712 194.532 48.712V54.712C195.152 54.712 195.805 54.6188 196.45 54.377L194.343 48.759ZM180.276 49H200.724V43H180.276V49ZM200.724 49C201.619 49 203.044 48.8353 204.142 47.7373L199.899 43.4947C200.201 43.1929 200.504 43.0714 200.652 43.0276C200.79 42.9867 200.833 43 200.724 43V49ZM204.142 47.7373C205.217 46.6615 205.452 45.2874 205.452 44.272H199.452C199.452 44.4726 199.399 43.9945 199.899 43.4947L204.142 47.7373ZM205.452 44.272V38.56H199.452V44.272H205.452ZM205.452 38.56C205.452 37.5834 205.233 36.1062 204.013 35.0218L200.027 39.5062C199.713 39.2265 199.562 38.92 199.498 38.7287C199.441 38.5557 199.452 38.4773 199.452 38.56H205.452ZM204.263 35.2709C203.178 34.0509 201.701 33.832 200.724 33.832V39.832C200.807 39.832 200.729 39.8437 200.556 39.786C200.364 39.7223 200.058 39.5718 199.778 39.2571L204.263 35.2709ZM200.724 33.832H196.068V39.832H200.724V33.832ZM199.068 36.832V20.704H193.068V36.832H199.068ZM196.068 23.704H200.724V17.704H196.068V23.704ZM200.724 23.704C201.619 23.704 203.044 23.5393 204.142 22.4413L199.899 18.1987C200.201 17.8969 200.504 17.7754 200.652 17.7316C200.79 17.6907 200.833 17.704 200.724 17.704V23.704ZM204.142 22.4413C205.217 21.3655 205.452 19.9914 205.452 18.976H199.452C199.452 19.1765 199.399 18.6985 199.899 18.1987L204.142 22.4413ZM205.452 18.976V13.168H199.452V18.976H205.452ZM205.452 13.168C205.452 12.1914 205.233 10.7142 204.013 9.62977L200.027 14.1142C199.713 13.8345 199.562 13.528 199.498 13.3367C199.441 13.1637 199.452 13.0853 199.452 13.168H205.452ZM204.263 9.87891C203.178 8.6589 201.701 8.44 200.724 8.44V14.44C200.807 14.44 200.729 14.4517 200.556 14.394C200.364 14.3303 200.058 14.1798 199.778 13.8651L204.263 9.87891ZM200.724 8.44H180.276V14.44H200.724V8.44ZM180.276 8.44C179.261 8.44 177.887 8.67488 176.811 9.75068L181.054 13.9933C180.554 14.4931 180.076 14.44 180.276 14.44V8.44ZM176.811 9.75068C175.713 10.8486 175.548 12.2738 175.548 13.168H181.548C181.548 13.0589 181.562 13.1022 181.521 13.2403C181.477 13.3882 181.355 13.6915 181.054 13.9933L176.811 9.75068ZM175.548 13.168V18.976H181.548V13.168H175.548ZM175.548 18.976C175.548 19.9147 175.732 21.2347 176.69 22.3131L181.175 18.3269C181.402 18.5825 181.495 18.8241 181.529 18.9438C181.561 19.055 181.548 19.081 181.548 18.976H175.548ZM176.939 22.5622C178.018 23.5208 179.338 23.704 180.276 23.704V17.704C180.171 17.704 180.197 17.6917 180.309 17.7234C180.428 17.7576 180.67 17.8506 180.925 18.0778L176.939 22.5622ZM180.276 23.704H185.028V17.704H180.276V23.704ZM182.028 20.704V36.832H188.028V20.704H182.028ZM185.028 33.832H180.276V39.832H185.028V33.832ZM180.276 33.832C179.261 33.832 177.887 34.0669 176.811 35.1427L181.054 39.3853C180.554 39.8851 180.076 39.832 180.276 39.832V33.832ZM176.811 35.1427C175.713 36.2406 175.548 37.6658 175.548 38.56H181.548C181.548 38.4509 181.562 38.4942 181.521 38.6323C181.477 38.7802 181.355 39.0835 181.054 39.3853L176.811 35.1427ZM175.548 38.56V44.272H181.548V38.56H175.548ZM175.548 44.272C175.548 45.2107 175.732 46.5307 176.69 47.6091L181.175 43.6229C181.402 43.8785 181.495 44.1201 181.529 44.2398C181.561 44.351 181.548 44.377 181.548 44.272H175.548ZM176.939 47.8582C178.018 48.8168 179.338 49 180.276 49V43C180.171 43 180.197 42.9877 180.309 43.0194C180.428 43.0536 180.67 43.1466 180.925 43.3738L176.939 47.8582ZM198.132 38.68H182.868V44.68H198.132V38.68ZM185.868 41.68V41.2H179.868V41.68H185.868ZM182.868 44.2H190.308V38.2H182.868V44.2ZM193.308 41.2V16.24H187.308V41.2H193.308ZM190.308 13.24H182.868V19.24H190.308V13.24ZM185.868 16.24V15.76H179.868V16.24H185.868ZM182.868 18.76H198.132V12.76H182.868V18.76ZM195.132 15.76V16.24H201.132V15.76H195.132ZM198.132 13.24H190.788V19.24H198.132V13.24ZM187.788 16.24V41.2H193.788V16.24H187.788ZM190.788 44.2H198.132V38.2H190.788V44.2ZM195.132 41.2V41.68H201.132V41.2H195.132ZM213.832 51.184L215.953 49.0627L213.832 51.184ZM213.304 26.416H216.304V23.416H213.304V26.416ZM205.048 25.888L207.169 23.7667V23.7667L205.048 25.888ZM204.664 17.344L201.923 16.1256L201.864 16.2579L201.818 16.3953L204.664 17.344ZM205.192 16.624L203.256 14.3325L203.248 14.3393L203.24 14.3462L205.192 16.624ZM211.384 11.392L209.51 9.04939L209.479 9.07453L209.448 9.10049L211.384 11.392ZM212.008 11.104L212.736 14.0144L212.848 13.9865L212.957 13.9501L212.008 11.104ZM239.944 11.488L242.065 9.36668L242.065 9.36667L239.944 11.488ZM240.28 20.032L237.539 18.8136L237.48 18.9459L237.434 19.0833L240.28 20.032ZM239.8 20.752L241.717 23.0596L241.735 23.0448L241.752 23.0298L239.8 20.752ZM233.56 25.936L231.643 23.6284L231.537 23.7168L231.439 23.8147L233.56 25.936ZM232.936 26.272L231.987 23.426L231.935 23.4435L231.883 23.463L232.936 26.272ZM231.688 26.416V23.416H228.688V26.416H231.688ZM231.496 45.328L228.755 44.1096L228.696 44.2419L228.65 44.3793L231.496 45.328ZM231.016 46.048L232.933 48.3556L232.951 48.3408L232.969 48.3258L231.016 46.048ZM224.776 51.232L222.859 48.9244L222.753 49.0128L222.655 49.1107L224.776 51.232ZM224.152 51.568L223.203 48.722L223.151 48.7395L223.099 48.759L224.152 51.568ZM230.776 45.616L228.655 43.4947V43.4947L230.776 45.616ZM231.208 20.704V17.704H228.208V20.704H231.208ZM239.56 11.872L237.318 13.8651L237.435 13.997L237.567 14.1142L239.56 11.872ZM211.576 11.872L209.455 9.75068V9.75068L211.576 11.872ZM211.576 20.32L209.334 22.3131L209.451 22.445L209.583 22.5622L211.576 20.32ZM219.976 20.704H222.976V17.704H219.976V20.704ZM220.36 45.616L218.118 47.6091L218.235 47.741L218.367 47.8582L220.36 45.616ZM225.352 41.68H222.352V44.68H225.352V41.68ZM225.352 16.24H228.352V13.24H225.352V16.24ZM215.512 16.24H212.512V19.24H215.512V16.24ZM215.512 15.76V12.76H212.512V15.76H215.512ZM235.672 15.76H238.672V12.76H235.672V15.76ZM235.672 16.24V19.24H238.672V16.24H235.672ZM225.832 16.24V13.24H222.832V16.24H225.832ZM225.832 41.68V44.68H228.832V41.68H225.832ZM223.288 48.712H215.512V54.712H223.288V48.712ZM215.512 48.712C215.345 48.712 215.331 48.6913 215.416 48.718C215.514 48.749 215.731 48.8407 215.953 49.0627L211.711 53.3053C212.866 54.4608 214.37 54.712 215.512 54.712V48.712ZM215.953 49.0627C216.175 49.2847 216.267 49.502 216.298 49.6005C216.325 49.6854 216.304 49.6714 216.304 49.504H210.304C210.304 50.6457 210.555 52.1498 211.711 53.3053L215.953 49.0627ZM216.304 49.504V26.416H210.304V49.504H216.304ZM213.304 23.416H206.728V29.416H213.304V23.416ZM206.728 23.416C206.561 23.416 206.547 23.3953 206.632 23.422C206.73 23.453 206.947 23.5447 207.169 23.7667L202.927 28.0093C204.082 29.1648 205.586 29.416 206.728 29.416V23.416ZM207.169 23.7667C207.391 23.9887 207.483 24.206 207.514 24.3045C207.541 24.3894 207.52 24.3754 207.52 24.208H201.52C201.52 25.3497 201.771 26.8538 202.927 28.0093L207.169 23.7667ZM207.52 24.208V18.4H201.52V24.208H207.52ZM207.52 18.4C207.52 18.3053 207.526 18.2506 207.529 18.2293C207.532 18.2077 207.53 18.2331 207.51 18.2927L201.818 16.3953C201.59 17.079 201.52 17.7723 201.52 18.4H207.52ZM207.406 18.5624C207.365 18.6534 207.282 18.7841 207.145 18.9018L203.24 14.3462C202.654 14.8479 202.219 15.4586 201.923 16.1256L207.406 18.5624ZM207.128 18.9155L213.32 13.6835L209.448 9.10049L203.256 14.3325L207.128 18.9155ZM213.258 13.7346C212.999 13.9419 212.782 14.0028 212.736 14.0144L211.281 8.19357C210.722 8.33324 210.089 8.5861 209.51 9.04939L213.258 13.7346ZM212.957 13.9501C212.942 13.955 212.929 13.9579 212.92 13.9593C212.911 13.9607 212.911 13.96 212.92 13.96V7.96C212.295 7.96 211.67 8.05458 211.059 8.25794L212.957 13.9501ZM212.92 13.96H238.264V7.96H212.92V13.96ZM238.264 13.96C238.431 13.96 238.446 13.9807 238.361 13.954C238.262 13.923 238.045 13.8313 237.823 13.6093L242.065 9.36667C240.91 8.21116 239.406 7.96 238.264 7.96V13.96ZM237.823 13.6093C237.601 13.3873 237.509 13.17 237.478 13.0715C237.451 12.9866 237.472 13.0006 237.472 13.168H243.472C243.472 12.0263 243.221 10.5222 242.065 9.36668L237.823 13.6093ZM237.472 13.168V18.976H243.472V13.168H237.472ZM237.472 18.976C237.472 19.0323 237.468 19.0422 237.473 19.0153C237.478 18.9875 237.494 18.9147 237.539 18.8136L243.022 21.2504C243.365 20.4771 243.472 19.6839 243.472 18.976H237.472ZM237.434 19.0833C237.466 18.9876 237.516 18.8771 237.592 18.7639C237.668 18.6502 237.756 18.5528 237.848 18.4742L241.752 23.0298C242.402 22.4733 242.863 21.7688 243.126 20.9807L237.434 19.0833ZM237.883 18.4444L231.643 23.6284L235.477 28.2436L241.717 23.0596L237.883 18.4444ZM231.439 23.8147C231.633 23.6204 231.806 23.5173 231.886 23.4746C231.969 23.4297 232.012 23.4179 231.987 23.426L233.885 29.118C234.353 28.962 235.073 28.666 235.681 28.0573L231.439 23.8147ZM231.883 23.463C232.016 23.4132 232.093 23.416 232.072 23.416V29.416C232.692 29.416 233.345 29.3228 233.989 29.081L231.883 23.463ZM232.072 23.416H231.688V29.416H232.072V23.416ZM228.688 26.416V44.272H234.688V26.416H228.688ZM228.688 44.272C228.688 44.3283 228.684 44.3382 228.689 44.3113C228.694 44.2835 228.71 44.2107 228.755 44.1096L234.238 46.5464C234.581 45.7731 234.688 44.9799 234.688 44.272H228.688ZM228.65 44.3793C228.682 44.2836 228.732 44.1731 228.808 44.0599C228.884 43.9462 228.972 43.8488 229.064 43.7702L232.969 48.3258C233.618 47.7693 234.079 47.0648 234.342 46.2767L228.65 44.3793ZM229.099 43.7404L222.859 48.9244L226.693 53.5396L232.933 48.3556L229.099 43.7404ZM222.655 49.1107C222.849 48.9164 223.022 48.8133 223.102 48.7706C223.185 48.7257 223.228 48.7139 223.203 48.722L225.101 54.4141C225.569 54.258 226.289 53.962 226.897 53.3533L222.655 49.1107ZM223.099 48.759C223.232 48.7092 223.309 48.712 223.288 48.712V54.712C223.908 54.712 224.561 54.6188 225.205 54.377L223.099 48.759ZM229.48 49C230.374 49 231.799 48.8353 232.897 47.7373L228.655 43.4947C228.957 43.1929 229.26 43.0714 229.408 43.0276C229.546 42.9867 229.589 43 229.48 43V49ZM232.897 47.7373C233.973 46.6615 234.208 45.2874 234.208 44.272H228.208C228.208 44.4726 228.155 43.9945 228.655 43.4947L232.897 47.7373ZM234.208 44.272V20.704H228.208V44.272H234.208ZM231.208 23.704H238.264V17.704H231.208V23.704ZM238.264 23.704C239.158 23.704 240.583 23.5393 241.681 22.4413L237.439 18.1987C237.741 17.8969 238.044 17.7754 238.192 17.7316C238.33 17.6907 238.373 17.704 238.264 17.704V23.704ZM241.681 22.4413C242.757 21.3655 242.992 19.9914 242.992 18.976H236.992C236.992 19.1765 236.939 18.6985 237.439 18.1987L241.681 22.4413ZM242.992 18.976V13.168H236.992V18.976H242.992ZM242.992 13.168C242.992 12.1914 242.773 10.7142 241.553 9.62977L237.567 14.1142C237.252 13.8345 237.102 13.528 237.038 13.3367C236.98 13.1637 236.992 13.0853 236.992 13.168H242.992ZM241.802 9.87891C240.718 8.6589 239.241 8.44 238.264 8.44V14.44C238.347 14.44 238.268 14.4517 238.095 14.394C237.904 14.3303 237.598 14.1798 237.318 13.8651L241.802 9.87891ZM238.264 8.44H212.92V14.44H238.264V8.44ZM212.92 8.44C211.905 8.44 210.531 8.67488 209.455 9.75068L213.697 13.9933C213.198 14.4931 212.72 14.44 212.92 14.44V8.44ZM209.455 9.75068C208.357 10.8486 208.192 12.2738 208.192 13.168H214.192C214.192 13.0589 214.205 13.1022 214.165 13.2403C214.121 13.3882 213.999 13.6915 213.697 13.9933L209.455 9.75068ZM208.192 13.168V18.976H214.192V13.168H208.192ZM208.192 18.976C208.192 19.9147 208.375 21.2347 209.334 22.3131L213.818 18.3269C214.046 18.5825 214.138 18.8241 214.173 18.9438C214.204 19.055 214.192 19.081 214.192 18.976H208.192ZM209.583 22.5622C210.661 23.5208 211.981 23.704 212.92 23.704V17.704C212.815 17.704 212.841 17.6917 212.952 17.7234C213.072 17.7576 213.314 17.8506 213.569 18.0778L209.583 22.5622ZM212.92 23.704H219.976V17.704H212.92V23.704ZM216.976 20.704V44.272H222.976V20.704H216.976ZM216.976 44.272C216.976 45.2107 217.159 46.5307 218.118 47.6091L222.602 43.6229C222.83 43.8785 222.922 44.1201 222.957 44.2398C222.988 44.351 222.976 44.377 222.976 44.272H216.976ZM218.367 47.8582C219.445 48.8168 220.765 49 221.704 49V43C221.599 43 221.625 42.9877 221.736 43.0194C221.856 43.0536 222.098 43.1466 222.353 43.3738L218.367 47.8582ZM221.704 49H229.48V43H221.704V49ZM228.352 41.68V16.24H222.352V41.68H228.352ZM225.352 13.24H215.512V19.24H225.352V13.24ZM218.512 16.24V15.76H212.512V16.24H218.512ZM215.512 18.76H235.672V12.76H215.512V18.76ZM232.672 15.76V16.24H238.672V15.76H232.672ZM235.672 13.24H225.832V19.24H235.672V13.24ZM222.832 16.24V41.68H228.832V16.24H222.832ZM225.832 38.68H225.352V44.68H225.832V38.68Z" fill="#FCE38A"/>
</svg>