<svg width="100" height="100" viewBox="0 0 100 100" fill="none" xmlns="http://www.w3.org/2000/svg">
<path d="M89.2083 36C89.2083 36 89.2083 36 89.2083 35.7917C86.2725 27.7759 80.9455 20.8554 73.9479 15.9661C66.9503 11.0769 58.6198 8.4549 50.0833 8.4549C41.5469 8.4549 33.2164 11.0769 26.2188 15.9661C19.2212 20.8554 13.8942 27.7759 10.9583 35.7917C10.9583 35.7917 10.9583 35.7917 10.9583 36C7.67967 45.0454 7.67967 54.9546 10.9583 64C10.9583 64 10.9583 64 10.9583 64.2083C13.8942 72.2241 19.2212 79.1447 26.2188 84.0339C33.2164 88.9232 41.5469 91.5451 50.0833 91.5451C58.6198 91.5451 66.9503 88.9232 73.9479 84.0339C80.9455 79.1447 86.2725 72.2241 89.2083 64.2083C89.2083 64.2083 89.2083 64.2083 89.2083 64C92.487 54.9546 92.487 45.0454 89.2083 36V36ZM17.75 58.3333C16.3051 52.8717 16.3051 47.1283 17.75 41.6667H25.5C24.8335 47.2022 24.8335 52.7978 25.5 58.3333H17.75ZM21.1667 66.6667H27C27.978 70.3827 29.3759 73.9753 31.1667 77.375C27.0804 74.5914 23.6646 70.9336 21.1667 66.6667ZM27 33.3333H21.1667C23.6286 29.0795 27.0008 25.4228 31.0417 22.625C29.294 26.0302 27.9381 29.6226 27 33.3333V33.3333ZM45.8333 82.0833C40.7157 78.3279 37.1214 72.8551 35.7083 66.6667H45.8333V82.0833ZM45.8333 58.3333H33.9167C33.1391 52.805 33.1391 47.195 33.9167 41.6667H45.8333V58.3333ZM45.8333 33.3333H35.7083C37.1214 27.1449 40.7157 21.6722 45.8333 17.9167V33.3333ZM78.8333 33.3333H73C72.022 29.6173 70.6241 26.0248 68.8333 22.625C72.9196 25.4086 76.3354 29.0664 78.8333 33.3333ZM54.1667 17.9167C59.2843 21.6722 62.8785 27.1449 64.2917 33.3333H54.1667V17.9167ZM54.1667 82.0833V66.6667H64.2917C62.8785 72.8551 59.2843 78.3279 54.1667 82.0833V82.0833ZM66.0833 58.3333H54.1667V41.6667H66.0833C66.8609 47.195 66.8609 52.805 66.0833 58.3333ZM68.9583 77.375C70.7491 73.9753 72.147 70.3827 73.125 66.6667H78.9583C76.4604 70.9336 73.0446 74.5914 68.9583 77.375ZM82.25 58.3333H74.5C74.8389 55.5686 75.0058 52.7855 75 50C75.0046 47.2146 74.8376 44.4316 74.5 41.6667H82.25C83.6949 47.1283 83.6949 52.8717 82.25 58.3333Z" fill="#FCE38A"/>
</svg>