<svg width="183" height="183" viewBox="0 0 183 183" fill="none" xmlns="http://www.w3.org/2000/svg">
<path fill-rule="evenodd" clip-rule="evenodd" d="M80.0814 29.8622C81.7351 31.3101 82.6836 33.4012 82.6836 35.5992V81.6351C82.6836 85.8463 79.2698 89.2601 75.0586 89.2601H25.7344C21.5232 89.2601 18.1094 85.8463 18.1094 81.6351V42.1758C18.1094 38.3541 20.9385 35.1227 24.7266 34.6177L74.0508 28.0411C76.2295 27.7506 78.4276 28.4144 80.0814 29.8622Z" fill="#FC5185"/>
<path fill-rule="evenodd" clip-rule="evenodd" d="M162.304 20.0111C163.948 21.4586 164.891 23.5436 164.891 25.7344V81.6351C164.891 85.8463 161.477 89.2601 157.266 89.2601H94.7883C90.5771 89.2601 87.1633 85.8463 87.1633 81.6351V33.7202C87.1633 29.8828 90.0151 26.6432 93.8215 26.1567L156.299 18.1709C158.472 17.8931 160.66 18.5635 162.304 20.0111Z" fill="#FC5185"/>
<path fill-rule="evenodd" clip-rule="evenodd" d="M89.46 99.1988C90.9287 97.764 92.9139 96.9822 94.9666 97.0302L157.444 98.4915C161.585 98.5884 164.891 101.973 164.891 106.114V157.266C164.891 159.503 163.908 161.628 162.203 163.077C160.497 164.525 158.242 165.152 156.034 164.79L93.5562 154.56C89.8696 153.957 87.1633 150.771 87.1633 147.036V104.653C87.1633 102.6 87.9913 100.634 89.46 99.1988Z" fill="#FC5185"/>
<path fill-rule="evenodd" clip-rule="evenodd" d="M20.408 95.9086C21.8778 94.4738 23.8644 93.6926 25.9179 93.742L75.2421 94.9296C79.3806 95.0293 82.6836 98.4128 82.6836 102.552V144.112C82.6836 146.356 81.6953 148.486 79.982 149.935C78.2686 151.384 76.0041 152.004 73.7915 151.631L24.4673 143.319C20.7968 142.701 18.1094 139.523 18.1094 135.8V101.365C18.1094 99.3107 18.9381 97.3435 20.408 95.9086Z" fill="#FC5185"/>
</svg>