<svg width="560" height="400" viewBox="0 0 560 400" fill="none" xmlns="http://www.w3.org/2000/svg">
<path fill-rule="evenodd" clip-rule="evenodd" d="M61.7241 355.703C103.916 400.382 267.073 374.718 374.504 374.718C420.851 374.718 576.383 397.315 512.157 242.125C301.571 -266.715 -71.9606 214.139 61.7241 355.703Z" fill="#FCE38A"/>
<path fill-rule="evenodd" clip-rule="evenodd" d="M2.15422 0.370918C2.19978 0.727548 2.00142 1.10203 1.67644 1.2729C1.41763 1.021 1.15881 0.769102 0.900002 0.5172C1.28799 0.352112 1.72802 0.305025 2.14362 0.38412L2.15422 0.370918Z" fill="#FC5185"/>
<path fill-rule="evenodd" clip-rule="evenodd" d="M251.046 346.03C251.955 346.307 252.851 346.65 253.642 347.165C255.127 348.132 256.138 349.634 257.107 351.095C257.803 352.142 258.507 353.209 258.854 354.409C259.23 355.709 259.163 357.096 258.911 358.423C258.127 362.559 255.504 366.332 251.85 368.58C248.197 370.827 243.567 371.515 239.391 370.43C238.578 370.219 237.759 369.932 237.134 369.384C236.608 368.924 236.254 368.311 235.93 367.699C234.229 364.491 233.082 360.926 233.213 357.318C233.344 353.71 234.869 350.059 237.757 347.791C241.381 344.945 246.603 344.674 251.046 346.03M245.954 367.512C248.225 367.177 250.225 365.733 251.53 363.894C252.836 362.054 253.506 359.849 253.828 357.635C254.011 356.371 254.028 354.923 253.111 354.01C252.562 353.464 251.778 353.22 251.025 353.001C248.201 352.179 244.977 351.48 242.447 352.952C240.605 354.025 239.577 356.012 238.646 357.894C237.556 360.098 237.825 362.879 239.32 364.846C240.814 366.813 243.468 367.88 245.954 367.512V367.512Z" fill="#FC5185"/>
<path fill-rule="evenodd" clip-rule="evenodd" d="M354.817 246.768C354.856 246.299 354.914 245.796 355.233 245.442C355.545 245.096 356.036 244.972 356.497 244.868C368.365 242.18 380.623 241.128 392.791 241.754C394.341 241.834 396.334 242.344 396.437 243.851C397.025 252.487 397.612 261.124 398.2 269.761C398.23 270.198 398.245 270.682 397.957 271.019C397.723 271.294 397.345 271.4 396.99 271.491C384.334 274.7 370.993 275.333 358.076 273.336C357.743 273.285 357.393 273.224 357.135 273.014C356.823 272.76 356.714 272.346 356.624 271.959C354.72 263.715 354.108 255.189 354.817 246.768ZM357.615 261.095C357.848 264.356 358.552 267.586 359.698 270.659C360.841 270.819 361.973 271.05 363.112 271.238C372.928 272.855 382.968 271.228 392.783 269.603C393.479 269.488 394.243 269.335 394.673 268.789C395.112 268.232 395.054 267.456 394.974 266.758C394.636 263.782 394.298 260.806 393.96 257.83C393.933 257.59 393.898 257.333 393.731 257.155C393.528 256.938 393.197 256.903 392.896 256.883C385.922 256.437 378.924 256.943 371.953 257.449C368.1 257.729 364.247 258.009 360.394 258.288C359.489 258.354 358.46 258.484 357.94 259.208C357.556 259.741 357.569 260.446 357.615 261.095ZM357.724 248.647C357.114 250.549 357.005 252.601 357.409 254.554C357.481 254.905 357.583 255.276 357.857 255.515C358.263 255.869 358.882 255.811 359.422 255.734C365.986 254.798 372.621 254.334 379.256 254.345C380.191 254.346 380.479 253.12 380.468 252.21C380.453 250.876 380.438 249.542 380.423 248.208C380.415 247.436 380.375 246.586 379.832 246.023C379.179 245.347 378.088 245.368 377.137 245.439C374.94 245.602 372.742 245.765 370.544 245.929C369.492 246.007 366.704 246.702 365.422 246.784C363.191 247.13 360.96 247.476 358.728 247.823C358.49 247.86 358.239 247.902 358.056 248.054C357.877 248.203 357.794 248.429 357.724 248.647ZM387.153 254.45C388.897 254.472 390.644 254.302 392.349 253.945C392.755 253.86 393.182 253.752 393.472 253.463C393.897 253.038 393.893 252.371 393.862 251.779C393.772 250.059 393.681 248.339 393.591 246.619C393.559 246.005 393.488 245.314 392.995 244.93C392.561 244.593 391.949 244.613 391.395 244.649C389.456 244.778 387.516 244.906 385.576 245.035C385.269 245.055 384.947 245.08 384.69 245.245C384.22 245.547 384.15 246.18 384.137 246.727C384.093 248.551 384.17 250.376 384.366 252.19C384.423 252.715 384.501 253.268 384.835 253.684C385.355 254.332 386.308 254.44 387.153 254.45Z" fill="#FFB61D"/>
<path fill-rule="evenodd" clip-rule="evenodd" d="M385.191 209.025C387.783 207.933 390.965 208.299 393.224 209.948C395.484 211.597 396.735 214.466 396.383 217.193C397.972 216.358 399.986 215.535 401.469 216.538C403.143 217.671 402.76 220.111 402.509 222.079C402.07 225.519 402.639 229.075 404.134 232.221C404.751 233.521 405.282 235.493 403.912 236.017C403.681 236.106 403.429 236.126 403.181 236.145C387.123 237.404 371.065 238.663 355.007 239.922C354.566 239.957 354.073 239.975 353.74 239.693C353.4 239.405 353.358 238.915 353.339 238.477C353.185 234.802 353.031 231.128 352.878 227.453C352.836 226.468 352.816 225.405 353.389 224.591C354.336 223.243 356.319 223.247 357.977 222.989C359.634 222.731 361.561 221.37 360.924 219.86C360.213 218.177 362.636 216.947 364.485 216.673C366.335 216.399 368.788 215.327 368.228 213.59C367.616 211.693 370.299 210.516 372.325 210.254C373.755 210.069 375.25 209.891 376.606 210.368C377.962 210.845 379.108 212.203 378.802 213.574C378.453 215.144 380.418 216.606 381.967 216.052C383.517 215.497 384.145 213.437 383.36 212.024C382.72 210.87 383.953 209.546 385.191 209.025ZM393.483 233.239C392.882 232.156 392.878 230.866 392.873 229.635C392.847 223.856 392.482 218.078 391.78 212.339C391.745 212.049 391.688 211.725 391.444 211.556C391.234 211.409 390.952 211.427 390.694 211.45C389.44 211.564 387.953 211.834 387.458 212.961C387.246 213.441 387.271 213.985 387.3 214.507C387.618 220.299 387.936 226.092 388.254 231.884C388.284 232.424 388.357 233.043 388.818 233.344C389.069 233.509 389.386 233.539 389.688 233.555C390.96 233.623 392.241 233.516 393.483 233.239ZM371.885 224.333C371.729 225.298 371.51 226.256 371.452 227.231C371.355 228.861 371.708 230.48 372.058 232.077C372.283 233.1 373.643 233.604 374.64 233.209C375.636 232.815 376.238 231.78 376.404 230.746C376.57 229.712 376.376 228.66 376.206 227.626C375.541 223.565 375.253 219.446 375.346 215.335C375.37 214.295 374.327 213.355 373.263 213.458C372.198 213.56 371.366 214.681 371.599 215.696C372.249 218.524 372.346 221.47 371.885 224.333ZM382.446 218.786C381.82 217.988 380.385 218.413 379.896 219.297C379.408 220.181 379.557 221.253 379.678 222.249C379.994 224.852 380.025 227.488 379.768 230.097C379.692 230.866 379.608 231.706 380.045 232.352C380.716 233.345 382.19 233.336 383.405 233.215C383.786 233.178 384.224 233.106 384.416 232.783C384.55 232.559 384.518 232.28 384.483 232.023C383.922 227.975 383.361 223.927 382.801 219.879C382.748 219.495 382.687 219.093 382.446 218.786ZM396.355 220.525C395.883 221.151 395.784 221.965 395.743 222.74C395.603 225.397 395.965 228.053 396.326 230.69C396.468 231.729 396.956 233.065 398.031 232.994C399.121 232.922 399.406 231.504 399.38 230.442C399.313 227.629 399.246 224.816 399.179 222.003C399.161 221.263 399.081 220.406 398.45 219.993C397.788 219.56 396.827 219.899 396.355 220.525ZM363.44 219.86C363.44 219.86 363.919 223.532 364.085 225.402C364.295 227.751 364.562 230.094 364.886 232.43C364.933 232.769 364.996 233.137 365.253 233.37C365.699 233.775 367.42 233.506 367.737 232.999C368.054 232.492 368.036 231.859 368.008 231.266C367.921 229.391 367.834 227.516 367.746 225.641C367.653 223.631 367.162 219.297 367.162 219.297M357.199 233.154C357.337 233.574 357.499 234.014 357.848 234.296C358.53 234.845 359.637 234.505 360.175 233.821C360.712 233.137 360.834 232.235 360.936 231.38C361.062 230.33 361.184 229.239 360.835 228.239C360.486 227.238 359.518 226.357 358.436 226.45C357.441 226.536 356.67 227.421 356.438 228.366C356.206 229.311 356.401 230.303 356.643 231.246C356.807 231.888 356.993 232.524 357.199 233.154Z" fill="#E7EAEE"/>
<path fill-rule="evenodd" clip-rule="evenodd" d="M422.295 82.8184C420.998 84.7116 419.593 86.6294 417.587 87.7983C415.581 88.9672 412.811 89.195 411.008 87.7458C409.02 86.147 408.897 83.2647 409.054 80.7596C409.115 79.7951 409.194 78.8229 409.478 77.897C409.971 76.2911 411.047 74.9206 412.17 73.6499C413.533 72.1082 415.042 70.6211 416.932 69.7535C418.822 68.8859 421.171 68.7336 422.942 69.813C425.062 71.1051 425.846 73.8536 425.444 76.2556C425.043 78.6576 423.682 80.7931 422.295 82.8184M418.178 84.8214C419.812 83.1274 421.215 81.2212 422.335 79.1692C423.073 77.8189 423.7 76.3511 423.671 74.8223C423.641 73.2935 422.812 71.6956 421.353 71.1283C419.452 70.3894 417.365 71.5714 415.776 72.8273C414.645 73.7214 413.55 74.7021 412.824 75.9318C412.365 76.7093 412.067 77.5648 411.772 78.414C411.213 80.0206 410.647 81.6947 410.859 83.378C411.072 85.0614 412.31 86.7513 414.044 86.9257C415.649 87.0872 417.073 85.9658 418.178 84.8214Z" fill="#FFB61D"/>
<path fill-rule="evenodd" clip-rule="evenodd" d="M88.3209 104.216C90.3519 106.218 92.0285 108.559 93.2549 111.105C94.4875 113.665 93.2448 116.955 90.8259 118.52C88.407 120.086 85.1365 120.066 82.4842 118.912C79.8319 117.758 77.7477 115.604 76.2126 113.204C75.0553 111.395 74.1579 109.367 74.0617 107.239C73.9655 105.11 74.7712 102.869 76.5024 101.564C78.2533 100.243 80.7154 100.055 82.8329 100.688C84.9504 101.322 86.7644 102.683 88.3209 104.216M80.3963 102.999C78.639 102.823 77.0778 104.393 76.7763 106.086C76.4749 107.779 77.1385 109.498 77.9971 111C79.8591 114.257 83.1814 117.15 87.0079 116.969C88.9749 116.877 91.1309 115.551 91.096 113.636C91.0809 112.808 90.6608 112.043 90.2413 111.322C89.1268 109.407 87.923 107.512 86.3154 105.963C84.7078 104.415 82.6468 103.225 80.3963 102.999Z" fill="#FFB61D"/>
<path fill-rule="evenodd" clip-rule="evenodd" d="M241.89 356.171C243.301 355.128 245.056 354.453 246.824 354.564C248.592 354.675 250.342 355.662 251.081 357.228C251.875 358.909 251.381 360.998 250.142 362.401C248.904 363.805 247.038 364.58 245.154 364.836C243.869 365.011 242.337 364.854 241.633 363.793C241.293 363.281 241.217 362.651 241.148 362.045C241.026 360.958 240.903 359.871 240.78 358.784C240.729 358.324 240.678 357.846 240.831 357.407C241.01 356.891 241.444 356.5 241.89 356.171M247.471 359.297C247.676 359.144 247.891 358.978 247.981 358.742C248.267 357.986 247.144 357.483 246.315 357.501C245.112 357.527 243.57 358.315 243.938 359.43C244.151 360.074 244.967 360.373 245.653 360.254C246.338 360.135 246.919 359.71 247.471 359.297H247.471Z" fill="#FC5185"/>
<path fill-rule="evenodd" clip-rule="evenodd" d="M441.726 8.62481C452.718 19.6946 461.394 32.9315 467.074 47.2967C467.464 48.2834 467.842 49.3793 467.47 50.3725C464.605 58.0196 459.076 64.3948 453.654 70.5938L443.26 82.4771C439.953 86.2585 436.645 90.0406 433.226 93.7269C415.818 112.496 395.248 128.908 371.425 139.007C370.526 139.388 369.562 139.768 368.594 139.615C367.625 139.463 366.718 138.549 366.972 137.627C369.917 126.916 372.881 115.718 370.518 104.872C369.948 102.256 369.312 98.9616 371.534 97.3872C389.527 84.6414 402.481 66.423 414.896 48.452C418.017 43.9332 421.131 39.402 423.893 34.667C428.798 26.2603 432.575 17.2319 435.099 7.88266C435.446 6.5997 437.111 6.02199 438.43 6.35821C439.749 6.69442 440.779 7.67076 441.726 8.62481ZM434.034 22.3716C432.917 21.9222 431.886 23.1377 431.317 24.1751C430.705 25.2913 430.093 26.4092 429.481 27.528L429.47 27.5489L429.47 27.5492C418.081 48.36 406.517 69.49 389.162 85.8814C387.522 87.4301 385.689 89.3011 385.991 91.5049C386.96 98.5693 383.083 106.029 376.661 109.459C373.746 111.016 373.78 115.034 374.207 118.243C374.378 119.527 374.877 121.138 376.204 121.246C380.096 121.566 383.831 123.429 386.368 126.318C387.168 127.23 388.685 126.66 389.728 126.022C415.984 109.965 436.158 86.2467 455.855 62.9432C456.535 62.1392 457.258 61.1263 456.903 60.1442C453.923 51.8842 454.4 42.4971 458.205 34.5639C455.96 30.2182 453.285 26.0832 450.228 22.2346C445.141 24.3829 439.158 24.4335 434.034 22.3716ZM371.758 134.765C372.793 135.292 374.047 134.791 375.083 134.264C377.806 132.882 380.429 131.312 382.926 129.571C383.586 129.111 383.782 128.192 383.549 127.436C383.316 126.68 382.732 126.07 382.085 125.592C380.067 124.102 377.244 123.71 374.877 124.591C374.44 124.754 374.006 124.966 373.704 125.315C373.351 125.723 373.222 126.267 373.109 126.788C372.537 129.426 372.086 132.088 371.758 134.765ZM445.49 16.8714C443.706 13.478 440.955 10.572 437.625 8.5638C436.466 9.55716 436.241 11.0666 436.012 12.6055V12.6057C435.854 13.6616 435.694 14.7313 435.23 15.6576C435.078 15.9593 434.893 16.2479 434.709 16.5358C434.357 17.084 434.007 17.6299 433.894 18.2595C433.722 19.2198 434.558 20.4244 435.505 20.1067C436.275 19.8484 437.083 20.0143 437.897 20.1816C438.326 20.27 438.758 20.3587 439.187 20.3856C441.688 20.5427 443.762 18.6369 445.49 16.8714ZM459.63 37.2105C457.719 40.9086 458.021 45.2763 458.369 49.4016L458.867 55.3178C458.922 55.9684 459.285 56.8464 459.93 56.6662C460.331 55.5764 461.093 54.6774 461.857 53.776C462.526 52.9875 463.196 52.1973 463.627 51.2759C465.086 48.1556 463.466 44.5596 461.871 41.5032L459.63 37.2105ZM374.08 102.874C374.16 104.031 375.396 104.898 376.587 104.865C377.779 104.832 378.852 104.082 379.549 103.141C380.245 102.199 380.627 101.078 380.999 99.9761L382.228 96.3374C382.57 95.3229 382.591 93.7719 381.501 93.6526C381.107 93.6095 380.731 93.8123 380.408 94.0356C379.186 94.881 378.295 96.0955 377.429 97.2864L375.068 100.531C374.556 101.234 374.021 102.014 374.08 102.874ZM92.5286 93.1615C84.2352 78.3896 78.9409 62.0317 77.0386 45.3022C76.9216 44.2735 75.7555 43.6071 74.6923 43.6429C73.629 43.6787 72.6635 44.2252 71.7593 44.7706C58.9217 52.5136 47.9939 63.231 40.1388 75.782C39.3437 77.0525 38.5599 78.4016 38.4595 79.8857C38.3609 81.3423 38.9326 82.7553 39.5217 84.0979C48.1866 103.847 62.6363 120.597 77.3042 136.643C88.6015 149.001 100.695 161.511 116.447 167.732C118.993 168.737 122.691 169.147 123.77 166.689C124.084 165.973 124.068 165.169 124.051 164.391L124.051 164.361C123.877 156.029 124.851 147.674 126.937 139.59C127.419 137.72 127.67 135.198 125.872 134.387C119.109 131.338 114.473 125.19 110.139 119.29C103.909 110.812 97.6635 102.308 92.5286 93.1615ZM107.169 157.732C106.238 157.974 105.307 157.402 104.529 156.848C90.1927 146.629 79.0827 132.799 68.1668 119.155L48.9031 95.076C52.1547 93.0614 52.5676 88.6842 52.6385 84.9346C52.7306 80.0605 52.7979 75.0424 50.988 70.4966C50.5857 69.4862 51.1094 68.3666 51.6702 67.4304C54.0755 63.4156 57.4112 59.9316 61.3572 57.3128C61.7392 57.0593 62.1436 56.8074 62.6015 56.7444C63.8099 56.5784 64.737 57.7217 65.3828 58.7291C67.9332 62.7078 71.4384 67.2073 76.2465 66.8798C78.0773 66.755 79.0926 68.8529 79.6267 70.561C86.2684 91.8023 98.7384 110.961 113.362 128.007C115.262 130.222 115.739 133.211 116.212 136.174C116.739 139.477 117.26 142.747 119.744 144.871C121.865 146.684 121.472 149.941 120.899 152.631C120.782 153.182 120.643 153.771 120.213 154.147C119.894 154.426 119.462 154.542 119.047 154.65L107.169 157.732ZM73.1818 61.9594C70.5519 60.1717 68.2801 57.8873 66.5306 55.2711C66.1521 54.7052 65.7845 54.0709 65.851 53.3989C65.9232 52.6682 66.4883 52.0835 67.0506 51.5939C68.4392 50.385 70.0086 49.3729 71.6939 48.5994C72.311 48.3162 73.1079 48.0861 73.6206 48.5242C73.9225 48.7821 74.0177 49.1942 74.0965 49.5775L76.5256 61.3961C76.6692 62.0948 75.9159 62.724 75.1838 62.7443C74.4516 62.7646 73.7822 62.3675 73.1818 61.9594ZM49.1434 84.8184C49.0919 87.0414 48.9174 89.5361 47.2048 91.0088C46.8464 91.0502 46.6084 90.6676 46.468 90.3442C45.2341 87.5028 43.9831 84.5929 43.7888 81.5141C43.5945 78.4353 44.6552 75.1014 47.2414 73.3168C47.5913 73.0753 48.1046 72.8759 48.4135 73.1656C48.5376 73.282 48.5907 73.451 48.636 73.6129C49.3387 76.1258 49.2834 78.7723 49.2231 81.3759L49.1434 84.8184ZM118.932 158.762C119.347 159.092 119.392 159.684 119.403 160.206L119.526 165.92C117.117 164.62 114.809 163.143 112.628 161.506C112.214 161.196 111.76 160.693 112.013 160.249C112.138 160.028 112.399 159.922 112.643 159.835C114.202 159.276 115.814 158.856 117.451 158.583C117.958 158.499 118.534 158.445 118.932 158.762ZM119.071 136.254C119.049 135.996 119.049 135.715 119.206 135.507C119.622 134.956 120.525 135.454 120.907 136.028C121.826 137.409 122.029 139.217 121.438 140.759C120.088 139.633 119.218 137.978 119.071 136.254ZM477.963 92.8674C480.364 89.9252 484.742 89.5019 488.602 89.5936C489.505 89.615 490.433 89.6574 491.254 90.0215C493.538 91.0342 494.023 93.9377 494.1 96.3783C494.171 98.5991 494.157 100.849 493.602 103.004C493.048 105.159 491.9 107.236 490.065 108.559C489.24 109.153 488.283 109.586 487.271 109.751C485.706 110.006 484.105 109.615 482.618 109.077C480.637 108.36 478.758 107.375 477.052 106.159C476.219 105.565 475.359 104.787 475.332 103.783C475.27 101.467 475.537 99.1423 476.122 96.8962C476.496 95.4607 477.016 94.0271 477.963 92.8674ZM484.19 107.521C487.273 108.382 490.553 106.061 491.721 103.155C492.89 100.249 492.458 96.9841 491.815 93.9267C491.569 92.7528 490.279 92.0971 489.091 91.7832C487.251 91.2973 485.294 91.2329 483.425 91.5966C482.496 91.7773 481.546 92.0869 480.895 92.7557C480.539 93.1201 480.293 93.5701 480.052 94.014L478.246 97.3352C477.928 97.9193 477.608 98.5087 477.421 99.144C476.863 101.044 477.601 103.155 478.965 104.619C480.329 106.084 482.237 106.975 484.19 107.521ZM442.921 141.102C445.749 142.062 448.312 143.75 450.278 145.948C451.968 147.837 453.255 150.289 452.9 152.769C452.769 153.679 452.424 154.547 452.03 155.383C450.539 158.548 447.973 161.581 444.45 162.194C442.602 162.515 440.697 162.13 438.92 161.542C436.864 160.861 434.904 159.907 433.113 158.714C432.162 158.081 431.218 157.33 430.802 156.286C430.514 155.566 430.506 154.773 430.516 154.001C430.543 152.091 430.673 150.149 431.358 148.359C432.223 146.095 433.918 144.225 435.714 142.557C436.437 141.886 437.203 141.224 438.131 140.865C439.649 140.276 441.378 140.578 442.921 141.102ZM445.812 157.747C447.856 155.78 449.045 152.929 448.721 150.15C448.397 147.371 446.464 144.763 443.76 143.815C442.636 143.421 441.39 143.311 440.239 143.62C439.618 143.788 439.035 144.072 438.491 144.409C436.164 145.849 434.53 148.305 434.133 150.961C433.736 153.616 434.584 156.424 436.394 158.449C437.553 159.746 439.444 160.302 441.196 160.086C442.949 159.871 444.557 158.956 445.812 157.747ZM187.752 124.721C187.657 123.411 185.856 123.067 184.507 123.106C177.421 123.309 170.345 123.825 163.308 124.653C162.152 124.789 162.059 126.602 162.986 127.287C163.914 127.972 165.206 127.845 166.359 127.685L187.752 124.721ZM165.102 133.581C165.163 132.906 166.034 132.662 166.726 132.586L208.459 127.988C209.214 127.905 210.018 127.83 210.697 128.16C211.377 128.491 211.814 129.396 211.371 129.995C211.044 130.438 210.417 130.527 209.86 130.58L167.174 134.61C166.287 134.693 165.024 134.445 165.102 133.581ZM258.661 140.419C256.326 140.918 253.93 140.099 251.69 139.285C244.45 136.652 237.238 133.947 230.055 131.17C227.155 130.049 223.973 131.728 221.365 133.394C213.818 138.217 206.552 143.456 199.613 149.077C197.83 150.521 195.088 149.508 193.29 148.082C192.91 147.781 192.536 147.459 192.16 147.136C190.76 145.932 189.342 144.713 187.531 144.463C184.748 144.079 182.299 146.132 180.282 148.038L167.274 160.327C165.524 161.98 163.683 164.627 165.24 166.453C166.267 167.658 168.153 167.596 169.751 167.416C178.096 166.475 186.4 165.156 194.702 163.836C208.421 161.656 222.133 159.477 236.01 159.01C239.085 158.907 242.162 158.888 245.239 158.869L245.243 158.869C247.169 158.857 249.094 158.845 251.019 158.812C259.708 158.665 268.389 158.095 277.02 157.106C277.437 157.059 277.912 156.975 278.129 156.625C278.292 156.36 278.252 156.026 278.205 155.721L274.55 131.523C274.364 130.293 274.039 128.872 272.884 128.341C271.717 127.805 270.343 128.496 269.385 129.338C267.886 130.655 266.731 132.404 265.592 134.13C263.724 136.96 261.898 139.727 258.661 140.419ZM199.294 153.66C207.102 147.415 215.243 141.564 223.673 136.139C225.404 135.026 227.509 133.885 229.443 134.616L249.886 142.344C253.298 143.634 257.029 144.941 260.532 143.907C264.604 142.704 267.038 138.763 269.088 135.136C269.487 134.431 270.647 134.512 271.222 135.091C271.796 135.671 271.941 136.524 272.06 137.321L273.556 147.412C273.786 148.961 274.011 150.569 273.551 152.069C273.091 153.569 271.739 154.932 270.13 154.902C243.815 154.407 217.45 156.518 191.573 161.191C190.774 161.335 189.975 161.482 189.176 161.629L189.167 161.631C182.985 162.766 176.781 163.906 170.498 163.926C173.532 159.746 177.376 156.195 181.193 152.675C183.289 150.742 185.909 148.657 188.723 149.29C190.243 149.631 191.408 150.693 192.568 151.75C192.94 152.089 193.311 152.427 193.693 152.741C195.267 154.033 197.703 154.932 199.294 153.66ZM536.887 224.052C536.19 224.305 535.411 224.132 534.7 223.915C529.888 222.443 525.98 219.152 522.14 215.918L522.14 215.918L522.136 215.914C521.617 215.477 521.099 215.042 520.581 214.611C514.217 209.331 507.311 204.669 499.998 200.718C499.254 200.316 498.474 199.893 498.019 199.194C497.563 198.495 497.576 197.43 498.279 196.963C501.558 194.786 503.685 191.048 503.841 187.189C503.883 186.16 505.077 185.474 506.132 185.557C507.187 185.639 508.106 186.256 508.969 186.852L542.382 209.925C543.033 210.375 543.733 210.895 543.892 211.656C544.022 212.276 543.755 212.904 543.486 213.481C542.045 216.574 540.388 219.572 538.53 222.447C538.109 223.098 537.628 223.783 536.887 224.052ZM503.459 196.679C503.066 197.353 502.727 198.328 503.363 198.794L530.629 218.766C532.122 219.86 534.443 220.885 535.619 219.471C536.969 217.848 538.23 216.155 539.395 214.401C539.713 213.921 540.038 213.373 539.923 212.813C539.819 212.301 539.376 211.93 538.96 211.601C528.953 203.708 518.359 196.521 507.286 190.115L503.459 196.679ZM489.89 208.893C490.33 208.158 490.864 207.354 491.719 207.174C492.372 207.036 493.037 207.308 493.639 207.592C496.922 209.144 499.929 211.246 502.487 213.778C503.103 214.388 503.179 215.369 502.905 216.18C502.631 216.992 502.066 217.675 501.513 218.339C500.623 219.405 499.675 220.514 498.363 221.019C496.947 221.566 495.299 221.302 493.957 220.6C492.616 219.897 491.539 218.798 490.59 217.638C489.353 216.125 488.244 214.311 488.437 212.387C488.563 211.126 489.234 209.987 489.89 208.893ZM495.632 217.361C497.697 218.142 499.018 217.523 499.072 216.206C499.106 215.375 498.361 214.734 497.683 214.227L495.632 212.693C494.954 212.185 494.207 211.654 493.352 211.659C492.496 211.665 491.626 212.523 491.976 213.282C491.923 213.648 493.567 216.58 495.632 217.361ZM487.482 233.578C487.985 233.846 488.519 234.108 489.093 234.12C489.667 234.132 490.289 233.816 490.43 233.274C490.761 232.004 491.626 230.95 492.471 229.919L492.472 229.919C492.564 229.806 492.656 229.694 492.747 229.581C493.674 228.441 494.568 227.148 494.593 225.694C494.618 224.24 493.38 222.691 491.899 222.889C490.733 223.046 489.648 222.302 488.8 221.506C488.665 221.379 488.531 221.249 488.397 221.118C487.688 220.43 486.967 219.731 486.026 219.433C484.906 219.078 483.381 219.642 483.292 220.785C483.113 223.086 481.148 224.818 479.324 226.294C478.779 226.735 479.271 227.583 479.782 228.063C482.08 230.224 484.678 232.084 487.482 233.578ZM487.846 229.194L484.255 226.83C483.342 226.23 483.415 224.757 484.229 224.034C485.043 223.311 486.309 223.256 487.346 223.618C488.384 223.98 489.248 224.69 490.086 225.386C490.641 225.847 490.718 226.686 490.464 227.351C490.21 228.017 489.693 228.55 489.189 229.064C489.017 229.239 488.824 229.426 488.576 229.457C488.313 229.49 488.066 229.338 487.846 229.194ZM516.316 229.349L518.072 225.72C518.61 224.608 519.131 223.233 518.405 222.228C518.153 221.879 517.781 221.633 517.418 221.395L511.029 217.206C510.34 216.755 509.593 216.285 508.762 216.298C507.778 216.313 506.953 216.997 506.254 217.671C505.207 218.681 504.228 219.758 503.326 220.892C502.639 221.756 502.074 223.177 503.013 223.776L512.789 230.015C513.56 230.508 514.54 231.014 515.35 230.585C515.826 230.334 516.086 229.826 516.316 229.349ZM514.15 226.78C513.739 226.872 513.311 226.77 512.907 226.652C510.439 225.929 508.18 224.543 506.445 222.689C505.868 222.072 506.194 220.983 506.928 220.55C507.661 220.118 508.614 220.217 509.405 220.54C509.915 220.749 510.383 221.039 510.85 221.33C511.107 221.49 511.363 221.649 511.627 221.795C511.911 221.953 512.207 222.097 512.503 222.241C513.343 222.651 514.184 223.061 514.757 223.77C515.532 224.728 515.372 226.507 514.15 226.78ZM517.452 230.834C518.578 230.573 518.923 229.456 519.28 228.294C519.576 227.334 519.881 226.344 520.645 225.783C521.959 224.816 523.821 225.624 525.237 226.444L529.74 229.05C530.458 229.465 531.193 229.895 531.707 230.535C532.222 231.174 532.475 232.081 532.115 232.814C531.874 233.303 531.42 233.627 530.962 233.954C530.587 234.222 530.21 234.492 529.946 234.855C529.608 235.322 529.482 235.907 529.357 236.484C529.201 237.21 529.047 237.924 528.478 238.38C527.441 239.211 525.9 238.545 524.754 237.864L518.409 234.092C517.769 233.712 517.094 233.294 516.78 232.632C516.466 231.969 516.722 231.003 517.452 230.834ZM525.769 234.579C526.678 234.278 527.408 233.622 528.109 232.984C528.617 232.522 527.937 231.76 527.331 231.428L523.444 229.299C523.039 229.077 522.474 228.875 522.16 229.208C521.148 230.283 521 232.037 521.82 233.258C522.641 234.478 524.351 235.05 525.769 234.579ZM481.17 234.447C480.3 234.209 479.414 233.966 478.703 233.494C477.6 232.762 476.063 232.939 474.905 233.587C473.747 234.234 472.883 235.271 472.047 236.285C471.583 236.847 471.106 237.434 470.929 238.134C470.752 238.835 470.963 239.683 471.611 240.034L478.39 243.71C478.903 243.988 479.476 244.276 480.049 244.152C480.621 244.029 481.015 243.535 481.359 243.075L483.103 240.74C484.074 239.441 485.088 237.784 484.378 236.334C483.809 235.171 482.508 234.814 481.17 234.447ZM479.025 240.495C478.67 240.586 478.305 240.419 477.979 240.258L473.361 237.971C474.249 236.749 475.938 236.28 477.469 236.428C479 236.576 480.421 237.238 481.806 237.89L479.684 240.034C479.494 240.226 479.29 240.426 479.025 240.495ZM447.032 149.073C447.747 150.133 447.523 151.55 447.049 152.732C446.424 154.289 445.368 155.732 443.875 156.56C442.382 157.388 440.422 157.509 438.968 156.619C437.513 155.729 436.783 153.749 437.563 152.259C437.743 151.915 437.989 151.61 438.235 151.304C438.47 151.012 438.706 150.72 438.884 150.393C439.001 150.178 439.092 149.95 439.183 149.722C439.314 149.393 439.446 149.065 439.654 148.778C440.394 147.758 441.852 147.558 443.135 147.576C444.591 147.596 446.234 147.888 447.032 149.073ZM443.783 149.746C441.792 149.722 439.924 151.346 439.727 153.274C439.647 154.062 439.99 155.041 440.797 155.15C441.4 155.231 441.931 154.777 442.337 154.335C443.195 153.398 443.933 152.357 444.527 151.242C444.726 150.868 444.902 150.389 444.64 150.053C444.449 149.809 444.099 149.75 443.783 149.746ZM491.408 99.2235C491.255 97.4497 490.035 95.7051 488.263 95.2608C486.012 94.6963 483.831 96.2379 482.044 97.6841C481.516 98.112 480.964 98.5719 480.74 99.2044C480.36 100.277 481.043 101.408 481.716 102.335C482.487 103.397 483.31 104.464 484.435 105.166C485.56 105.868 487.059 106.14 488.239 105.53C488.84 105.219 489.308 104.712 489.715 104.18C490.807 102.752 491.562 100.997 491.408 99.2235ZM486.417 103.771C485.654 103.882 484.863 103.582 484.301 103.068C483.46 102.297 483.126 101.059 483.42 99.9715C483.73 98.8269 484.717 97.8815 485.899 97.5992C487.08 97.3168 488.406 97.7094 489.225 98.5843C489.195 98.8227 489.169 99.0627 489.143 99.3027C489.056 100.118 488.969 100.935 488.679 101.702C488.303 102.693 487.491 103.614 486.417 103.771ZM425.834 380.452C429.984 366.171 437.819 353.209 445.573 340.428C446.884 338.267 448.508 335.888 451.052 335.478C452.055 335.317 452.584 334.256 452.926 333.325C457.131 321.849 457.537 309.087 454.067 297.38C453.077 294.038 454.296 290.496 455.503 287.222L464.842 261.878C463.871 260.243 462.034 259.525 460.173 258.798C458.617 258.189 457.044 257.574 455.946 256.411C452.846 253.124 455.184 247.897 457.613 244.113L500.182 177.794C501.92 175.086 505.735 174.237 508.932 174.958C512.13 175.68 514.86 177.638 517.49 179.548L548.536 202.107C554.091 206.143 560.222 211.298 559.902 218.035C559.725 221.763 557.532 225.077 555.411 228.186L530.806 264.255C527.625 268.918 527.239 274.589 526.851 280.285C526.676 282.861 526.5 285.442 526.065 287.938C523.944 300.116 515.607 310.201 507.62 319.864L507.202 320.369C507.023 320.586 506.844 320.802 506.666 321.018C498.4 331.034 490.129 342.217 489.664 355.054C489.111 370.353 481.639 385.296 469.609 395.164L480.078 370.457C482.567 364.581 484.873 357.271 480.706 352.376C478.821 350.161 475.972 348.99 473.237 347.898L456.978 341.409C455.857 340.961 454.701 340.507 453.489 340.499C449.712 340.477 447.465 344.462 445.933 347.821C440.635 359.441 433.868 370.427 425.834 380.452ZM479.297 346.899C482.084 347.903 486.009 348.513 487.33 345.922C493.724 333.384 500.293 320.604 510.471 310.711C516.337 305.009 519.933 297.4 521.967 289.58C524.001 281.759 524.577 273.66 525.145 265.612C522.675 266.486 522.461 269.728 522.471 272.285C522.494 277.922 521.481 283.561 519.495 288.856C519.079 289.964 518.521 291.161 517.407 291.629C516.294 292.096 514.654 291.157 515.028 290.035C517.9 281.422 518.97 272.245 518.155 263.226C517.902 260.429 517.366 257.437 515.323 255.455C515.545 259.871 515.766 264.307 515.306 268.705C514.51 276.314 511.706 283.569 508.926 290.724C508.565 291.653 508.128 292.666 507.211 293.102C506.295 293.539 504.871 292.847 505.111 291.882L509.274 275.141C511.563 265.936 513.814 256.035 510.271 247.214C508.486 247.098 508.066 249.58 508.225 251.313C509.317 263.184 505.943 274.966 502.603 286.432C502.213 287.771 500.834 289.445 499.761 288.524C499.299 288.127 499.278 287.443 499.315 286.844C499.526 283.472 500.476 280.208 501.425 276.947C501.72 275.935 502.014 274.923 502.286 273.908C504.796 264.557 505.436 254.734 504.16 245.15C501.961 247.891 501.029 251.369 500.148 254.74L494.923 274.748C492.561 283.793 489.543 293.736 481.353 298.595C480.7 298.982 479.944 299.342 479.2 299.17C478.276 298.957 477.753 298.028 477.368 297.184C472.141 285.73 471.488 272.368 475.574 260.483C475.822 259.762 475.068 259.009 474.289 258.949C473.509 258.889 472.78 259.302 472.141 259.741C465.435 264.344 462.866 272.682 460.733 280.392L457.897 290.643C457.483 292.141 457.066 293.652 456.979 295.2C456.848 297.553 457.48 299.856 458.108 302.146C458.254 302.677 458.399 303.207 458.535 303.737C461.263 314.388 460.031 325.955 455.115 335.835C454.391 337.292 456.304 338.617 457.864 339.179L479.297 346.899ZM489.891 249.061C488.773 248.312 487.575 247.457 487.229 246.179C486.699 244.221 488.616 242.253 490.681 241.989C492.745 241.726 494.765 242.695 496.476 243.85C498.886 245.476 501.936 242.996 503.74 240.747C501.306 239.33 498.984 237.131 498.888 234.374C498.792 231.616 502.239 228.989 504.533 230.612C505.423 231.242 506.499 231.627 507.564 232.009C509.16 232.579 510.728 233.141 511.603 234.5C512.599 236.046 512.245 238.136 511.232 239.671C510.218 241.206 508.659 242.307 507.136 243.372C509.322 243.583 511.45 244.341 513.258 245.553L515.229 239.966C515.382 239.533 515.548 239.08 515.898 238.774C516.574 238.184 517.625 238.367 518.49 238.634C520.759 239.334 522.985 240.428 524.483 242.228C525.981 244.029 526.605 246.644 525.558 248.725C524.512 250.805 521.558 251.915 519.556 250.66C519.141 250.4 518.724 250.052 518.306 249.704C517.191 248.774 516.075 247.844 514.998 248.589C518.287 251.08 520.545 254.822 521.179 258.83C531.532 243.489 541.773 228.077 551.902 212.596C552.869 211.119 553.649 208.789 552.075 207.94C545.348 204.309 539.402 199.447 533.47 194.597C525.983 188.474 518.518 182.37 509.534 178.786C508.964 178.558 508.34 178.338 507.744 178.491C507.12 178.651 506.68 179.18 506.288 179.678C489.557 200.921 474.542 223.442 461.427 246.965C459.597 250.247 462.046 254.159 464.389 257.116C465.559 258.593 467.819 260.154 469.095 258.762C470.704 257.008 473.342 256.005 475.621 256.788C477.899 257.571 479.317 260.454 478.078 262.473C477.182 263.932 478.936 265.555 480.469 266.372C483.532 268.004 486.674 269.496 489.881 270.841C490.327 271.028 490.846 271.212 491.28 271C491.693 270.799 491.861 270.32 491.99 269.888L495.543 257.996C496.127 256.04 496.518 253.502 494.794 252.346L489.891 249.061ZM553.446 215.725C552.974 215.567 552.543 216.027 552.266 216.43L525.664 255.168C524.949 256.21 524.216 257.294 524.007 258.53C523.798 259.767 524.265 261.205 525.422 261.755C527.338 262.667 529.342 260.751 530.572 259.056L555.288 224.978C557.123 222.448 555.57 218.989 553.999 216.295C553.863 216.063 553.706 215.812 553.446 215.725ZM478.549 267.453C478.081 267.121 477.38 267.319 476.988 267.734C476.596 268.149 476.436 268.717 476.288 269.262C475.925 270.604 475.559 271.958 475.506 273.344C475.451 274.731 475.711 276.108 475.969 277.473L478.516 290.943C478.623 291.508 478.748 292.108 479.159 292.52C479.571 292.931 480.373 293.02 480.706 292.546C484.477 287.182 488.3 281.713 490.273 275.504C490.518 274.732 490.589 273.647 489.812 273.363C485.807 271.897 482.007 269.903 478.549 267.453ZM507.967 234.217C506.69 233.033 505.002 232.278 503.248 232.104C501.649 231.945 500.726 234.13 501.456 235.524C502.186 236.917 503.799 237.607 505.291 238.189C506.344 238.6 507.622 238.987 508.54 238.338C509.86 237.406 509.148 235.311 507.967 234.217ZM497.465 249.826C497.985 249.466 498.053 248.729 497.907 248.124C497.358 245.844 494.788 244.679 492.481 244.011C491.588 243.753 490.478 243.573 489.849 244.241C489.324 244.799 489.435 245.722 489.889 246.337C490.342 246.952 491.05 247.331 491.735 247.689L495.299 249.557C495.976 249.912 496.838 250.26 497.465 249.826ZM517.743 241.608C516.989 242.591 517.066 244.02 517.695 245.083C518.325 246.146 519.415 246.884 520.566 247.387C520.96 247.559 521.393 247.711 521.817 247.629C522.181 247.558 522.493 247.319 522.716 247.029C523.54 245.959 523.14 244.347 522.197 243.375C521.253 242.403 519.911 241.916 518.62 241.46C518.397 241.381 518.137 241.305 517.934 241.424C517.899 241.444 517.869 241.469 517.84 241.496C517.805 241.531 517.773 241.569 517.743 241.608ZM160.314 330.703C160.808 327.155 161.499 323.251 164.365 321.004C166.649 319.213 169.786 318.927 172.719 318.872C182.331 318.692 191.973 320.211 201.035 323.331C203.901 324.318 206.902 325.618 208.469 328.153C210.166 330.898 209.752 334.359 209.283 337.529L202.005 386.718C207.023 372.473 210.627 357.756 212.748 342.839C213.737 335.88 214.082 327.895 209.089 322.819C201.296 314.896 201.508 303.609 201.725 292.133C201.911 282.229 202.1 272.183 197.148 264.037C195.532 261.378 199.134 258.634 202.131 257.614C215.337 253.115 229.416 251.051 243.399 251.563C245.962 271.264 246.656 291.194 245.467 311.018C245.201 315.463 251.682 316.611 256.232 316.12L414.079 299.092C414.868 299.007 415.723 298.893 416.282 298.345C416.936 297.705 416.969 296.699 416.959 295.796C416.587 259.819 415.523 223.847 413.767 187.908C413.698 186.506 413.515 184.895 412.322 184.105C411.427 183.513 410.249 183.592 409.172 183.693L296.507 194.318C303.909 160.359 311.352 125.763 307.976 91.205C283.347 107.18 251.567 107.06 222.016 105.368C220.788 105.298 219.558 105.226 218.324 105.155C189.887 103.501 160.231 101.777 134.666 113.744C148.052 148.272 161.591 185.959 150.464 221.237C149.48 224.358 148.308 227.424 147.138 230.488C145.332 235.213 143.529 239.934 142.413 244.849C140.574 252.952 140.85 262.025 145.78 268.797C152.918 278.604 158.59 289.754 159.884 301.704C161.112 313.044 158.368 324.291 155.628 335.525C152.765 347.263 149.905 358.986 151.582 370.789C151.866 372.785 152.378 374.933 153.985 376.205L160.314 330.703ZM171.482 188.201C174.467 188.304 175.654 191.949 176.035 194.831L179.058 217.651C173.157 214.675 164.855 219.727 165.025 226.191C160.052 216.854 159.297 206.154 158.549 195.562C158.387 193.258 158.224 190.959 158.019 188.68C155.824 164.311 148.274 140.741 140.771 117.393C139.702 114.063 144.323 111.905 147.87 111.399C171.151 108.078 194.713 108.537 218.286 108.995C228.971 109.203 239.659 109.411 250.323 109.267C269.272 109.011 289.323 107.267 304.693 96.4831C308.148 118.889 303.453 141.494 298.816 163.815C298.189 166.834 297.563 169.848 296.958 172.856C291.883 198.099 288.429 225.005 298.139 248.929C298.548 249.937 297.153 250.697 296.063 250.918C288.076 252.539 279.819 252.888 271.719 251.947C268.244 251.544 264.806 250.906 261.367 250.269C258.777 249.788 256.187 249.308 253.581 248.928C233.96 246.064 213.48 249.036 195.573 257.347C194.855 257.681 194.002 257.525 193.25 257.272C189.623 256.05 187.036 252.791 185.745 249.275C184.455 245.759 184.27 241.964 184.098 238.234L183.375 222.592C183.349 222.03 183.501 221.267 184.079 221.249C215.447 220.296 246.78 218.239 277.996 215.083C276.676 207.898 276.545 200.507 277.61 193.283C278.282 188.722 273.873 184.563 269.178 183.953C264.484 183.343 259.841 185.411 255.943 188.029C254.485 189.008 253.084 190.071 251.685 191.134C249.344 192.912 247.005 194.689 244.4 196.066C242.695 196.967 240.645 197.694 238.855 196.966C236.664 196.075 235.929 193.54 235.274 191.277C235.233 191.134 235.192 190.993 235.151 190.853C234.296 187.938 232.886 185.038 230.404 183.204C227.923 181.371 224.179 180.915 221.73 182.788C219.636 184.39 218.974 187.164 218.623 189.733C218.592 189.962 218.561 190.191 218.531 190.422C218.22 192.784 217.899 195.225 216.45 197.119C214.859 199.198 211.31 200.089 209.566 198.13C206.116 194.257 200.063 193.445 194.983 194.804C189.904 196.163 185.557 199.303 181.343 202.378C178.8 198.508 178.59 193.296 180.813 189.244L180.85 189.176C181.268 188.415 181.748 187.542 181.378 186.767C181.149 186.287 180.645 185.993 180.145 185.784C177.156 184.537 173.337 185.603 171.482 188.201ZM261.3 253.615C262.971 253.939 265.025 254.664 265.128 256.318C266.114 272.1 279.006 286.281 294.857 289.774C310.707 293.267 328.274 286.204 337.516 273.199C346.758 260.194 347.482 242.127 339.903 228.141C331.776 213.141 312.025 205.176 295.372 210.182C294.599 206.867 294.686 203.366 295.623 200.092C295.797 199.484 296.023 198.848 296.528 198.451C297.021 198.063 297.687 197.975 298.316 197.902L345.226 192.405C349.35 191.922 353.484 191.438 357.638 191.405C375.501 191.261 393.349 189.529 410.889 186.235C413.614 221.836 414.897 257.542 414.732 293.241C414.724 294.934 414.194 297.185 412.454 297.234C382.932 298.071 353.641 301.849 324.34 305.628C304.653 308.167 284.961 310.707 265.19 312.356C260.784 312.724 256.347 313.047 251.944 312.639C251.146 312.565 250.246 312.406 249.812 311.75C249.55 311.355 249.521 310.86 249.499 310.39L246.867 253.29C246.833 252.552 246.879 251.662 247.535 251.292C247.971 251.046 248.515 251.135 249.009 251.23L261.3 253.615ZM180.529 240.395C180.062 243.36 179.537 246.697 181.535 248.941C188.984 257.31 196.723 266.252 198.703 277.155C199.628 282.246 199.231 287.485 198.835 292.703C198.337 299.277 197.841 305.816 199.993 311.983C200.049 312.143 200.107 312.304 200.165 312.466C200.56 313.565 200.963 314.686 200.835 315.834C200.688 317.15 199.514 318.474 198.172 318.249L182.599 315.636C177.441 314.771 171.993 313.929 167.094 315.72C166.147 316.066 165.056 315.459 164.549 314.607C164.041 313.756 163.974 312.731 163.93 311.747C163.877 310.56 163.837 309.364 163.797 308.165C163.546 300.623 163.29 292.94 159.701 286.331L148.252 265.247C146.561 262.134 144.832 258.883 144.715 255.364C144.637 253.015 145.289 250.707 145.936 248.442L151.647 228.426C152.85 224.213 154.122 219.865 156.97 216.481C163.888 227.899 164.571 242.671 158.734 254.647C158.194 255.755 159.843 256.896 161.019 256.454C162.195 256.012 162.792 254.759 163.206 253.601C164.867 248.963 165.449 244.074 166.032 239.177C166.504 235.216 166.976 231.249 168.02 227.408C168.66 225.054 169.583 222.652 171.451 221.032C173.319 219.413 176.366 218.858 178.323 220.374C179.821 221.535 180.308 223.518 180.593 225.36C181.345 230.221 181.341 235.191 180.583 240.05C180.565 240.164 180.547 240.279 180.529 240.395ZM207.4 200.88C209.696 202.59 211.944 204.264 214.699 203.954C218.2 203.56 220.381 200.053 221.398 196.771C221.62 196.052 221.818 195.317 222.017 194.58C222.725 191.95 223.439 189.299 225.294 187.32C225.833 186.745 226.609 186.21 227.375 186.435C227.995 186.618 228.357 187.229 228.645 187.794C229.053 188.594 229.439 189.408 229.825 190.222C230.915 192.518 232.005 194.815 233.588 196.81C235.731 199.512 239.066 201.638 242.553 201.266C245.672 200.933 248.109 198.785 250.484 196.691C250.971 196.262 251.455 195.835 251.942 195.426C257.663 190.627 265.113 187.819 272.664 187.617C271.646 190.093 272.325 192.794 272.992 195.445C273.152 196.083 273.312 196.718 273.447 197.347C274.513 202.304 273.974 207.577 271.925 212.233L221.491 216.01C209.717 216.892 197.914 217.775 186.112 217.371C185.367 217.345 184.602 217.311 183.917 217.025C182.621 216.486 181.852 215.141 181.573 213.797C180.948 210.785 182.376 207.648 184.538 205.407C186.7 203.167 189.525 201.658 192.298 200.186C195.184 198.655 198.389 197.073 201.607 197.727C203.749 198.162 205.589 199.532 207.4 200.88ZM302.904 272.35C295.263 272.197 288.643 266.133 286.375 259.034C285.911 257.584 286.875 255.994 288.203 255.198C289.532 254.403 291.14 254.215 292.69 254.045L303.885 252.822C300.481 246.384 298.056 239.458 296.714 232.337C296.592 231.691 296.482 231.012 296.691 230.388C297.06 229.292 298.274 228.715 299.397 228.348C308.493 225.374 319.415 228.985 324.764 236.735C330.112 244.485 329.411 255.687 323.133 262.747C320.415 265.804 316.854 268.06 313.102 269.796C309.903 271.276 306.446 272.421 302.904 272.35ZM339.16 234.088C340.52 238.455 340.912 243.049 341.099 247.608C338.046 247.159 334.963 246.903 331.876 246.845C331.272 239.176 326.025 232.247 319.127 228.488C312.229 224.729 303.903 223.917 296.108 225.204C296.042 224.123 295.839 222.995 295.637 221.867C295.102 218.89 294.567 215.913 296.546 213.8C297.741 212.523 299.562 212.013 301.306 211.697C309.253 210.256 317.727 211.765 324.634 215.851C331.541 219.937 336.818 226.561 339.16 234.088ZM283.124 258.26C283.111 258.402 283.099 258.541 283.092 258.674C283.041 259.734 283.548 260.706 284.051 261.668C284.186 261.926 284.32 262.183 284.443 262.441C285.026 263.661 285.308 265.269 284.334 266.225C281.979 268.537 279.898 271.114 278.145 273.887C277.711 274.573 276.645 274.629 275.932 274.22C275.219 273.811 274.776 273.081 274.364 272.383C271.759 267.963 269.088 263.34 268.763 258.254C268.722 257.622 268.794 256.857 269.37 256.562C269.624 256.432 269.924 256.428 270.211 256.427L281.865 256.393C282.143 256.392 282.436 256.395 282.679 256.529C283.25 256.845 283.185 257.579 283.124 258.26Z" fill="#FC5185"/>
</svg>