<svg width="1222" height="765" viewBox="0 0 1222 765" fill="none" xmlns="http://www.w3.org/2000/svg">
<path d="M1026.02 87.3996C1026.02 90.6138 1023.19 93.2194 1019.69 93.2194C1016.2 93.2194 1013.36 90.6138 1013.36 87.3996C1013.36 84.1854 1016.2 81.5798 1019.69 81.5798C1023.19 81.5798 1026.02 84.1854 1026.02 87.3996Z" fill="#3FC1C9" fill-opacity="0.45"/>
<path d="M1013.36 116.499C1013.36 119.713 1010.53 122.318 1007.04 122.318C1003.54 122.318 1000.71 119.713 1000.71 116.499C1000.71 113.284 1003.54 110.679 1007.04 110.679C1010.53 110.679 1013.36 113.284 1013.36 116.499Z" fill="#3FC1C9" fill-opacity="0.45"/>
<path d="M1045 116.499C1045 119.713 1042.17 122.318 1038.67 122.318C1035.18 122.318 1032.35 119.713 1032.35 116.499C1032.35 113.284 1035.18 110.679 1038.67 110.679C1042.17 110.679 1045 113.284 1045 116.499Z" fill="#3FC1C9" fill-opacity="0.45"/>
<path d="M1026.02 145.597C1026.02 148.812 1023.19 151.417 1019.69 151.417C1016.2 151.417 1013.36 148.812 1013.36 145.597C1013.36 142.383 1016.2 139.778 1019.69 139.778C1023.19 139.778 1026.02 142.383 1026.02 145.597Z" fill="#3FC1C9" fill-opacity="0.45"/>
<path d="M1013.36 174.696C1013.36 177.911 1010.53 180.516 1007.04 180.516C1003.54 180.516 1000.71 177.911 1000.71 174.696C1000.71 171.482 1003.54 168.877 1007.04 168.877C1010.53 168.877 1013.36 171.482 1013.36 174.696Z" fill="#3FC1C9" fill-opacity="0.45"/>
<path d="M1045 174.696C1045 177.911 1042.17 180.516 1038.67 180.516C1035.18 180.516 1032.35 177.911 1032.35 174.696C1032.35 171.482 1035.18 168.877 1038.67 168.877C1042.17 168.877 1045 171.482 1045 174.696Z" fill="#3FC1C9" fill-opacity="0.45"/>
<path d="M1026.02 203.795C1026.02 207.009 1023.19 209.615 1019.69 209.615C1016.2 209.615 1013.36 207.009 1013.36 203.795C1013.36 200.581 1016.2 197.976 1019.69 197.976C1023.19 197.976 1026.02 200.581 1026.02 203.795Z" fill="#3FC1C9" fill-opacity="0.45"/>
<path d="M1013.36 232.894C1013.36 236.108 1010.53 238.714 1007.04 238.714C1003.54 238.714 1000.71 236.108 1000.71 232.894C1000.71 229.68 1003.54 227.074 1007.04 227.074C1010.53 227.074 1013.36 229.68 1013.36 232.894Z" fill="#3FC1C9" fill-opacity="0.45"/>
<path d="M1045 232.894C1045 236.108 1042.17 238.714 1038.67 238.714C1035.18 238.714 1032.35 236.108 1032.35 232.894C1032.35 229.68 1035.18 227.074 1038.67 227.074C1042.17 227.074 1045 229.68 1045 232.894Z" fill="#3FC1C9" fill-opacity="0.45"/>
<path d="M1026.02 261.993C1026.02 265.207 1023.19 267.813 1019.69 267.813C1016.2 267.813 1013.36 265.207 1013.36 261.993C1013.36 258.779 1016.2 256.173 1019.69 256.173C1023.19 256.173 1026.02 258.779 1026.02 261.993Z" fill="#3FC1C9" fill-opacity="0.45"/>
<path d="M1013.36 291.092C1013.36 294.306 1010.53 296.912 1007.04 296.912C1003.54 296.912 1000.71 294.306 1000.71 291.092C1000.71 287.878 1003.54 285.272 1007.04 285.272C1010.53 285.272 1013.36 287.878 1013.36 291.092Z" fill="#3FC1C9" fill-opacity="0.45"/>
<path d="M1045 291.092C1045 294.306 1042.17 296.912 1038.67 296.912C1035.18 296.912 1032.35 294.306 1032.35 291.092C1032.35 287.878 1035.18 285.272 1038.67 285.272C1042.17 285.272 1045 287.878 1045 291.092Z" fill="#3FC1C9" fill-opacity="0.45"/>
<path d="M1026.02 320.191C1026.02 323.405 1023.19 326.011 1019.69 326.011C1016.2 326.011 1013.36 323.405 1013.36 320.191C1013.36 316.977 1016.2 314.371 1019.69 314.371C1023.19 314.371 1026.02 316.977 1026.02 320.191Z" fill="#3FC1C9" fill-opacity="0.45"/>
<path d="M1013.36 349.29C1013.36 352.504 1010.53 355.11 1007.04 355.11C1003.54 355.11 1000.71 352.504 1000.71 349.29C1000.71 346.076 1003.54 343.47 1007.04 343.47C1010.53 343.47 1013.36 346.076 1013.36 349.29Z" fill="#3FC1C9" fill-opacity="0.45"/>
<path d="M1045 349.29C1045 352.504 1042.17 355.11 1038.67 355.11C1035.18 355.11 1032.35 352.504 1032.35 349.29C1032.35 346.076 1035.18 343.47 1038.67 343.47C1042.17 343.47 1045 346.076 1045 349.29Z" fill="#3FC1C9" fill-opacity="0.45"/>
<path d="M1026.02 378.389C1026.02 381.603 1023.19 384.209 1019.69 384.209C1016.2 384.209 1013.36 381.603 1013.36 378.389C1013.36 375.175 1016.2 372.569 1019.69 372.569C1023.19 372.569 1026.02 375.175 1026.02 378.389Z" fill="#3FC1C9" fill-opacity="0.45"/>
<path d="M1013.36 407.488C1013.36 410.702 1010.53 413.308 1007.04 413.308C1003.54 413.308 1000.71 410.702 1000.71 407.488C1000.71 404.274 1003.54 401.668 1007.04 401.668C1010.53 401.668 1013.36 404.274 1013.36 407.488Z" fill="#3FC1C9" fill-opacity="0.45"/>
<path d="M1045 407.488C1045 410.702 1042.17 413.308 1038.67 413.308C1035.18 413.308 1032.35 410.702 1032.35 407.488C1032.35 404.274 1035.18 401.668 1038.67 401.668C1042.17 401.668 1045 404.274 1045 407.488Z" fill="#3FC1C9" fill-opacity="0.45"/>
<path d="M1026.02 436.587C1026.02 439.801 1023.19 442.406 1019.69 442.406C1016.2 442.406 1013.36 439.801 1013.36 436.587C1013.36 433.373 1016.2 430.767 1019.69 430.767C1023.19 430.767 1026.02 433.373 1026.02 436.587Z" fill="#3FC1C9" fill-opacity="0.45"/>
<path d="M1013.36 465.686C1013.36 468.9 1010.53 471.505 1007.04 471.505C1003.54 471.505 1000.71 468.9 1000.71 465.686C1000.71 462.471 1003.54 459.866 1007.04 459.866C1010.53 459.866 1013.36 462.471 1013.36 465.686Z" fill="#3FC1C9" fill-opacity="0.45"/>
<path d="M1045 465.686C1045 468.9 1042.17 471.505 1038.67 471.505C1035.18 471.505 1032.35 468.9 1032.35 465.686C1032.35 462.471 1035.18 459.866 1038.67 459.866C1042.17 459.866 1045 462.471 1045 465.686Z" fill="#3FC1C9" fill-opacity="0.45"/>
<path d="M1026.02 494.785C1026.02 497.999 1023.19 500.604 1019.69 500.604C1016.2 500.604 1013.36 497.999 1013.36 494.785C1013.36 491.57 1016.2 488.965 1019.69 488.965C1023.19 488.965 1026.02 491.57 1026.02 494.785Z" fill="#3FC1C9" fill-opacity="0.45"/>
<path d="M1013.36 523.883C1013.36 527.098 1010.53 529.703 1007.04 529.703C1003.54 529.703 1000.71 527.098 1000.71 523.883C1000.71 520.669 1003.54 518.064 1007.04 518.064C1010.53 518.064 1013.36 520.669 1013.36 523.883Z" fill="#3FC1C9" fill-opacity="0.45"/>
<path d="M1045 523.883C1045 527.098 1042.17 529.703 1038.67 529.703C1035.18 529.703 1032.35 527.098 1032.35 523.883C1032.35 520.669 1035.18 518.064 1038.67 518.064C1042.17 518.064 1045 520.669 1045 523.883Z" fill="#3FC1C9" fill-opacity="0.45"/>
<path d="M994.383 552.982C994.383 556.197 991.55 558.802 988.056 558.802C984.562 558.802 981.729 556.197 981.729 552.982C981.729 549.768 984.562 547.163 988.056 547.163C991.55 547.163 994.383 549.768 994.383 552.982Z" fill="#3FC1C9" fill-opacity="0.45"/>
<path d="M1026.02 552.982C1026.02 556.197 1023.19 558.802 1019.69 558.802C1016.2 558.802 1013.36 556.197 1013.36 552.982C1013.36 549.768 1016.2 547.163 1019.69 547.163C1023.19 547.163 1026.02 549.768 1026.02 552.982Z" fill="#3FC1C9" fill-opacity="0.45"/>
<path d="M443.925 582.081C443.925 585.295 441.093 587.901 437.598 587.901C434.104 587.901 431.271 585.295 431.271 582.081C431.271 578.867 434.104 576.261 437.598 576.261C441.093 576.261 443.925 578.867 443.925 582.081Z" fill="#3FC1C9" fill-opacity="0.45"/>
<path d="M475.561 582.081C475.561 585.295 472.728 587.901 469.234 587.901C465.739 587.901 462.907 585.295 462.907 582.081C462.907 578.867 465.739 576.261 469.234 576.261C472.728 576.261 475.561 578.867 475.561 582.081Z" fill="#3FC1C9" fill-opacity="0.45"/>
<path d="M507.196 582.081C507.196 585.295 504.364 587.901 500.869 587.901C497.375 587.901 494.542 585.295 494.542 582.081C494.542 578.867 497.375 576.261 500.869 576.261C504.364 576.261 507.196 578.867 507.196 582.081Z" fill="#3FC1C9" fill-opacity="0.45"/>
<path d="M538.832 582.081C538.832 585.295 535.999 587.901 532.505 587.901C529.01 587.901 526.178 585.295 526.178 582.081C526.178 578.867 529.01 576.261 532.505 576.261C535.999 576.261 538.832 578.867 538.832 582.081Z" fill="#3FC1C9" fill-opacity="0.45"/>
<path d="M570.467 582.081C570.467 585.295 567.635 587.901 564.14 587.901C560.646 587.901 557.813 585.295 557.813 582.081C557.813 578.867 560.646 576.261 564.14 576.261C567.635 576.261 570.467 578.867 570.467 582.081Z" fill="#3FC1C9" fill-opacity="0.45"/>
<path d="M602.103 582.081C602.103 585.295 599.27 587.901 595.776 587.901C592.281 587.901 589.449 585.295 589.449 582.081C589.449 578.867 592.281 576.261 595.776 576.261C599.27 576.261 602.103 578.867 602.103 582.081Z" fill="#3FC1C9" fill-opacity="0.45"/>
<path d="M633.738 582.081C633.738 585.295 630.906 587.901 627.411 587.901C623.917 587.901 621.084 585.295 621.084 582.081C621.084 578.867 623.917 576.261 627.411 576.261C630.906 576.261 633.738 578.867 633.738 582.081Z" fill="#3FC1C9" fill-opacity="0.45"/>
<path d="M665.374 582.081C665.374 585.295 662.541 587.901 659.047 587.901C655.552 587.901 652.72 585.295 652.72 582.081C652.72 578.867 655.552 576.261 659.047 576.261C662.541 576.261 665.374 578.867 665.374 582.081Z" fill="#3FC1C9" fill-opacity="0.45"/>
<path d="M697.009 582.081C697.009 585.295 694.177 587.901 690.682 587.901C687.188 587.901 684.355 585.295 684.355 582.081C684.355 578.867 687.188 576.261 690.682 576.261C694.177 576.261 697.009 578.867 697.009 582.081Z" fill="#3FC1C9" fill-opacity="0.45"/>
<path d="M728.645 582.081C728.645 585.295 725.812 587.901 722.318 587.901C718.823 587.901 715.991 585.295 715.991 582.081C715.991 578.867 718.823 576.261 722.318 576.261C725.812 576.261 728.645 578.867 728.645 582.081Z" fill="#3FC1C9" fill-opacity="0.45"/>
<path d="M760.28 582.081C760.28 585.295 757.448 587.901 753.953 587.901C750.459 587.901 747.626 585.295 747.626 582.081C747.626 578.867 750.459 576.261 753.953 576.261C757.448 576.261 760.28 578.867 760.28 582.081Z" fill="#3FC1C9" fill-opacity="0.45"/>
<path d="M791.916 582.081C791.916 585.295 789.083 587.901 785.589 587.901C782.094 587.901 779.262 585.295 779.262 582.081C779.262 578.867 782.094 576.261 785.589 576.261C789.083 576.261 791.916 578.867 791.916 582.081Z" fill="#3FC1C9" fill-opacity="0.45"/>
<path d="M823.551 582.081C823.551 585.295 820.719 587.901 817.224 587.901C813.73 587.901 810.897 585.295 810.897 582.081C810.897 578.867 813.73 576.261 817.224 576.261C820.719 576.261 823.551 578.867 823.551 582.081Z" fill="#3FC1C9" fill-opacity="0.45"/>
<path d="M855.187 582.081C855.187 585.295 852.354 587.901 848.86 587.901C845.366 587.901 842.533 585.295 842.533 582.081C842.533 578.867 845.366 576.261 848.86 576.261C852.354 576.261 855.187 578.867 855.187 582.081Z" fill="#3FC1C9" fill-opacity="0.45"/>
<path d="M886.822 582.081C886.822 585.295 883.99 587.901 880.495 587.901C877.001 587.901 874.168 585.295 874.168 582.081C874.168 578.867 877.001 576.261 880.495 576.261C883.99 576.261 886.822 578.867 886.822 582.081Z" fill="#3FC1C9" fill-opacity="0.45"/>
<path d="M918.458 582.081C918.458 585.295 915.625 587.901 912.131 587.901C908.637 587.901 905.804 585.295 905.804 582.081C905.804 578.867 908.637 576.261 912.131 576.261C915.625 576.261 918.458 578.867 918.458 582.081Z" fill="#3FC1C9" fill-opacity="0.45"/>
<path d="M950.094 582.081C950.094 585.295 947.261 587.901 943.766 587.901C940.272 587.901 937.439 585.295 937.439 582.081C937.439 578.867 940.272 576.261 943.766 576.261C947.261 576.261 950.094 578.867 950.094 582.081Z" fill="#3FC1C9" fill-opacity="0.45"/>
<path d="M981.729 582.081C981.729 585.295 978.896 587.901 975.402 587.901C971.908 587.901 969.075 585.295 969.075 582.081C969.075 578.867 971.908 576.261 975.402 576.261C978.896 576.261 981.729 578.867 981.729 582.081Z" fill="#3FC1C9" fill-opacity="0.45"/>
<path d="M1013.36 582.081C1013.36 585.295 1010.53 587.901 1007.04 587.901C1003.54 587.901 1000.71 585.295 1000.71 582.081C1000.71 578.867 1003.54 576.261 1007.04 576.261C1010.53 576.261 1013.36 578.867 1013.36 582.081Z" fill="#3FC1C9" fill-opacity="0.45"/>
<path d="M456.58 611.18C456.58 614.394 453.747 617 450.252 617C446.758 617 443.925 614.394 443.925 611.18C443.925 607.966 446.758 605.36 450.252 605.36C453.747 605.36 456.58 607.966 456.58 611.18Z" fill="#3FC1C9" fill-opacity="0.45"/>
<path d="M488.215 611.18C488.215 614.394 485.382 617 481.888 617C478.394 617 475.561 614.394 475.561 611.18C475.561 607.966 478.394 605.36 481.888 605.36C485.382 605.36 488.215 607.966 488.215 611.18Z" fill="#3FC1C9" fill-opacity="0.45"/>
<path d="M519.851 611.18C519.851 614.394 517.018 617 513.523 617C510.029 617 507.196 614.394 507.196 611.18C507.196 607.966 510.029 605.36 513.523 605.36C517.018 605.36 519.851 607.966 519.851 611.18Z" fill="#3FC1C9" fill-opacity="0.45"/>
<path d="M551.486 611.18C551.486 614.394 548.653 617 545.159 617C541.665 617 538.832 614.394 538.832 611.18C538.832 607.966 541.665 605.36 545.159 605.36C548.653 605.36 551.486 607.966 551.486 611.18Z" fill="#3FC1C9" fill-opacity="0.45"/>
<path d="M583.122 611.18C583.122 614.394 580.289 617 576.795 617C573.3 617 570.467 614.394 570.467 611.18C570.467 607.966 573.3 605.36 576.795 605.36C580.289 605.36 583.122 607.966 583.122 611.18Z" fill="#3FC1C9" fill-opacity="0.45"/>
<path d="M614.757 611.18C614.757 614.394 611.924 617 608.43 617C604.936 617 602.103 614.394 602.103 611.18C602.103 607.966 604.936 605.36 608.43 605.36C611.924 605.36 614.757 607.966 614.757 611.18Z" fill="#3FC1C9" fill-opacity="0.45"/>
<path d="M646.393 611.18C646.393 614.394 643.56 617 640.066 617C636.571 617 633.738 614.394 633.738 611.18C633.738 607.966 636.571 605.36 640.066 605.36C643.56 605.36 646.393 607.966 646.393 611.18Z" fill="#3FC1C9" fill-opacity="0.45"/>
<path d="M678.028 611.18C678.028 614.394 675.195 617 671.701 617C668.207 617 665.374 614.394 665.374 611.18C665.374 607.966 668.207 605.36 671.701 605.36C675.195 605.36 678.028 607.966 678.028 611.18Z" fill="#3FC1C9" fill-opacity="0.45"/>
<path d="M709.664 611.18C709.664 614.394 706.831 617 703.337 617C699.842 617 697.009 614.394 697.009 611.18C697.009 607.966 699.842 605.36 703.337 605.36C706.831 605.36 709.664 607.966 709.664 611.18Z" fill="#3FC1C9" fill-opacity="0.45"/>
<path d="M741.299 611.18C741.299 614.394 738.466 617 734.972 617C731.478 617 728.645 614.394 728.645 611.18C728.645 607.966 731.478 605.36 734.972 605.36C738.466 605.36 741.299 607.966 741.299 611.18Z" fill="#3FC1C9" fill-opacity="0.45"/>
<path d="M772.935 611.18C772.935 614.394 770.102 617 766.608 617C763.113 617 760.28 614.394 760.28 611.18C760.28 607.966 763.113 605.36 766.608 605.36C770.102 605.36 772.935 607.966 772.935 611.18Z" fill="#3FC1C9" fill-opacity="0.45"/>
<path d="M804.57 611.18C804.57 614.394 801.737 617 798.243 617C794.749 617 791.916 614.394 791.916 611.18C791.916 607.966 794.749 605.36 798.243 605.36C801.737 605.36 804.57 607.966 804.57 611.18Z" fill="#3FC1C9" fill-opacity="0.45"/>
<path d="M836.206 611.18C836.206 614.394 833.373 617 829.879 617C826.384 617 823.551 614.394 823.551 611.18C823.551 607.966 826.384 605.36 829.879 605.36C833.373 605.36 836.206 607.966 836.206 611.18Z" fill="#3FC1C9" fill-opacity="0.45"/>
<path d="M867.841 611.18C867.841 614.394 865.008 617 861.514 617C858.02 617 855.187 614.394 855.187 611.18C855.187 607.966 858.02 605.36 861.514 605.36C865.008 605.36 867.841 607.966 867.841 611.18Z" fill="#3FC1C9" fill-opacity="0.45"/>
<path d="M899.477 611.18C899.477 614.394 896.644 617 893.15 617C889.655 617 886.822 614.394 886.822 611.18C886.822 607.966 889.655 605.36 893.15 605.36C896.644 605.36 899.477 607.966 899.477 611.18Z" fill="#3FC1C9" fill-opacity="0.45"/>
<path d="M931.112 611.18C931.112 614.394 928.279 617 924.785 617C921.291 617 918.458 614.394 918.458 611.18C918.458 607.966 921.291 605.36 924.785 605.36C928.279 605.36 931.112 607.966 931.112 611.18Z" fill="#3FC1C9" fill-opacity="0.45"/>
<path d="M962.748 611.18C962.748 614.394 959.915 617 956.421 617C952.926 617 950.094 614.394 950.094 611.18C950.094 607.966 952.926 605.36 956.421 605.36C959.915 605.36 962.748 607.966 962.748 611.18Z" fill="#3FC1C9" fill-opacity="0.45"/>
<path d="M994.383 611.18C994.383 614.394 991.55 617 988.056 617C984.562 617 981.729 614.394 981.729 611.18C981.729 607.966 984.562 605.36 988.056 605.36C991.55 605.36 994.383 607.966 994.383 611.18Z" fill="#3FC1C9" fill-opacity="0.45"/>
<rect x="362" y="48.583" width="632.758" height="523.413" rx="8" fill="white"/>
<path d="M864.369 295.333L744.255 406.433V388.824L845.331 295.333H864.369Z" fill="#3FC1C9"/>
<path d="M823.984 295.333L744.255 369.078V351.469L804.946 295.333H823.984Z" fill="#3FC1C9"/>
<path d="M783.598 295.333L744.255 331.723V314.114L764.56 295.333H783.598Z" fill="#3FC1C9"/>
<path d="M744.255 426.179L867.847 311.862V329.471L760.6 428.669H744.255V426.179Z" fill="#3FC1C9"/>
<path d="M781.948 428.669L867.847 349.217V366.826L800.986 428.669H781.948Z" fill="#3FC1C9"/>
<path d="M822.334 428.669L867.847 386.572V404.181L841.372 428.669H822.334Z" fill="#3FC1C9"/>
<path fill-rule="evenodd" clip-rule="evenodd" d="M482.965 453.572V444.234C513.129 444.234 551.256 443.11 577.198 427.113H597.391C566.129 449.603 521.3 453.572 482.965 453.572ZM611.961 472.743L614.219 483.145C575.513 501.046 525.836 517.628 481.975 509.514L483.955 500.357C525.507 508.043 575.361 489.669 611.961 472.743ZM611.961 528.775L614.219 539.177C584.849 552.76 550.204 568.75 516.62 568.75L513.254 560.968C545.163 560.968 584.085 541.667 611.961 528.775Z" fill="#3FC1C9"/>
<path d="M985.527 291.701L865.412 180.601V198.21L966.489 291.701H985.527Z" fill="#FCE38A"/>
<path d="M945.141 291.701L865.412 217.956V235.565L926.103 291.701H945.141Z" fill="#FCE38A"/>
<path d="M904.755 291.701L865.412 255.311V272.92L885.717 291.701H904.755Z" fill="#FCE38A"/>
<path d="M865.412 160.855L989.004 275.172V257.563L881.758 158.365H865.412V160.855Z" fill="#FCE38A"/>
<path d="M903.105 158.365L989.004 237.817V220.208L922.144 158.365H903.105Z" fill="#FCE38A"/>
<path d="M943.491 158.365L989.004 200.462V182.853L962.529 158.365H943.491Z" fill="#FCE38A"/>
<path d="M372.289 291.256H485.465L430.193 360.34L372.289 291.256Z" fill="#FC5185"/>
<path d="M372.289 424.489H485.465L430.193 355.405L372.289 424.489Z" fill="#FC5185"/>
<path d="M547.197 1L521.476 100.924" stroke="#17191C" stroke-width="4"/>
<path d="M650.085 1L619.219 100.924" stroke="#17191C" stroke-width="4"/>
<path d="M742.684 1L711.818 100.924" stroke="#17191C" stroke-width="4"/>
<path d="M835.283 1L804.416 100.924" stroke="#17191C" stroke-width="4"/>
<path d="M482.893 162.782V562.48" stroke="#D3D5D9"/>
<path d="M614.074 162.782V562.48" stroke="#D3D5D9"/>
<path d="M742.684 162.782V562.48" stroke="#D3D5D9"/>
<path d="M866.149 162.782V562.48" stroke="#D3D5D9"/>
<path d="M372.289 427.235L984.469 427.235" stroke="#D3D5D9"/>
<path d="M372.289 292.31L984.469 292.31" stroke="#D3D5D9"/>
<path d="M547.198 172.299C556.406 208.33 567.493 220.586 598.641 227.019C569.141 235.764 558.181 248.152 547.198 281.74C538.993 249.931 528.487 237.269 495.754 227.019C527.659 220.312 537.644 206.743 547.198 172.299Z" fill="#3FC1C9"/>
<ellipse cx="678.379" cy="360.252" rx="48.8715" ry="45.2039" fill="#FFBD3E"/>
<rect x="768.406" y="457.797" width="72.0212" height="76.1328" fill="#FCE38A"/>
<rect x="363" y="49.583" width="630.758" height="521.413" rx="7" stroke="#3FC1C9" stroke-width="2"/>
<path d="M362 64.583C362 57.0405 362 53.2693 364.343 50.9262C366.686 48.583 370.458 48.583 378 48.583H978.758C986.301 48.583 990.072 48.583 992.415 50.9262C994.758 53.2693 994.758 57.0405 994.758 64.583V162.782H362V64.583Z" fill="#FC5185"/>
<path d="M520.326 48.583L507.631 97.9006L535.321 103.948L549.573 48.583H520.326Z" fill="white"/>
<path d="M620.593 48.583L605.533 97.3377L632.905 104.511L650.181 48.583H620.593Z" fill="white"/>
<path d="M713.192 48.583L698.132 97.3377L725.504 104.511L742.78 48.583H713.192Z" fill="white"/>
<path d="M805.791 48.583L790.731 97.3377L818.103 104.511L835.379 48.583H805.791Z" fill="white"/>
<path d="M957.997 628.965L916.631 342.207L1195.31 471.647L1116.2 524.086L1200.92 634.256L1121.82 686.695L1037.1 576.525L957.997 628.965Z" fill="#FCE38A" stroke="black" stroke-width="2"/>
<path opacity="0.5" d="M958.659 389.114L985.698 565.909M1061.9 554.122L1128.27 646.056" stroke="#66A9FF" stroke-width="2"/>
<g clip-path="url(#clip0)">
<path d="M285.475 339.562C237.643 336.906 224.054 271.085 261.67 243.809C295.99 220.239 327.31 241.778 333.151 267.173C340.131 297.524 323.039 341.648 285.475 339.562Z" stroke="#19E59B" stroke-opacity="0.1" stroke-width="4" stroke-linecap="round" stroke-linejoin="round"/>
<path d="M325.742 299.77C323.426 297.23 322.661 293.699 323.042 290.295C324.18 280.152 321.088 269.563 313.644 261.4C299.986 246.422 276.848 245.283 261.964 258.856C247.08 272.429 246.087 295.573 259.745 310.551C267.189 318.714 277.449 322.766 287.654 322.567C291.078 322.5 294.524 323.586 296.84 326.126L298.201 327.619C301.943 331.722 308.282 332.034 312.36 328.316L326.496 315.425C330.573 311.707 330.845 305.366 327.103 301.263L325.742 299.77Z" fill="#FC5185"/>
<mask id="mask0" mask-type="alpha" maskUnits="userSpaceOnUse" x="235" y="234" width="112" height="113">
<path d="M325.742 299.77C323.426 297.23 322.661 293.699 323.042 290.295C324.18 280.152 321.088 269.563 313.644 261.4C299.986 246.422 276.848 245.283 261.964 258.856C247.08 272.429 246.087 295.573 259.745 310.551C267.189 318.714 277.449 322.766 287.654 322.567C291.078 322.5 294.524 323.586 296.84 326.126L298.201 327.619C301.943 331.722 308.282 332.034 312.36 328.316L326.496 315.425C330.573 311.707 330.845 305.366 327.103 301.263L325.742 299.77Z" fill="#1AE69B"/>
</mask>
<g mask="url(#mask0)">
<path fill-rule="evenodd" clip-rule="evenodd" d="M293.401 281.714C293.535 281.425 293.944 281.121 294.347 281.447C294.975 281.953 294.149 283.052 293.52 282.498C293.332 282.333 293.186 282.179 293.401 281.714Z" fill="#3FC1C9"/>
<path fill-rule="evenodd" clip-rule="evenodd" d="M289.242 285.805C289.8 286.246 289.781 286.66 289.185 287.048C288.255 287.111 288.323 285.656 289.242 285.805Z" fill="#3FC1C9"/>
<path fill-rule="evenodd" clip-rule="evenodd" d="M298.994 276.912C299.552 277.353 299.533 277.767 298.937 278.155C298.008 278.218 298.075 276.763 298.994 276.912Z" fill="#3FC1C9"/>
<path fill-rule="evenodd" clip-rule="evenodd" d="M284.433 290.488C284.752 290.788 284.678 291.07 284.316 291.339C284.214 291.299 284.112 291.259 284.005 291.325C283.366 290.931 283.987 290.174 284.433 290.488Z" fill="#3FC1C9"/>
<path fill-rule="evenodd" clip-rule="evenodd" d="M303.937 272.702C304.256 273.002 304.182 273.284 303.82 273.552C303.718 273.513 303.616 273.472 303.509 273.538C302.871 273.144 303.491 272.388 303.937 272.702Z" fill="#3FC1C9"/>
<path fill-rule="evenodd" clip-rule="evenodd" d="M292.956 286.287C293.686 284.717 295.467 286.81 294.068 287.506C293.43 287.824 292.629 286.993 292.956 286.287Z" fill="#3FC1C9"/>
<path fill-rule="evenodd" clip-rule="evenodd" d="M297.833 281.841C298.561 280.271 300.343 282.364 298.944 283.06C298.306 283.377 297.505 282.546 297.833 281.841Z" fill="#3FC1C9"/>
<path fill-rule="evenodd" clip-rule="evenodd" d="M288.073 290.889C288.125 290.423 288.83 290.157 289.115 290.237C290.257 290.879 289.384 292.072 288.571 291.924C288.242 291.572 287.82 291.215 288.073 290.889Z" fill="#3FC1C9"/>
<path fill-rule="evenodd" clip-rule="evenodd" d="M302.701 277.55C302.754 277.083 303.459 276.817 303.744 276.897C304.886 277.539 304.012 278.732 303.199 278.584C302.869 278.232 302.448 277.875 302.701 277.55Z" fill="#3FC1C9"/>
<path fill-rule="evenodd" clip-rule="evenodd" d="M283.434 295.269C283.568 294.979 283.977 294.675 284.38 295.001C285.009 295.507 284.183 296.606 283.553 296.053C283.365 295.887 283.219 295.733 283.434 295.269Z" fill="#3FC1C9"/>
<path fill-rule="evenodd" clip-rule="evenodd" d="M278.84 300.351C278.363 299.869 279.053 299.24 279.49 299.758C279.602 300.174 279.243 300.501 278.84 300.351Z" fill="#3FC1C9"/>
<path fill-rule="evenodd" clip-rule="evenodd" d="M292.675 290.712C292.993 290.252 293.665 289.935 294.243 290.473C295.337 291.491 293.679 293.119 292.692 292.036C292.457 291.778 292.217 291.374 292.675 290.712Z" fill="#3FC1C9"/>
<path fill-rule="evenodd" clip-rule="evenodd" d="M297.47 286.339C298.363 284.815 300.17 286.563 299.203 287.587C298.853 287.957 298.187 288.186 297.642 287.671C297.171 287.227 297.132 286.915 297.47 286.339Z" fill="#3FC1C9"/>
<path fill-rule="evenodd" clip-rule="evenodd" d="M302.427 281.819C302.745 281.359 303.417 281.041 303.995 281.58C305.089 282.598 303.431 284.226 302.444 283.143C302.209 282.885 301.969 282.481 302.427 281.819Z" fill="#3FC1C9"/>
<path fill-rule="evenodd" clip-rule="evenodd" d="M287.873 295.24C288.261 294.635 288.86 294.582 289.286 294.993C290.149 295.828 288.937 297.388 287.971 296.49C287.699 296.237 287.428 295.933 287.873 295.24Z" fill="#3FC1C9"/>
<path fill-rule="evenodd" clip-rule="evenodd" d="M283.869 299.337C284.929 299.676 284.603 301.025 283.635 301.039C282.576 300.7 282.902 299.351 283.869 299.337Z" fill="#3FC1C9"/>
<path fill-rule="evenodd" clip-rule="evenodd" d="M278.979 304.094C279.127 304.257 279.275 304.42 279.424 304.582C279.421 304.79 279.144 304.984 278.929 305.182C278.223 305.088 278.268 304.124 278.979 304.094Z" fill="#3FC1C9"/>
<path fill-rule="evenodd" clip-rule="evenodd" d="M292.305 295.366C292.767 294.632 293.513 294.487 294.109 295.06C295.345 296.246 293.558 297.898 292.47 296.853C292.149 296.544 291.84 296.103 292.305 295.366Z" fill="#3FC1C9"/>
<path fill-rule="evenodd" clip-rule="evenodd" d="M297.018 291.068C297.165 290.752 297.503 290.357 297.757 290.245C297.792 290.23 298.636 290.259 298.689 290.288C299.276 290.621 299.426 291.179 299.409 291.567C299.395 291.856 299.245 292.472 298.574 292.774C298.462 292.825 297.77 292.805 297.642 292.731C297.033 292.385 296.677 291.803 297.018 291.068Z" fill="#3FC1C9"/>
<path fill-rule="evenodd" clip-rule="evenodd" d="M301.894 286.621C302.041 286.306 302.379 285.911 302.633 285.799C302.666 285.784 303.516 285.815 303.564 285.842C304.152 286.175 304.302 286.733 304.284 287.121C304.271 287.41 304.12 288.026 303.45 288.328C303.344 288.376 302.608 288.337 302.518 288.285C301.909 287.939 301.553 287.357 301.894 286.621Z" fill="#3FC1C9"/>
<path fill-rule="evenodd" clip-rule="evenodd" d="M306.933 282.026C307.15 281.686 307.401 281.431 307.664 281.359C307.911 281.292 308.43 281.443 308.663 281.639C309.986 282.748 308.309 284.676 307.098 283.513C306.53 282.968 306.55 282.628 306.933 282.026Z" fill="#3FC1C9"/>
<path fill-rule="evenodd" clip-rule="evenodd" d="M287.503 299.894C287.795 299.397 288.596 299.055 289.152 299.581C289.627 300.03 289.552 300.808 289.236 301.141C288.504 301.915 286.776 301.13 287.503 299.894Z" fill="#3FC1C9"/>
<path fill-rule="evenodd" clip-rule="evenodd" d="M282.775 304.503C283.504 302.933 285.286 305.025 283.887 305.722C283.249 306.039 282.447 305.209 282.775 304.503Z" fill="#3FC1C9"/>
<path fill-rule="evenodd" clip-rule="evenodd" d="M278.845 308.682C279.404 309.123 279.385 309.537 278.788 309.925C277.859 309.988 277.926 308.533 278.845 308.682Z" fill="#3FC1C9"/>
<path fill-rule="evenodd" clip-rule="evenodd" d="M296.899 295.344C297.353 294.753 298.286 294.494 298.933 295.126C299.489 295.669 299.43 296.71 298.996 297.154C298.526 297.633 297.484 297.781 296.894 297.135C296.402 296.594 296.46 295.919 296.899 295.344Z" fill="#3FC1C9"/>
<path fill-rule="evenodd" clip-rule="evenodd" d="M301.694 290.972C302.945 289.183 305.175 291.387 303.872 292.707C303.307 293.278 302.433 293.415 301.77 292.688C301.263 292.132 301.226 291.641 301.694 290.972Z" fill="#3FC1C9"/>
<path fill-rule="evenodd" clip-rule="evenodd" d="M306.651 286.451C306.68 286.414 306.644 286.298 306.739 286.222C307.361 285.722 308.222 285.78 308.685 286.234C309.241 286.776 309.182 287.817 308.747 288.261C308.278 288.74 307.236 288.888 306.646 288.241C306.154 287.701 306.212 287.026 306.651 286.451Z" fill="#3FC1C9"/>
<path fill-rule="evenodd" clip-rule="evenodd" d="M292.016 299.946C292.436 299.309 293.395 299.01 294.05 299.728C294.547 300.274 294.444 301.11 294.045 301.519C293.616 301.959 292.747 302.217 292.1 301.507C291.649 301.013 291.598 300.58 292.016 299.946Z" fill="#3FC1C9"/>
<path fill-rule="evenodd" clip-rule="evenodd" d="M287.376 304.326C287.502 304.175 287.679 303.938 287.864 303.881C287.984 303.844 288.577 303.889 288.641 303.917C288.934 304.043 289.313 304.518 289.382 304.729C289.404 304.799 289.336 305.529 289.346 305.506C288.891 306.562 287.296 306.291 287.016 305.399C287.014 305.393 287.016 304.7 287.051 304.622C287.103 304.509 287.296 304.422 287.376 304.326Z" fill="#3FC1C9"/>
<path fill-rule="evenodd" clip-rule="evenodd" d="M282.649 308.935C282.856 308.663 283.255 308.479 283.447 308.504C283.811 308.554 284.382 309.25 284.329 309.635C284.28 310.001 283.701 310.585 283.199 310.517C282.901 310.477 282.315 309.916 282.309 309.542C282.306 309.34 282.496 309.134 282.649 308.935Z" fill="#3FC1C9"/>
<path fill-rule="evenodd" clip-rule="evenodd" d="M278.631 313.343C279.189 313.784 279.17 314.198 278.573 314.586C277.644 314.65 277.711 313.194 278.631 313.343Z" fill="#3FC1C9"/>
<path fill-rule="evenodd" clip-rule="evenodd" d="M296.691 299.85C296.964 299.541 297.433 299.261 297.808 299.279C298.561 299.313 299.317 300.324 299.29 300.904C299.258 301.593 298.387 302.419 297.665 302.386C297.398 302.374 296.751 302.066 296.524 301.789C296.392 301.627 296.184 301.063 296.175 300.916C296.155 300.561 296.405 300.173 296.691 299.85Z" fill="#3FC1C9"/>
<path fill-rule="evenodd" clip-rule="evenodd" d="M301.324 295.626C301.513 295.327 301.659 295.087 301.9 294.952C302.248 294.756 303.197 294.827 303.602 295.186C304.274 295.784 304.309 296.817 303.812 297.375C303.326 297.922 302.258 298.389 301.4 297.342C301.039 296.901 300.876 296.332 301.324 295.626Z" fill="#3FC1C9"/>
<path fill-rule="evenodd" clip-rule="evenodd" d="M306.2 291.179C306.389 290.881 306.535 290.641 306.776 290.505C307.124 290.309 308.073 290.38 308.477 290.74C309.15 291.337 309.184 292.37 308.688 292.929C308.202 293.476 307.133 293.942 306.276 292.896C305.915 292.455 305.752 291.885 306.2 291.179Z" fill="#3FC1C9"/>
<path fill-rule="evenodd" clip-rule="evenodd" d="M291.889 304.378C292.311 303.896 293.255 303.659 293.842 304.234C294.311 304.693 294.433 305.722 293.905 306.261C293.428 306.748 292.399 306.949 291.729 306.161C291.75 306.185 291.543 305.831 291.514 305.762C291.387 305.45 291.411 304.925 291.889 304.378Z" fill="#3FC1C9"/>
<path fill-rule="evenodd" clip-rule="evenodd" d="M286.999 309.135C287.462 308.401 288.207 308.256 288.804 308.829C290.039 310.015 288.252 311.667 287.164 310.622C286.843 310.313 286.535 309.872 286.999 309.135Z" fill="#3FC1C9"/>
<path fill-rule="evenodd" clip-rule="evenodd" d="M282.353 313.67C282.564 313.341 282.917 313.128 283.232 313.166C283.264 313.169 283.693 313.357 283.765 313.424C284.204 313.833 284.138 314.526 283.856 314.829C283.213 315.52 281.551 314.916 282.353 313.67Z" fill="#3FC1C9"/>
<path fill-rule="evenodd" clip-rule="evenodd" d="M278.416 318.004C278.974 318.445 278.955 318.859 278.359 319.247C277.43 319.31 277.497 317.856 278.416 318.004Z" fill="#3FC1C9"/>
<path fill-rule="evenodd" clip-rule="evenodd" d="M301.035 300.206C301.238 299.901 301.341 299.694 301.611 299.532C302.032 299.279 302.927 299.31 303.394 299.692C304.197 300.348 304.248 301.438 303.753 302.044C303.141 302.793 301.857 303.093 301.03 301.996C300.695 301.552 300.539 300.951 301.035 300.206Z" fill="#3FC1C9"/>
<path fill-rule="evenodd" clip-rule="evenodd" d="M305.83 295.833C306.059 295.455 306.319 295.147 306.568 295.011C306.805 294.882 307.781 294.854 308.122 295.083C309.474 295.988 308.992 297.639 307.978 298.191C307.739 298.321 306.719 298.315 306.425 298.119C305.625 297.585 305.299 296.708 305.83 295.833Z" fill="#3FC1C9"/>
<path fill-rule="evenodd" clip-rule="evenodd" d="M296.233 304.734C296.426 304.44 296.551 304.214 296.809 304.06C297.146 303.857 297.674 303.939 297.904 303.954C298.453 303.991 299.208 305.116 299.149 305.647C299.139 305.742 299.067 305.786 299.061 305.876C299.043 306.145 298.4 306.929 297.916 307.069C297.863 307.084 297.729 306.967 297.686 306.981C297.635 306.997 297.576 307.128 297.524 307.129C297.29 307.133 296.824 306.943 296.606 306.775C295.964 306.28 295.704 305.538 296.233 304.734Z" fill="#3FC1C9"/>
<path fill-rule="evenodd" clip-rule="evenodd" d="M291.512 309.187C292.764 307.399 294.994 309.603 293.69 310.923C293.126 311.493 292.252 311.631 291.589 310.904C291.082 310.348 291.044 309.857 291.512 309.187Z" fill="#3FC1C9"/>
<path fill-rule="evenodd" clip-rule="evenodd" d="M286.703 313.871C287.078 313.185 287.869 312.903 288.441 313.328C289.076 313.799 289.144 314.632 288.828 315.058C287.984 316.196 285.951 315.244 286.703 313.871Z" fill="#3FC1C9"/>
<path fill-rule="evenodd" clip-rule="evenodd" d="M282.219 318.257C282.428 317.985 282.826 317.801 283.017 317.827C283.381 317.876 283.952 318.573 283.9 318.958C283.85 319.324 283.271 319.908 282.769 319.84C282.472 319.799 281.886 319.239 281.88 318.864C281.876 318.662 282.066 318.457 282.219 318.257Z" fill="#3FC1C9"/>
<path fill-rule="evenodd" clip-rule="evenodd" d="M300.908 304.638C300.935 304.605 300.896 304.478 300.997 304.408C301.62 303.979 302.114 303.945 302.646 304.095C302.758 304.126 303.207 304.241 303.409 304.441C304.376 305.402 303.838 307.109 302.496 307.358C302.074 307.436 301.39 307.451 300.882 306.894C300.738 306.736 300.48 306.297 300.452 306.096C300.445 306.048 300.552 305.903 300.54 305.866C300.421 305.5 300.464 305.174 300.908 304.638Z" fill="#3FC1C9"/>
<path fill-rule="evenodd" clip-rule="evenodd" d="M305.541 300.413C305.824 299.955 305.975 299.758 306.279 299.591C306.587 299.422 307.594 299.408 308.063 299.751C309.019 300.451 309.211 301.985 308.001 302.785C307.377 303.196 306.287 303.306 305.536 302.204C305.275 301.821 305.105 301.118 305.541 300.413Z" fill="#3FC1C9"/>
<path fill-rule="evenodd" clip-rule="evenodd" d="M296.107 309.165C297.553 307.372 300.047 309.889 298.418 311.374C297.89 311.856 296.847 312.099 296.088 311.267C295.507 310.63 295.531 309.879 296.107 309.165Z" fill="#3FC1C9"/>
<path fill-rule="evenodd" clip-rule="evenodd" d="M291.216 313.923C291.665 313.189 292.584 312.859 293.265 313.394C293.926 313.914 294.072 314.883 293.638 315.436C293.184 316.013 292.16 316.532 291.3 315.484C290.967 315.077 290.796 314.609 291.216 313.923Z" fill="#3FC1C9"/>
<path fill-rule="evenodd" clip-rule="evenodd" d="M286.57 318.458C287.032 317.723 287.777 317.578 288.374 318.152C289.61 319.338 287.823 320.989 286.735 319.945C286.414 319.636 286.105 319.195 286.57 318.458Z" fill="#3FC1C9"/>
<path fill-rule="evenodd" clip-rule="evenodd" d="M305.333 304.919C306.04 303.89 307.49 303.652 308.374 304.826C308.835 305.439 308.817 306.515 308.348 307.082C307.763 307.788 306.252 308.265 305.314 307.021C304.922 306.5 304.774 305.733 305.333 304.919Z" fill="#3FC1C9"/>
<path fill-rule="evenodd" clip-rule="evenodd" d="M310.128 300.547C310.426 300.085 310.556 299.906 310.866 299.725C310.857 299.73 311.127 299.6 311.184 299.584C311.237 299.568 311.372 299.686 311.414 299.672C312.016 299.475 312.985 299.792 313.472 300.623C313.71 301.03 313.719 302.013 313.386 302.488C313.14 302.839 312.57 303.281 312.256 303.37C312.203 303.385 312.068 303.268 312.026 303.281C311.758 303.369 311.549 303.345 311.168 303.32C310.962 303.306 310.305 302.907 309.968 302.33C309.767 301.987 309.676 301.245 310.128 300.547Z" fill="#3FC1C9"/>
<path fill-rule="evenodd" clip-rule="evenodd" d="M300.531 309.447C301.531 307.992 303.217 308.564 303.706 309.827C303.938 310.425 303.657 311.664 302.511 312.108C301.397 312.539 299.445 311.028 300.531 309.447Z" fill="#3FC1C9"/>
<path fill-rule="evenodd" clip-rule="evenodd" d="M295.892 313.827C297.338 312.034 299.832 314.55 298.203 316.035C297.676 316.517 296.632 316.76 295.873 315.928C295.292 315.291 295.317 314.54 295.892 313.827Z" fill="#3FC1C9"/>
<path fill-rule="evenodd" clip-rule="evenodd" d="M291.083 318.51C292.334 316.722 294.564 318.926 293.26 320.245C292.696 320.816 291.822 320.953 291.159 320.226C290.653 319.671 290.615 319.179 291.083 318.51Z" fill="#3FC1C9"/>
<path fill-rule="evenodd" clip-rule="evenodd" d="M286.517 322.971C286.643 322.821 286.82 322.582 287.005 322.526C287.125 322.489 287.718 322.535 287.782 322.562C288.075 322.688 288.454 323.163 288.523 323.375C288.546 323.444 288.477 324.175 288.487 324.151C288.032 325.207 286.437 324.936 286.157 324.044C286.155 324.038 286.157 323.345 286.192 323.267C286.243 323.154 286.437 323.067 286.517 322.971Z" fill="#3FC1C9"/>
</g>
<path d="M301.435 329.573L328.752 304.662L342.108 319.308C343.87 321.24 344.704 323.843 344.394 326.439L342.908 338.886C342.379 343.321 338.677 346.697 334.212 346.816L321.681 347.151C319.067 347.221 316.552 346.151 314.79 344.219L301.435 329.573Z" fill="white" stroke="#2F3237" stroke-width="2"/>
<path d="M331.241 345.948L342.316 335.848L342.12 340.434C342.051 342.031 341.348 343.535 340.167 344.613V344.613C338.985 345.69 337.423 346.252 335.826 346.173L331.241 345.948Z" fill="#2F3237"/>
<path d="M245.38 324.458L253.004 317.505M329.551 247.701L321.927 254.654" stroke="#3FC1C9" stroke-width="2"/>
<path d="M248.845 243.729L255.842 251.401" stroke="#3FC1C9" stroke-width="2"/>
<path d="M228.489 283.177L239.173 283.703M346.443 288.983L335.758 288.457" stroke="#3FC1C9" stroke-width="2"/>
<path d="M289.998 227.085L289.539 237.773M284.933 345.074L285.392 334.386" stroke="#3FC1C9" stroke-width="2"/>
<path d="M317.651 315.474L307.536 336.265" stroke="#2F3237" stroke-width="2"/>
<path d="M330.789 306.895L313.634 342.952" stroke="#2F3237" stroke-width="2"/>
<path d="M329.938 326.723L320.531 347.549" stroke="#2F3237" stroke-width="2"/>
<path d="M312.388 318.232C302.586 307.483 294.4 298.315 282.052 294.979C276.565 293.497 268.38 295.604 267.89 301.784C267.72 303.926 270.581 306.678 273.156 304.713C284.513 296.049 289.027 274.155 277.852 264.187C275.115 261.746 273.275 265.261 274.348 269.116C275.772 274.229 279.742 278.839 284.19 281.791C292.018 286.986 304.455 283.592 305.827 273.299C306.036 271.727 305.211 267.997 302.496 268.962C299.983 269.856 297.932 273.888 297.354 276.16C293.387 291.765 306.296 304.735 315.782 315.137" stroke="white" stroke-width="2" stroke-linejoin="round"/>
</g>
<g clip-path="url(#clip1)">
<path d="M212.537 313.323C215.531 310.799 215.932 306.313 213.434 303.298C210.932 300.278 206.469 299.878 203.47 302.406C200.476 304.929 200.074 309.415 202.572 312.43C205.075 315.45 209.538 315.85 212.537 313.323ZM211.894 304.574C213.692 306.743 213.402 309.978 211.248 311.793C209.099 313.605 205.906 313.319 204.113 311.154C202.315 308.985 202.605 305.751 204.759 303.935C206.908 302.124 210.101 302.409 211.894 304.574ZM98.5187 232.843C89.2916 221.707 87.7582 206.652 93.3406 194.243L120.402 226.904L121.045 227.681L121.816 227.031L144.455 207.951L145.213 207.312L144.581 206.548L117.504 173.869C130.597 170.528 145.012 174.719 154.241 185.858C163.817 197.415 165.107 213.194 158.755 225.854L158.462 226.437L158.879 226.94L219.664 300.303C224.53 306.176 223.746 314.925 217.915 319.84C212.088 324.751 203.427 323.975 198.565 318.107L137.78 244.744L137.357 244.234L136.722 244.425C123.251 248.477 108.093 244.399 98.5187 232.843Z" fill="white" stroke="#3FC1C9" stroke-width="2"/>
<path d="M83.8735 303.143L91.8825 312.762L108.672 304.807L112.262 295.67L165.25 251.231L157.241 241.612L104.253 286.051L94.6562 287.974L83.8735 303.143Z" fill="#E9EAEC"/>
<path d="M83.8311 302.583L91.0058 312.749L108.672 304.807L112.262 295.67L124.577 285.342L166.019 250.475" stroke="#A7ABB4" stroke-width="2"/>
<path d="M83.8735 303.143L94.6562 287.974L104.253 286.051L157.241 241.612" stroke="#17191C" stroke-width="2"/>
<path d="M175.81 254.625L154.787 229.376L206.934 185.642C213.886 179.811 224.228 180.737 230.033 187.71V187.71C235.839 194.682 234.909 205.061 227.958 210.891L175.81 254.625Z" fill="#FCE38A"/>
<path d="M188.398 244.069C186.743 245.457 184.28 245.237 182.898 243.576V243.576C181.516 241.916 181.737 239.445 183.392 238.057L222.952 204.879C224.607 203.491 227.07 203.712 228.452 205.372V205.372C229.834 207.032 229.613 209.503 227.958 210.891L188.398 244.069Z" fill="#A35100"/>
<path d="M178.386 232.045C176.731 233.434 174.269 233.213 172.887 231.553V231.553C171.504 229.893 171.726 227.422 173.381 226.034L212.941 192.856C214.596 191.468 217.058 191.688 218.441 193.348V193.348C219.823 195.008 219.602 197.479 217.946 198.868L178.386 232.045Z" fill="#A35100"/>
<path d="M176.627 270.277L140.586 226.992V226.992C147.207 221.439 157.056 222.321 162.585 228.962L178.603 248.199C184.132 254.84 183.247 264.724 176.627 270.277V270.277Z" fill="#FCE38A"/>
<path d="M147.112 335.141C148.239 322.229 144.602 316.741 131.484 312.296C145.761 312.623 148.147 308.145 152.215 296.947C153.092 310.959 158.239 315.916 170.437 319.019C158.93 318.525 151.885 319.426 147.112 335.141Z" fill="#2DE09E"/>
<path d="M218.412 265.972C219.103 258.057 216.833 254.521 208.662 251.235C217.552 252.031 219.034 249.368 221.556 242.633C222.115 251.309 225.324 254.58 232.921 257.001C225.756 256.218 221.371 256.48 218.412 265.972Z" fill="#006FFF"/>
<path d="M87.6118 267.189C88.1732 260.763 86.3632 258.286 79.8355 256.91C86.9404 256.187 88.1278 253.834 90.152 248.069C90.5884 254.913 93.1495 257.035 99.2191 257.807C93.493 258.277 89.9875 259.157 87.6118 267.189Z" fill="#FF5C00"/>
</g>
<ellipse cx="16.9457" cy="384.166" rx="14.112" ry="14.0926" transform="rotate(0.867347 16.9457 384.166)" fill="#17191C"/>
<ellipse cx="119.903" cy="385.531" rx="14.1913" ry="14.1718" transform="rotate(0.867347 119.903 385.531)" fill="#17191C"/>
<ellipse cx="119.903" cy="385.531" rx="4.73042" ry="4.72392" transform="rotate(0.867347 119.903 385.531)" fill="#FC5185"/>
<path d="M29.2975 351.285L42.2562 307.077L52.3522 312.779C53.9531 313.683 54.7315 315.562 54.2389 317.333L46.7495 344.264C46.3777 345.601 45.3394 346.65 44.0062 347.035L29.2975 351.285Z" fill="#2F3237"/>
<path d="M74.5123 287.971L48.1755 287.572L17.6192 383.982" stroke="#FC5185" stroke-width="3" stroke-linecap="round"/>
<path d="M15.9829 363.01C28.1692 363.195 36.4102 369.726 38.1307 383.205L97.4783 384.104C98.9356 372.594 108.692 363.773 120.878 363.958" stroke="#FC5185" stroke-width="3" stroke-linecap="round"/>
<rect x="56.85" y="284.228" width="21.9098" height="7.88719" rx="3.9436" transform="rotate(0.867347 56.85 284.228)" fill="#17191C"/>
<path d="M25.715 302.666C25.7747 298.72 29.0224 295.569 32.9688 295.629L46.4477 295.833L42.383 310.066L32.7525 309.92C28.806 309.86 25.6553 306.613 25.715 302.666V302.666Z" fill="#FC5185"/>
<ellipse cx="33.6336" cy="302.728" rx="3.54783" ry="3.54295" transform="rotate(0.867347 33.6336 302.728)" fill="#FEFFD5"/>
<ellipse cx="40.4595" cy="341.004" rx="2.56582" ry="2.56229" transform="rotate(0.867347 40.4595 341.004)" fill="#FEFFD5"/>
<ellipse cx="43.1609" cy="332.076" rx="2.56582" ry="2.56229" transform="rotate(0.867347 43.1609 332.076)" fill="#2DE09E"/>
<g clip-path="url(#clip2)">
<path d="M256.784 415.867L216.77 408.861L208.94 453.582L192.464 450.697L191.331 457.17L264.297 469.945L265.43 463.473L248.954 460.588L256.784 415.867Z" fill="#D3D5D9"/>
<path d="M256.784 415.867L216.77 408.861L208.94 453.582L192.464 450.697L191.331 457.17L264.297 469.945L265.43 463.473L248.954 460.588L256.784 415.867Z" fill="url(#paint0_linear)" fill-opacity="0.4"/>
<path d="M170.686 357.826L169.225 389.777L244.352 421.344L283.355 390.125L269.168 385.575L291.608 353.444L239.278 359.008L240.003 340.571L207.028 364.189L195.462 343.218L182.137 366.203L170.686 357.826Z" fill="#FC5185"/>
<path d="M176.509 368.835L178.612 398.138L233.427 413.773L282.867 378.156L255.727 378.571L262.473 367.878L228.648 377.963L232.598 355.403L202.077 373.311L195.281 360.663L186.097 373.097L176.509 368.835Z" stroke="#FCE38A" stroke-width="2"/>
<path d="M186.748 375.278C186.603 376.108 185.812 376.664 184.981 376.518C184.15 376.373 183.595 375.582 183.74 374.751C183.886 373.92 184.677 373.365 185.508 373.51C186.338 373.656 186.894 374.447 186.748 375.278Z" fill="#FCE38A"/>
<path d="M220.94 368.863C220.795 369.694 220.004 370.249 219.173 370.104C218.342 369.959 217.787 369.167 217.932 368.337C218.078 367.506 218.869 366.951 219.7 367.096C220.53 367.241 221.086 368.033 220.94 368.863Z" fill="#FCE38A"/>
<path d="M216.879 374.353C216.734 375.183 215.942 375.739 215.112 375.593C214.281 375.448 213.726 374.657 213.871 373.826C214.016 372.995 214.808 372.44 215.638 372.585C216.469 372.731 217.024 373.522 216.879 374.353Z" fill="#FCE38A"/>
<path d="M194.77 376.682C194.624 377.513 193.833 378.068 193.002 377.923C192.172 377.777 191.616 376.986 191.762 376.155C191.907 375.325 192.698 374.769 193.529 374.915C194.36 375.06 194.915 375.851 194.77 376.682Z" fill="#FCE38A"/>
<path d="M223.195 379.592C223.05 380.423 222.259 380.978 221.428 380.833C220.597 380.687 220.042 379.896 220.187 379.066C220.333 378.235 221.124 377.679 221.955 377.825C222.785 377.97 223.341 378.762 223.195 379.592Z" fill="#FCE38A"/>
<path d="M253.026 374.481C252.88 375.312 252.089 375.867 251.258 375.722C250.428 375.576 249.872 374.785 250.018 373.954C250.163 373.124 250.954 372.568 251.785 372.714C252.616 372.859 253.171 373.65 253.026 374.481Z" fill="#FCE38A"/>
<path d="M240.943 378.566C240.798 379.397 240.006 379.952 239.176 379.807C238.345 379.661 237.79 378.87 237.935 378.039C238.08 377.209 238.872 376.653 239.702 376.799C240.533 376.944 241.088 377.735 240.943 378.566Z" fill="#FCE38A"/>
<path d="M235.052 382.702C234.906 383.532 234.115 384.088 233.285 383.942C232.454 383.797 231.898 383.006 232.044 382.175C232.189 381.344 232.981 380.789 233.811 380.934C234.642 381.08 235.197 381.871 235.052 382.702Z" fill="#FCE38A"/>
<path d="M243.073 384.106C242.928 384.937 242.136 385.492 241.306 385.347C240.475 385.201 239.92 384.41 240.065 383.579C240.211 382.749 241.002 382.193 241.833 382.339C242.663 382.484 243.219 383.275 243.073 384.106Z" fill="#FCE38A"/>
<path d="M265.007 382.779C264.861 383.61 264.07 384.165 263.24 384.02C262.409 383.875 261.853 383.083 261.999 382.253C262.144 381.422 262.936 380.867 263.766 381.012C264.597 381.157 265.152 381.949 265.007 382.779Z" fill="#FCE38A"/>
<path d="M256.283 385.385C256.138 386.216 255.347 386.772 254.516 386.626C253.685 386.481 253.13 385.689 253.275 384.859C253.421 384.028 254.212 383.473 255.043 383.618C255.873 383.764 256.429 384.555 256.283 385.385Z" fill="#FCE38A"/>
<rect x="169.264" y="374.8" width="80.4154" height="59.0392" transform="rotate(9.93112 169.264 374.8)" fill="#E9EAEC"/>
<mask id="mask1" mask-type="alpha" maskUnits="userSpaceOnUse" x="165" y="384" width="69" height="53">
<rect x="172.865" y="384.818" width="61.1792" height="41.8041" rx="9" transform="rotate(9.93112 172.865 384.818)" fill="#82868F"/>
</mask>
<g mask="url(#mask1)">
<rect x="172.865" y="384.818" width="61.1792" height="41.8041" rx="9" transform="rotate(9.93112 172.865 384.818)" fill="#82868F"/>
<path d="M154.392 394.661L216.283 457.456L214.79 458.927L152.9 396.132L154.392 394.661Z" fill="#565F6F"/>
<path d="M149.915 399.074L211.805 461.869L210.312 463.341L148.422 400.546L149.915 399.074Z" fill="#565F6F"/>
<path d="M163.348 385.835L225.238 448.63L223.746 450.101L161.855 387.306L163.348 385.835Z" fill="#565F6F"/>
<path d="M158.87 390.248L220.76 453.043L219.268 454.514L157.378 391.719L158.87 390.248Z" fill="#565F6F"/>
<path d="M172.304 377.008L234.194 439.803L232.701 441.274L170.811 378.479L172.304 377.008Z" fill="#565F6F"/>
<path d="M167.826 381.421L229.716 444.216L228.223 445.687L166.333 382.892L167.826 381.421Z" fill="#565F6F"/>
<path d="M181.259 368.181L243.149 430.977L241.657 432.448L179.767 369.653L181.259 368.181Z" fill="#565F6F"/>
<path d="M176.781 372.595L238.672 435.39L237.179 436.861L175.289 374.066L176.781 372.595Z" fill="#565F6F"/>
<path d="M184.9 363.303L246.79 426.098L245.297 427.569L183.407 364.774L184.9 363.303Z" fill="#565F6F"/>
<path d="M188.507 358.547L250.397 421.342L248.904 422.813L187.014 360.018L188.507 358.547Z" fill="#565F6F"/>
</g>
<path d="M198.541 396.46L187.37 394.504C184.612 394.021 183.233 393.78 182.085 394.132C181.076 394.442 180.19 395.064 179.556 395.908C178.835 396.867 178.593 398.247 178.11 401.005L177.032 407.162" stroke="white" stroke-width="2"/>
<path d="M261.505 391.984L244.289 388.969L234.282 446.121L272.383 452.792L277.921 421.164L269.504 419.69L261.505 391.984Z" fill="#F4F5F6"/>
<rect x="166.081" y="375.276" width="78.3795" height="58.0212" transform="rotate(9.93112 166.081 375.276)" stroke="#848D9B" stroke-width="2"/>
<path d="M251.76 429.547L241.176 442.161M256.404 430.36L245.82 442.974M261.048 431.173L250.464 443.787M265.692 431.986L255.107 444.6" stroke="#A7ABB4" stroke-width="2"/>
<path d="M246.294 389.32L261.342 391.955L269.254 419.718L276.906 421.058L271.556 451.614L259.927 449.578" stroke="#848D9B" stroke-width="2"/>
<path d="M155.801 453.416L256.884 454.506L254.543 467.875L237.609 471.8L155.112 457.355L155.801 453.416Z" fill="#C2C5CB"/>
<path d="M174.075 440.247L254.749 454.372L236.552 467.561L155.811 453.424L174.075 440.247Z" fill="#F4F5F6"/>
<path d="M202.861 454.991L237.524 461.06L239.876 459.652L204.935 453.534L202.861 454.991Z" fill="#CDCFD5"/>
<path d="M202.439 453.097L167.775 447.028L165.423 448.436L200.364 454.553L202.439 453.097Z" fill="#CDCFD5"/>
<path d="M184.752 447.575L220.504 453.834L222.578 452.378L186.826 446.118L184.752 447.575Z" fill="#CDCFD5"/>
<path d="M184.33 445.681L172.615 443.63L170.264 445.038L182.255 447.137L184.33 445.681Z" fill="#CDCFD5"/>
<path d="M242.364 457.662L223 454.271L225.075 452.815L244.716 456.254L242.364 457.662Z" fill="#CDCFD5"/>
<path d="M178.822 453.208L209.144 458.517L207.381 460.027L177.059 454.718L178.822 453.208Z" fill="#CDCFD5"/>
<path d="M171.779 439.845L257.103 454.784L254.836 467.73L236.241 471.752L151.212 456.864L151.933 452.745L171.779 439.845Z" stroke="#848D9B" stroke-width="2"/>
<path d="M236.818 364.256L241.134 365.035L240.496 369.596L236.279 368.27L236.818 364.256Z" fill="#FFDD2C"/>
<path d="M174.936 344.281L177.514 348.886L173.676 351.06L171.507 345.99L174.936 344.281Z" fill="#FC5185"/>
<rect width="3.05303" height="6.27934" transform="matrix(0.0773768 0.997002 -0.995431 0.0954809 161.567 368.216)" fill="#FC5185"/>
<rect width="4.7051" height="5.60559" transform="matrix(0.430142 0.902761 -0.897688 0.440631 278.706 405.676)" fill="#FC5185"/>
<ellipse cx="208.772" cy="345.945" rx="2.59891" ry="2.5047" transform="rotate(-106.609 208.772 345.945)" fill="#FC5185"/>
</g>
<defs>
<linearGradient id="paint0_linear" x1="250.686" y1="460.55" x2="227.814" y2="463.558" gradientUnits="userSpaceOnUse">
<stop stop-color="#565F6F"/>
<stop offset="1" stop-color="#565F6F" stop-opacity="0"/>
</linearGradient>
<clipPath id="clip0">
<rect width="139.894" height="140.776" fill="white" transform="translate(198 293.262) rotate(-42.3621)"/>
</clipPath>
<clipPath id="clip1">
<rect width="159" height="153" fill="white" transform="translate(72 326.367) rotate(-84.8839)"/>
</clipPath>
<clipPath id="clip2">
<rect width="135" height="135" fill="white" transform="translate(161.283 325) rotate(9.93112)"/>
</clipPath>
</defs>
</svg>
